<svg width="279" height="64" viewBox="0 0 279 64" fill="none" xmlns="http://www.w3.org/2000/svg">
<g filter="url(#filter0_d_3_194)">
<path d="M39.5161 16.7905H49.5914L56.5218 33.6797H56.8712L63.8016 16.7905H73.8769V46.6086H65.9565V29.37H65.7235L59.0843 46.3757H54.3087L47.6695 29.2535H47.4366V46.6086H39.5161V16.7905ZM84.0614 46.9581C82.6345 46.9581 81.3727 46.7251 80.2759 46.2592C79.1888 45.7836 78.3346 45.0653 77.7134 44.1044C77.0922 43.1434 76.7816 41.9204 76.7816 40.4353C76.7816 39.2123 76.9902 38.1689 77.4076 37.305C77.825 36.4314 78.4074 35.718 79.1548 35.1648C79.9022 34.6115 80.7709 34.1893 81.761 33.8981C82.7607 33.6069 83.8381 33.4176 84.9932 33.3302C86.2453 33.2332 87.25 33.1167 88.0071 32.9808C88.7739 32.8352 89.3271 32.6362 89.6669 32.3839C90.0066 32.1218 90.1764 31.7772 90.1764 31.3501V31.2919C90.1764 30.7095 89.9532 30.263 89.5067 29.9524C89.0602 29.6418 88.4875 29.4865 87.7887 29.4865C87.0219 29.4865 86.3958 29.6563 85.9105 29.9961C85.4349 30.3261 85.1485 30.8357 85.0514 31.5248H77.6551C77.7522 30.1659 78.1841 28.9138 78.951 27.7684C79.7275 26.6134 80.8583 25.6913 82.3434 25.0021C83.8284 24.3032 85.6824 23.9538 87.9051 23.9538C89.5067 23.9538 90.9433 24.1431 92.2148 24.5216C93.4863 24.8905 94.5686 25.4098 95.4616 26.0795C96.3546 26.7396 97.034 27.5161 97.5 28.4091C97.9756 29.2924 98.2134 30.2533 98.2134 31.2919V46.6086H90.7006V43.4638H90.5259C90.0794 44.2985 89.5358 44.9731 88.8952 45.4875C88.2643 46.002 87.5411 46.3757 86.7258 46.6086C85.9202 46.8416 85.032 46.9581 84.0614 46.9581ZM86.6821 41.8913C87.2936 41.8913 87.8663 41.7651 88.4002 41.5128C88.9437 41.2604 89.3854 40.8964 89.7251 40.4208C90.0648 39.9452 90.2347 39.3676 90.2347 38.6882V36.8246C90.0211 36.9119 89.793 36.9944 89.5504 37.0721C89.3174 37.1497 89.0651 37.2225 88.7933 37.2905C88.5312 37.3584 88.2497 37.4215 87.9488 37.4797C87.6576 37.538 87.3519 37.5914 87.0316 37.6399C86.4103 37.737 85.9008 37.8971 85.5028 38.1204C85.1145 38.3339 84.8233 38.6008 84.6292 38.9211C84.4448 39.2317 84.3526 39.5812 84.3526 39.9694C84.3526 40.5906 84.571 41.0663 85.0078 41.3963C85.4446 41.7263 86.0027 41.8913 86.6821 41.8913ZM110.09 34.0291V46.6086H102.053V24.245H109.683V28.4964H109.916C110.401 27.0793 111.255 25.9679 112.478 25.1623C113.711 24.3566 115.147 23.9538 116.788 23.9538C118.37 23.9538 119.743 24.3178 120.908 25.0458C122.083 25.7641 122.99 26.7541 123.631 28.016C124.281 29.2778 124.602 30.7192 124.592 32.3402V46.6086H116.555V34.0291C116.565 32.9226 116.283 32.0538 115.71 31.4229C115.147 30.792 114.361 30.4765 113.352 30.4765C112.692 30.4765 112.114 30.6221 111.619 30.9133C111.134 31.1948 110.76 31.6025 110.498 32.1363C110.236 32.6605 110.1 33.2914 110.09 34.0291ZM136.611 16.7905H146.686L153.617 33.6797H153.966L160.896 16.7905H170.972V46.6086H163.051V29.37H162.818L156.179 46.3757H151.403L144.764 29.2535H144.531V46.6086H136.611V16.7905ZM181.156 46.9581C179.729 46.9581 178.467 46.7251 177.371 46.2592C176.283 45.7836 175.429 45.0653 174.808 44.1044C174.187 43.1434 173.876 41.9204 173.876 40.4353C173.876 39.2123 174.085 38.1689 174.502 37.305C174.92 36.4314 175.502 35.718 176.25 35.1648C176.997 34.6115 177.866 34.1893 178.856 33.8981C179.855 33.6069 180.933 33.4176 182.088 33.3302C183.34 33.2332 184.345 33.1167 185.102 32.9808C185.869 32.8352 186.422 32.6362 186.762 32.3839C187.101 32.1218 187.271 31.7772 187.271 31.3501V31.2919C187.271 30.7095 187.048 30.263 186.601 29.9524C186.155 29.6418 185.582 29.4865 184.883 29.4865C184.117 29.4865 183.491 29.6563 183.005 29.9961C182.53 30.3261 182.243 30.8357 182.146 31.5248H174.75C174.847 30.1659 175.279 28.9138 176.046 27.7684C176.822 26.6134 177.953 25.6913 179.438 25.0021C180.923 24.3032 182.777 23.9538 185 23.9538C186.601 23.9538 188.038 24.1431 189.31 24.5216C190.581 24.8905 191.663 25.4098 192.556 26.0795C193.449 26.7396 194.129 27.5161 194.595 28.4091C195.07 29.2924 195.308 30.2533 195.308 31.2919V46.6086H187.795V43.4638H187.621C187.174 44.2985 186.631 44.9731 185.99 45.4875C185.359 46.002 184.636 46.3757 183.821 46.6086C183.015 46.8416 182.127 46.9581 181.156 46.9581ZM183.777 41.8913C184.388 41.8913 184.961 41.7651 185.495 41.5128C186.038 41.2604 186.48 40.8964 186.82 40.4208C187.16 39.9452 187.329 39.3676 187.329 38.6882V36.8246C187.116 36.9119 186.888 36.9944 186.645 37.0721C186.412 37.1497 186.16 37.2225 185.888 37.2905C185.626 37.3584 185.344 37.4215 185.044 37.4797C184.752 37.538 184.447 37.5914 184.126 37.6399C183.505 37.737 182.995 37.8971 182.598 38.1204C182.209 38.3339 181.918 38.6008 181.724 38.9211C181.54 39.2317 181.447 39.5812 181.447 39.9694C181.447 40.5906 181.666 41.0663 182.102 41.3963C182.539 41.7263 183.097 41.8913 183.777 41.8913ZM209.922 55.4609C207.68 55.4609 205.758 55.1406 204.157 54.5C202.565 53.8691 201.327 52.9955 200.444 51.8792C199.57 50.7727 199.08 49.5012 198.973 48.0646H206.719C206.797 48.5402 206.991 48.9236 207.302 49.2148C207.612 49.506 208.01 49.7147 208.496 49.8409C208.991 49.9768 209.544 50.0447 210.155 50.0447C211.194 50.0447 212.053 49.7924 212.732 49.2876C213.422 48.7829 213.766 47.8705 213.766 46.5504V42.7649H213.533C213.242 43.522 212.795 44.1675 212.194 44.7013C211.592 45.2255 210.869 45.6283 210.024 45.9098C209.18 46.1816 208.253 46.3174 207.243 46.3174C205.652 46.3174 204.186 45.9486 202.846 45.2109C201.517 44.4732 200.449 43.3036 199.643 41.702C198.847 40.1005 198.449 38.0087 198.449 35.4268C198.449 32.7284 198.867 30.5348 199.701 28.8459C200.546 27.1569 201.633 25.9194 202.963 25.1331C204.302 24.3469 205.71 23.9538 207.185 23.9538C208.292 23.9538 209.262 24.1479 210.097 24.5362C210.932 24.9147 211.631 25.4243 212.194 26.065C212.757 26.6959 213.184 27.3899 213.475 28.147H213.65V24.245H221.687V46.5504C221.687 48.4432 221.196 50.0496 220.216 51.3697C219.245 52.6994 217.877 53.7138 216.11 54.4126C214.344 55.1115 212.281 55.4609 209.922 55.4609ZM210.214 40.6101C210.951 40.6101 211.582 40.4062 212.106 39.9986C212.64 39.5812 213.048 38.9891 213.329 38.2223C213.621 37.4458 213.766 36.5139 213.766 35.4268C213.766 34.3203 213.621 33.3739 213.329 32.5877C213.048 31.7918 212.64 31.1851 212.106 30.7677C211.582 30.3406 210.951 30.1271 210.214 30.1271C209.476 30.1271 208.845 30.3406 208.321 30.7677C207.806 31.1851 207.408 31.7918 207.127 32.5877C206.855 33.3739 206.719 34.3203 206.719 35.4268C206.719 36.5334 206.855 37.4749 207.127 38.2514C207.408 39.0182 207.806 39.6054 208.321 40.0131C208.845 40.4111 209.476 40.6101 210.214 40.6101ZM233.869 46.8998C232.278 46.8998 230.812 46.4825 229.472 45.6477C228.143 44.813 227.075 43.5463 226.269 41.8476C225.473 40.149 225.075 38.0087 225.075 35.4268C225.075 32.7284 225.493 30.5348 226.327 28.8459C227.172 27.1569 228.259 25.9194 229.589 25.1331C230.928 24.3469 232.336 23.9538 233.811 23.9538C234.918 23.9538 235.888 24.1479 236.723 24.5362C237.558 24.9147 238.257 25.4243 238.82 26.065C239.383 26.6959 239.81 27.3899 240.101 28.147H240.217V16.7905H248.254V46.6086H240.276V42.9396H240.101C239.79 43.6967 239.344 44.3762 238.761 44.978C238.189 45.5701 237.49 46.0408 236.665 46.3902C235.849 46.73 234.918 46.8998 233.869 46.8998ZM236.84 40.7265C237.577 40.7265 238.208 40.513 238.732 40.0859C239.266 39.6491 239.674 39.0376 239.955 38.2514C240.246 37.4555 240.392 36.5139 240.392 35.4268C240.392 34.3203 240.246 33.3739 239.955 32.5877C239.674 31.7918 239.266 31.1851 238.732 30.7677C238.208 30.3406 237.577 30.1271 236.84 30.1271C236.102 30.1271 235.471 30.3406 234.947 30.7677C234.432 31.1851 234.034 31.7918 233.753 32.5877C233.481 33.3739 233.345 34.3203 233.345 35.4268C233.345 36.5334 233.481 37.4846 233.753 38.2805C234.034 39.0667 234.432 39.6734 234.947 40.1005C235.471 40.5179 236.102 40.7265 236.84 40.7265ZM257.092 54.995C256.17 54.995 255.291 54.9222 254.457 54.7766C253.622 54.6407 252.889 54.4514 252.258 54.2088L254.005 48.5014C254.665 48.7344 255.267 48.8848 255.811 48.9527C256.364 49.0207 256.835 48.9819 257.223 48.8363C257.621 48.6907 257.907 48.414 258.082 48.0064L258.257 47.5987L250.395 24.245H258.781L262.392 39.7365H262.625L266.294 24.245H274.738L266.585 48.4723C266.177 49.705 265.585 50.8115 264.809 51.7919C264.042 52.7819 263.032 53.5633 261.78 54.136C260.528 54.7087 258.965 54.995 257.092 54.995Z" fill="white"/>
<path d="M14.5919 44.7434V0.457031H33.6488V7.16867H21.2867V19.2453H30.3211V25.9552H21.2867V38.0335H33.6488V44.7434H14.5919Z" fill="#FF5202"/>
<path d="M11.1133 41.5237C11.1133 41.5237 15.5937 41.9771 14.676 38.7706C14.676 38.7706 19.6253 40.9614 18.569 44.6493C18.569 44.6493 18.4703 46.0551 14.4563 44.7899C14.4581 44.7899 12.6491 44.2164 11.1133 41.5237Z" fill="#EA8518"/>
<path d="M18.5342 46.6573C18.5342 46.6573 16.0442 43.4491 22.3366 40.0177C22.3366 40.0177 21.611 40.6884 21.2256 43.3255C21.2256 43.3255 20.6922 46.9285 18.5342 46.6573Z" fill="#5255AC"/>
<path d="M18.9354 45.8588C18.9354 45.8588 14.2939 42.3277 10.035 45.0027C10.035 45.0027 13.3792 47.6132 18.7303 46.7542C18.7315 46.7542 19.6381 46.6266 18.9354 45.8588Z" fill="#5255AC"/>
<path d="M7.29012 33.1731C10.706 32.7127 13.1313 35.4857 13.9456 37.9014C13.9456 37.9014 15.0032 41.0381 15.4385 42.506C15.4544 42.5582 11.4915 41.0381 11.2283 40.9245C9.43341 40.1554 7.50046 38.4567 7.11386 36.4698C6.90941 35.4412 6.41882 33.2903 7.29012 33.1731Z" fill="#F0C722"/>
<path d="M15.4374 42.5015C15.4374 42.5015 5.77139 44.8452 4 39.555C4 39.555 5.26553 38.1705 7.87767 37.8732C7.87767 37.8708 11.3494 38.2758 15.4374 42.5015Z" fill="#F0C722"/>
<path d="M15.4373 42.506C15.4373 42.506 9.71894 36.195 11.9797 30.4692C11.9797 30.4692 15.3122 31.2852 15.6365 33.7805C15.6365 33.7805 16.1758 37.3349 15.4373 42.506Z" fill="#F0C722"/>
<path d="M15.4381 42.506H15.4327C15.4327 42.506 15.4387 42.5073 15.4381 42.506Z" fill="#5255AC"/>
<path d="M15.3124 42.3409C15.2378 42.242 15.1361 42.1004 15.0063 41.9231C15.0815 42.08 15.1853 42.2217 15.3124 42.3409Z" fill="#5255AC"/>
<path d="M11.5732 41.7794C11.8306 41.8894 15.2899 42.5237 15.4327 42.5039H15.4374C11.3494 38.2758 7.87769 37.8708 7.87769 37.8708C7.67865 37.8918 7.48197 37.931 7.29016 37.9879C8.07098 39.685 10.6426 41.382 11.5732 41.7794Z" fill="#438CE3"/>
<path d="M15.4374 42.5058L15.4498 42.4186C15.435 42.4145 15.4206 42.409 15.4069 42.4022C15.4174 42.4397 15.4274 42.4724 15.4374 42.5058Z" fill="#5255AC"/>
<path d="M14.1707 33.9638C13.7418 35.1512 13.7401 36.5055 13.9187 37.8246C13.9275 37.8504 13.9363 37.8756 13.9445 37.9013C13.9445 37.9013 14.9539 40.8963 15.4069 42.4023C15.4206 42.4091 15.435 42.4146 15.4498 42.4187C16.1701 37.2951 15.6366 33.7805 15.6366 33.7805C15.5285 33.1842 15.3475 32.756 15.126 32.4514C14.7035 32.8822 14.3778 33.3978 14.1707 33.9638Z" fill="#5255AC"/>
<path d="M14.4462 40.3609C14.2189 39.5268 14.0423 38.6798 13.9175 37.8246C13.4868 36.5218 12.7665 35.4188 11.7236 34.983C12.045 37.5504 14.0966 40.6544 15.005 41.9231C14.7741 41.4867 14.5755 40.8518 14.4462 40.3609Z" fill="#5255AC"/>
<path d="M15.4069 42.4023C15.373 42.3869 15.3412 42.3672 15.3123 42.3438C15.3922 42.4503 15.4375 42.5082 15.4375 42.5082C15.4275 42.4725 15.4175 42.4397 15.4069 42.4023Z" fill="#5255AC"/>
<path d="M13.9446 37.9012C13.9363 37.8755 13.9275 37.8503 13.9187 37.8246C14.0436 38.6791 14.2202 39.5252 14.4475 40.3585C14.5767 40.8489 14.7753 41.4832 15.0074 41.9192C15.1343 42.0948 15.2389 42.2381 15.3135 42.337C15.3424 42.3605 15.3742 42.3801 15.4081 42.3956C14.9539 40.8934 13.9446 37.9012 13.9446 37.9012Z" fill="#5255AC"/>
<path d="M33.9256 1.48406C34.8286 3.99287 33.1113 6.27558 31.4051 7.28308C31.4051 7.28308 29.1896 8.58991 28.1432 9.15752C28.1062 9.17743 28.6214 5.93584 28.6649 5.71735C28.9587 4.23596 29.9381 2.49977 31.3887 1.88355C32.1384 1.56431 33.6959 0.844996 33.9256 1.48406Z" fill="#EA8518"/>
<path d="M28.1431 9.15808C28.1431 9.15808 24.7942 2.22736 28.5362 0.0307617C28.5362 0.0307617 29.7958 0.763548 30.4445 2.6907C30.4445 2.6907 30.6995 5.38168 28.1431 9.15808Z" fill="#F0C722"/>
<path d="M28.1432 9.15356C28.1432 9.15356 32.0209 3.81247 36.7417 4.59487C36.7417 4.59487 36.66 7.24464 34.8146 7.89304C34.8146 7.89304 32.1972 8.87559 28.1432 9.15356Z" fill="#F0C722"/>
<path d="M28.1431 9.15851V9.15454C28.1431 9.15454 28.1425 9.15851 28.1431 9.15851Z" fill="#5255AC"/>
<path d="M28.2484 9.036C28.3118 8.96402 28.4023 8.86044 28.5169 8.73755C28.4094 8.81948 28.3184 8.92071 28.2484 9.036Z" fill="#5255AC"/>
<path d="M28.0679 6.11861C28.0256 6.33124 28.1026 9.04741 28.1408 9.1546V9.15812C30.6995 5.38172 30.4445 2.69074 30.4445 2.69074C30.3959 2.54339 30.3337 2.40084 30.2588 2.26489C29.0949 3.13123 28.2219 5.35009 28.0679 6.11861Z" fill="#438CE3"/>
<path d="M28.1432 9.15805L28.212 9.15337C28.2126 9.14134 28.2144 9.12939 28.2173 9.11768L28.1432 9.15805Z" fill="#5255AC"/>
<path d="M34.4373 6.81731C33.4649 6.68506 32.4338 6.90275 31.4597 7.25153L31.4051 7.28313C31.4051 7.28313 29.29 8.5296 28.2171 9.11538C28.2143 9.12709 28.2125 9.13904 28.2119 9.15108C32.2264 8.86667 34.8145 7.89524 34.8145 7.89524C35.2504 7.71968 35.5471 7.51135 35.7428 7.29483C35.3465 7.04524 34.9015 6.88247 34.4373 6.81731Z" fill="#5255AC"/>
<path d="M29.6162 8.05787C30.2139 7.7515 30.8298 7.48162 31.4604 7.24971C32.3817 6.71309 33.4962 6.36314 33.6789 4.88025C31.2836 5.48768 28.9787 7.79336 28.5175 8.73377C28.8113 8.48799 29.2637 8.23518 29.6162 8.05787Z" fill="#5255AC"/>
<path d="M28.2173 9.1176C28.2241 9.08925 28.2345 9.0619 28.2484 9.03625C28.1803 9.11409 28.1438 9.15798 28.1432 9.15798L28.2173 9.1176Z" fill="#5255AC"/>
<path d="M31.4052 7.28355L31.4599 7.25195C30.8294 7.48388 30.2137 7.75377 29.6162 8.06011C29.2637 8.23567 28.8119 8.49023 28.5175 8.73601C28.4 8.86066 28.3125 8.96248 28.249 9.03446C28.2351 9.06011 28.2247 9.08745 28.2179 9.11581C29.2901 8.53002 31.4052 7.28355 31.4052 7.28355Z" fill="#5255AC"/>
<path d="M9.08508 17.1437C9.08508 17.1437 12.3035 16.4578 14.5784 22.4413C14.5784 22.4413 10.7613 21.9727 9.08508 17.1437Z" fill="#EA8518"/>
<path d="M17.4033 33.1974C17.4033 33.1974 12.132 33.9979 10.7643 30.7156C10.766 30.7156 14.2765 29.3251 17.4033 33.1974Z" fill="#EA8518"/>
<path d="M22.0863 27.1796C22.0863 27.1796 21.0969 32.2429 17.4543 33.306C17.4543 33.306 18.4237 27.4847 22.0863 27.1796Z" fill="#5255AC"/>
<path d="M12.9304 16.9399C12.9304 16.9399 9.05272 13.5097 10.8676 9.37952C10.8676 9.37952 14.3916 12.1103 12.9304 16.9399Z" fill="#EA8518"/>
<path d="M14.6524 22.4068C14.6524 22.4068 14.0596 17.1186 16.7992 14.6543C16.7992 14.6543 17.9061 17.1004 16.949 19.4218C16.949 19.4195 16.3633 21.0777 14.6524 22.4068Z" fill="#438CE3"/>
<path d="M18.8451 38.9905C18.8451 38.9905 15.011 39.7571 12.7543 36.3313C12.7543 36.3313 15.5039 35.1264 18.8451 38.9905Z" fill="#EA8518"/>
<path d="M18.9678 39.2386C18.9678 39.2386 18.7986 34.9883 22.131 32.8403C22.131 32.8403 24.0758 34.9321 18.9678 39.2386Z" fill="#EA8518"/>
<path d="M16.0279 28.2215C16.0279 28.2215 11.5791 28.1313 9.97168 24.3984C9.97168 24.3984 12.5304 23.6833 16.0279 28.2215Z" fill="#5255AC"/>
<path d="M15.9856 28.1338C15.9856 28.1338 15.8993 23.0722 19.6776 20.8147C19.6747 20.8147 20.1065 26.1158 15.9856 28.1338Z" fill="#438CE3"/>
<path d="M27.3149 45.119C27.2407 45.6572 27.2233 46.2016 27.2632 46.7433H33.4352L33.4111 46.6848C33.4064 46.6719 33.4005 46.6578 33.3947 46.6426C33.3606 46.5547 33.3124 46.4229 33.2566 46.2466L33.2296 46.1587C33.1978 46.0564 33.1649 45.9412 33.1309 45.8131C32.8459 44.7389 32.5057 42.7801 32.7454 40.0334H31.5586C30.561 41.7708 29.1633 43.6886 27.3149 45.119Z" fill="#438CE3"/>
<path d="M33.4082 46.6854C33.4034 46.6723 33.3975 46.658 33.3915 46.6426C33.3975 46.6574 33.4034 46.6723 33.4082 46.6854Z" fill="#F0C722"/>
<path d="M23.9676 41.0879C23.6991 41.2993 23.4617 41.5474 23.2626 41.8247C23.4726 41.5565 23.7087 41.3097 23.9676 41.0879Z" fill="#F0C722"/>
<path d="M25.3996 40.0334C24.577 40.5982 24.0976 40.9815 23.9895 41.0681C24.0976 40.9815 24.5782 40.5982 25.3996 40.0334Z" fill="#F0C722"/>
<path d="M27.8135 44.5128C27.6067 43.1069 28.3311 41.6156 29.4585 40.3041C28.1478 41.3549 26.6813 42.2371 25.1179 42.5452C24.3751 42.6898 23.61 42.6761 22.873 42.5048C22.1756 44.0547 22.4652 45.9168 22.6509 46.7433H24.4023C25.4517 46.357 26.4339 45.8089 27.3129 45.119C29.1612 43.6886 30.559 41.7708 31.5566 40.0334H31.3921C30.4332 41.6841 29.2047 43.4215 27.8135 44.5128Z" fill="#F0C722"/>
<path d="M33.1277 45.8131C33.1617 45.9408 33.1946 46.056 33.2264 46.1587L33.2534 46.2466C33.3092 46.4223 33.3574 46.5547 33.3915 46.6426C33.3973 46.6578 33.4032 46.6719 33.4079 46.6848L33.432 46.7433H33.6488V40.0334H32.7422C32.5025 42.7801 32.8427 44.7389 33.1277 45.8131Z" fill="#F0C722"/>
<path d="M23.9759 41.0821L23.97 41.0868C23.7112 41.3086 23.475 41.5554 23.265 41.8236C23.1018 42.031 22.9656 42.2581 22.8596 42.4995L22.8731 42.5024C23.6102 42.6735 24.3753 42.6873 25.1181 42.5428C26.6815 42.232 28.1479 41.3537 29.4587 40.3038L29.5251 40.2266L29.6902 40.0334H25.3995C24.577 40.5982 24.0975 40.9815 23.9894 41.0681L23.9759 41.0821Z" fill="#5255AC"/>
<path d="M29.4605 40.3038C28.3312 41.6141 27.1104 43.7102 27.3148 45.1141C28.7049 44.0245 30.9017 41.9213 31.5585 40.0334H29.7924C29.682 40.1247 29.5713 40.2149 29.4605 40.3038Z" fill="#FF5202"/>
<path d="M29.5269 40.2266L29.4605 40.3038C29.5714 40.2149 29.6814 40.1247 29.7907 40.0334H29.692L29.5269 40.2266Z" fill="#5255AC"/>
</g>
<defs>
<filter id="filter0_d_3_194" x="0" y="0.0307617" width="278.738" height="63.4302" filterUnits="userSpaceOnUse" color-interpolation-filters="sRGB">
<feFlood flood-opacity="0" result="BackgroundImageFix"/>
<feColorMatrix in="SourceAlpha" type="matrix" values="0 0 0 0 0 0 0 0 0 0 0 0 0 0 0 0 0 0 127 0" result="hardAlpha"/>
<feOffset dy="4"/>
<feGaussianBlur stdDeviation="2"/>
<feComposite in2="hardAlpha" operator="out"/>
<feColorMatrix type="matrix" values="0 0 0 0 0 0 0 0 0 0 0 0 0 0 0 0 0 0 0.25 0"/>
<feBlend mode="normal" in2="BackgroundImageFix" result="effect1_dropShadow_3_194"/>
<feBlend mode="normal" in="SourceGraphic" in2="effect1_dropShadow_3_194" result="shape"/>
</filter>
</defs>
</svg>
