<svg width="60" height="60" viewBox="0 0 60 60" fill="none" xmlns="http://www.w3.org/2000/svg">
<rect opacity="0.1" width="60" height="60" rx="30" fill="white"/>
<path d="M37.7462 37.7644H34.4861V32.6542C34.4861 31.4355 34.4644 29.8674 32.7905 29.8674C31.0927 29.8674 30.8325 31.1946 30.8325 32.5662V37.7644H27.5735V27.2553H30.7035V28.691H30.7469C31.3854 27.5993 32.5715 26.9471 33.8345 26.9937C37.139 26.9937 37.7473 29.1696 37.7473 31.9987L37.7462 37.7644ZM23.895 25.8185C22.8498 25.8185 22.0031 24.9709 22.0031 23.9248C22.0031 22.8787 22.8498 22.0311 23.895 22.0311C24.9401 22.0311 25.7868 22.8787 25.7868 23.9248C25.7868 24.9709 24.9401 25.8185 23.895 25.8185ZM25.5245 37.7644H22.2611V27.2553H25.5245V37.7644ZM39.3713 19.0012H20.623C19.7372 18.9915 19.0108 19.7023 19 20.5889V39.4323C19.0108 40.32 19.7372 41.0308 20.623 41.021H39.3713C40.2593 41.0319 40.9889 40.3211 41.0008 39.4323V20.5878C40.9878 19.699 40.2582 18.9882 39.3713 19.0001" fill="white"/>
</svg>
