<svg width="60" height="60" viewBox="0 0 60 60" fill="none" xmlns="http://www.w3.org/2000/svg">
<rect opacity="0.1" width="60" height="60" rx="30" fill="white"/>
<path d="M40.9578 24.1672L33.2413 31.8912C32.3809 32.7502 31.2153 33.2327 30 33.2327C28.7847 33.2327 27.6191 32.7502 26.7587 31.8912L19.0422 24.1672C19.0293 24.3122 19 24.4434 19 24.5875V35.5981C19.0015 36.8144 19.4848 37.9804 20.344 38.8405C21.2033 39.7005 22.3682 40.1843 23.5833 40.1858H36.4167C37.6318 40.1843 38.7967 39.7005 39.656 38.8405C40.5152 37.9804 40.9985 36.8144 41 35.5981V24.5875C41 24.4434 40.9707 24.3122 40.9578 24.1672Z" fill="white"/>
<path d="M31.9452 30.594L40.318 22.2122C39.9124 21.539 39.3403 20.9818 38.657 20.5943C37.9736 20.2068 37.2021 20.0021 36.4167 20H23.5833C22.798 20.0021 22.0264 20.2068 21.343 20.5943C20.6597 20.9818 20.0876 21.539 19.682 22.2122L28.0548 30.594C28.5714 31.1091 29.2709 31.3982 30 31.3982C30.7291 31.3982 31.4286 31.1091 31.9452 30.594Z" fill="white"/>
</svg>
