<svg width="60" height="60" viewBox="0 0 60 60" fill="none" xmlns="http://www.w3.org/2000/svg">
<rect opacity="0.1" width="60" height="60" rx="30" fill="white"/>
<path fill-rule="evenodd" clip-rule="evenodd" d="M37.1161 21.0995C35.1227 19.1018 32.4716 18.0012 29.6472 18C23.8274 18 19.0909 22.7409 19.0886 28.5679C19.0878 30.4306 19.5739 32.2489 20.4979 33.8517L19 39.3282L24.5973 37.8585C26.1396 38.7007 27.8759 39.1444 29.6429 39.145H29.6474C35.4666 39.145 40.2036 34.4037 40.2058 28.5764C40.207 25.7523 39.1097 23.0971 37.1161 21.0995ZM29.6472 37.3601H29.6436C28.0689 37.3594 26.5245 36.9358 25.1769 36.1356L24.8566 35.9452L21.5351 36.8173L22.4216 33.5758L22.2129 33.2435C21.3344 31.8448 20.8705 30.2283 20.8713 28.5685C20.8731 23.7253 24.8101 19.785 29.6507 19.785C31.9948 19.7857 34.1983 20.7006 35.8551 22.361C37.512 24.0214 38.4239 26.2285 38.4231 28.5757C38.4211 33.4193 34.4844 37.3601 29.6472 37.3601ZM34.461 30.781C34.1972 30.6488 32.9001 30.0101 32.6582 29.9219C32.4165 29.8337 32.2404 29.7899 32.0647 30.0541C31.8888 30.3184 31.3833 30.9133 31.2293 31.0894C31.0753 31.2657 30.9216 31.2878 30.6577 31.1556C30.3939 31.0234 29.5438 30.7445 28.536 29.8448C27.7518 29.1446 27.2224 28.2798 27.0684 28.0156C26.9147 27.751 27.0671 27.6219 27.1841 27.4766C27.4697 27.1216 27.7557 26.7494 27.8436 26.5733C27.9317 26.397 27.8876 26.2428 27.8215 26.1107C27.7557 25.9785 27.2281 24.6787 27.0083 24.1498C26.794 23.6351 26.5767 23.7046 26.4146 23.6965C26.2609 23.6888 26.085 23.6873 25.909 23.6873C25.7331 23.6873 25.4473 23.7533 25.2054 24.0178C24.9636 24.2822 24.2822 24.921 24.2822 26.2208C24.2822 27.5206 25.2275 28.7763 25.3594 28.9526C25.4912 29.1288 27.2198 31.7961 29.8662 32.9399C30.4957 33.2122 30.987 33.3746 31.3703 33.4963C32.0023 33.6973 32.5773 33.6689 33.0319 33.6009C33.5389 33.525 34.5927 32.962 34.8127 32.3452C35.0325 31.7284 35.0325 31.1997 34.9665 31.0894C34.9007 30.9793 34.7247 30.9133 34.461 30.781Z" fill="white"/>
</svg>
