<svg width="17" height="18" viewBox="0 0 17 18" fill="none" xmlns="http://www.w3.org/2000/svg">
<path fill-rule="evenodd" clip-rule="evenodd" d="M14.363 3.09852C12.7842 1.51642 10.6847 0.644723 8.44785 0.643799C3.83876 0.643799 0.0876074 4.39846 0.0857617 9.01322C0.0851289 10.4884 0.470116 11.9285 1.20191 13.1978L0.015625 17.535L4.4485 16.3711C5.66993 17.038 7.04506 17.3894 8.44445 17.3899H8.44798C13.0566 17.3899 16.8081 13.6349 16.8099 9.01992C16.8108 6.78337 15.9418 4.68054 14.363 3.09852ZM8.44785 15.9763H8.44495C7.19789 15.9758 5.97479 15.6403 4.90753 15.0066L4.65387 14.8557L2.02333 15.5465L2.72543 12.9793L2.56011 12.7161C1.86439 11.6084 1.49699 10.3282 1.49762 9.01372C1.49907 5.17804 4.61699 2.05744 8.45064 2.05744C10.307 2.05804 12.0521 2.7826 13.3643 4.09758C14.6765 5.41256 15.3987 7.16046 15.3981 9.01939C15.3964 12.8554 12.2787 15.9763 8.44785 15.9763ZM12.2602 10.7659C12.0513 10.6612 11.024 10.1554 10.8324 10.0855C10.641 10.0157 10.5016 9.98096 10.3624 10.1902C10.2231 10.3995 9.82274 10.8707 9.70079 11.0102C9.57884 11.1498 9.4571 11.1673 9.24812 11.0625C9.03916 10.9579 8.36595 10.737 7.56784 10.0245C6.94676 9.46992 6.52747 8.78506 6.40553 8.57579C6.28379 8.36629 6.40447 8.26401 6.49718 8.14894C6.72336 7.86781 6.94985 7.57306 7.01948 7.43357C7.0892 7.29396 7.05429 7.17181 7.00198 7.06716C6.94985 6.96252 6.53201 5.9331 6.35793 5.51423C6.18821 5.10659 6.01608 5.16162 5.88775 5.15526C5.76602 5.14917 5.62667 5.14792 5.48731 5.14792C5.34804 5.14792 5.12165 5.20018 4.9301 5.40969C4.73862 5.61908 4.19894 6.12498 4.19894 7.15439C4.19894 8.18381 4.94761 9.17825 5.05205 9.31784C5.15646 9.45746 6.52542 11.5699 8.62129 12.4757C9.11979 12.6914 9.50891 12.8199 9.81245 12.9163C10.313 13.0755 10.7684 13.053 11.1284 12.9992C11.5299 12.9391 12.3645 12.4932 12.5388 12.0047C12.7128 11.5162 12.7128 11.0975 12.6605 11.0102C12.6084 10.923 12.4691 10.8707 12.2602 10.7659Z" fill="white"/>
</svg>
