<svg width="50" height="50" viewBox="0 0 50 50" fill="none" xmlns="http://www.w3.org/2000/svg">
<rect width="50" height="50" rx="8" fill="#FF6B4A"/>
<path d="M13.8574 15.766L14.876 17.8735L17.1865 18.1882C17.6445 18.2498 17.8086 18.8178 17.4941 19.1188L15.8057 20.7405L16.2226 23.0396C16.3047 23.4912 15.8262 23.8333 15.4297 23.6144L13.3721 22.5059L11.3144 23.6144C10.918 23.8265 10.4189 23.498 10.5283 23.0054L10.9385 20.7337L9.24999 19.112C8.92187 18.7972 9.0996 18.2361 9.56445 18.1746L11.8682 17.8598L12.8867 15.7523C13.0781 15.3486 13.666 15.3554 13.8574 15.766ZM14.0215 18.6125L13.3721 17.2577L12.7158 18.6125C12.6406 18.7699 12.4834 18.893 12.2988 18.9204L10.8154 19.1188L11.9023 20.1589C12.0254 20.2821 12.0937 20.46 12.0596 20.6447L11.793 22.1227L13.1055 21.4179C13.2627 21.3358 13.4609 21.3221 13.625 21.4179L14.9443 22.1295L14.6846 20.6789C14.6435 20.501 14.6914 20.3026 14.835 20.1589L15.9219 19.1188L14.4521 18.9204C14.2744 18.8999 14.1035 18.7835 14.0215 18.6125ZM25.4922 10.8052L26.5107 12.9127L28.8281 13.2274C29.2861 13.289 29.4502 13.8569 29.1357 14.1649L27.4473 15.7865L27.8643 18.0856C27.9463 18.5372 27.4678 18.8793 27.0713 18.6604L25 17.5519L22.9424 18.6604C22.5459 18.8725 22.0469 18.5441 22.1562 18.0514L22.5664 15.7797L20.8711 14.158C20.543 13.8433 20.7207 13.2822 21.1855 13.2206L23.4893 12.9058L24.5078 10.8052C24.7129 10.3878 25.2939 10.3946 25.4922 10.8052ZM25.6562 13.6517L25 12.2968L24.3506 13.6517C24.2754 13.809 24.1182 13.9322 23.9336 13.9596L22.4434 14.158L23.5303 15.1981C23.6601 15.3212 23.7217 15.4991 23.6875 15.6839L23.4209 17.1619L24.7402 16.4571C24.8975 16.375 25.0889 16.3613 25.2598 16.4571L26.5791 17.1687L26.3193 15.7181C26.2783 15.5402 26.3262 15.3418 26.4697 15.1981L27.5566 14.158L26.0869 13.9527C25.9023 13.939 25.7383 13.8227 25.6562 13.6517ZM37.1201 15.766L38.1387 17.8735L40.4492 18.1882C40.9072 18.2498 41.0781 18.8178 40.7568 19.1188L39.0684 20.7405L39.4853 23.0396C39.5674 23.4912 39.0889 23.8333 38.6924 23.6144L36.6348 22.5059L34.5771 23.6144C34.1807 23.8265 33.6816 23.498 33.7842 23.0054L34.1943 20.7337L32.5059 19.112C32.1777 18.7972 32.3555 18.2361 32.8203 18.1746L35.124 17.8598L36.1426 15.7523C36.3408 15.3486 36.9287 15.3554 37.1201 15.766ZM37.2842 18.6125L36.6348 17.2577L35.9785 18.6125C35.9033 18.7699 35.7529 18.893 35.5615 18.9204L34.0781 19.1188L35.1582 20.1589C35.2812 20.2821 35.3496 20.46 35.3154 20.6447L35.0488 22.1227L36.3682 21.4179C36.5254 21.3358 36.7236 21.3221 36.8877 21.4179L38.2139 22.1295L37.9541 20.6789C37.9131 20.501 37.9609 20.3026 38.1045 20.1589L39.1846 19.1188L37.7148 18.9204C37.5371 18.8999 37.3662 18.7835 37.2842 18.6125ZM22.4639 29.7384C22.3135 29.4784 22.4023 29.1431 22.6621 28.9926C22.9219 28.842 23.2568 28.931 23.4072 29.191L24.125 30.4364L26.6748 27.8841C26.8867 27.672 27.2353 27.672 27.4473 27.8841C27.6592 28.0962 27.6592 28.4452 27.4473 28.6573L24.3916 31.7159C24.1387 31.9691 23.7148 31.9143 23.5371 31.6064L22.4639 29.7384ZM25 23.9565C27.9736 23.9565 30.3867 26.3719 30.3867 29.3484C30.3867 32.3249 27.9736 34.7403 25 34.7403C22.0264 34.7403 19.6133 32.3249 19.6133 29.3484C19.6133 26.3719 22.0264 23.9565 25 23.9565ZM28.0352 26.3103C26.3603 24.6339 23.6396 24.6339 21.9648 26.3103C20.29 27.9867 20.29 30.7101 21.9648 32.3865C23.6396 34.0629 26.3603 34.0629 28.0352 32.3865C29.71 30.7032 29.71 27.9867 28.0352 26.3103ZM25 20.5694C29.8398 20.5694 33.7637 24.4971 33.7637 29.3416C33.7637 31.1753 33.2031 32.8791 32.2393 34.2887L34.8574 38.8253C35.1103 39.2495 34.7617 39.7285 34.3105 39.6601L31.6309 39.2358L30.1953 41.0012C29.9424 41.3296 29.4707 41.2749 29.2861 40.9465L27.4541 37.7715C25.8545 38.2368 24.1387 38.2368 22.5459 37.7715L20.7139 40.9465C20.5293 41.2749 20.0576 41.3296 19.8047 41.0012L18.3691 39.2358L15.6894 39.6601C15.2314 39.7353 14.9101 39.2358 15.1289 38.8458L17.7607 34.2887C15.3818 30.8059 15.8262 26.1187 18.8066 23.1354C20.3857 21.5548 22.5801 20.5694 25 20.5694ZM31.5146 35.2124C30.6807 36.143 29.6553 36.8888 28.4932 37.3952L29.833 39.7148L30.9814 38.3053C31.1113 38.141 31.3096 38.0794 31.501 38.1137L33.3467 38.4079L31.5146 35.2124ZM21.5 37.3952C20.3447 36.8888 19.3193 36.143 18.4853 35.2193L16.6465 38.4079L18.4922 38.1137C18.6768 38.0794 18.8818 38.1479 19.0117 38.3053L20.1601 39.7148L21.5 37.3952ZM30.4277 23.9154C27.4336 20.9184 22.5732 20.9184 19.5791 23.9154C16.585 26.9125 16.585 31.7775 19.5791 34.7745C22.5801 37.7715 27.4336 37.7715 30.4277 34.7745C33.4219 31.7775 33.4219 26.9125 30.4277 23.9154Z" fill="white" fill-opacity="0.95"/>
</svg>
