<svg width="50" height="50" viewBox="0 0 50 50" fill="none" xmlns="http://www.w3.org/2000/svg">
<rect width="50" height="50" rx="8" fill="#3D2582"/>
<path d="M20.2451 21.6334C20.2901 21.6786 20.3435 21.7145 20.4024 21.739C20.4613 21.7635 20.5244 21.7761 20.5881 21.7761C20.6518 21.7761 20.7149 21.7635 20.7738 21.739C20.8326 21.7145 20.8861 21.6786 20.931 21.6334L22.5435 20.0194C22.6343 19.9283 22.6853 19.8049 22.6852 19.6763C22.685 19.5476 22.6339 19.4243 22.5429 19.3334C22.452 19.2425 22.3287 19.1915 22.2002 19.1917C22.0716 19.1918 21.9484 19.243 21.8576 19.334L20.5887 20.6066L20.1242 20.1404C20.0334 20.0494 19.9102 19.9982 19.7817 19.9981C19.6531 19.998 19.5299 20.0489 19.4389 20.1398C19.3479 20.2307 19.2968 20.354 19.2967 20.4827C19.2966 20.6113 19.3475 20.7347 19.4383 20.8258L20.2451 21.6334ZM24.6205 20.9674H30.2165C30.3448 20.9674 30.4679 20.9164 30.5587 20.8256C30.6494 20.7348 30.7004 20.6116 30.7004 20.4831C30.7004 20.3547 30.6494 20.2315 30.5587 20.1406C30.4679 20.0498 30.3448 19.9988 30.2165 19.9988H24.6205C24.4922 19.9988 24.3691 20.0498 24.2784 20.1406C24.1877 20.2315 24.1367 20.3547 24.1367 20.4831C24.1367 20.6116 24.1877 20.7348 24.2784 20.8256C24.3691 20.9164 24.4922 20.9674 24.6205 20.9674ZM20.2451 25.2659C20.2901 25.3111 20.3435 25.347 20.4024 25.3715C20.4613 25.396 20.5244 25.4086 20.5881 25.4086C20.6518 25.4086 20.7149 25.396 20.7738 25.3715C20.8326 25.347 20.8861 25.3111 20.931 25.2659L22.5435 23.6519C22.6343 23.5608 22.6853 23.4374 22.6852 23.3088C22.685 23.1801 22.6339 23.0568 22.5429 22.9659C22.452 22.8751 22.3287 22.8241 22.2002 22.8242C22.0716 22.8243 21.9484 22.8755 21.8576 22.9665L20.5887 24.2391L20.1242 23.773C20.0334 23.6819 19.9102 23.6307 19.7817 23.6306C19.6531 23.6305 19.5299 23.6815 19.4389 23.7724C19.3479 23.8632 19.2968 23.9866 19.2967 24.1152C19.2966 24.2438 19.3475 24.3673 19.4383 24.4583L20.2451 25.2659ZM24.6205 24.6H30.2165C30.3448 24.6 30.4679 24.5489 30.5587 24.4581C30.6494 24.3673 30.7004 24.2441 30.7004 24.1156C30.7004 23.9872 30.6494 23.864 30.5587 23.7731C30.4679 23.6823 30.3448 23.6313 30.2165 23.6313H24.6205C24.4922 23.6313 24.3691 23.6823 24.2784 23.7731C24.1877 23.864 24.1367 23.9872 24.1367 24.1156C24.1367 24.2441 24.1877 24.3673 24.2784 24.4581C24.3691 24.5489 24.4922 24.6 24.6205 24.6ZM20.2451 28.8984C20.2901 28.9437 20.3435 28.9795 20.4024 29.004C20.4613 29.0285 20.5244 29.0411 20.5881 29.0411C20.6518 29.0411 20.7149 29.0285 20.7738 29.004C20.8326 28.9795 20.8861 28.9437 20.931 28.8984L22.5435 27.2844C22.6343 27.1934 22.6853 27.0699 22.6852 26.9413C22.685 26.8127 22.6339 26.6893 22.5429 26.5985C22.452 26.5076 22.3287 26.4566 22.2002 26.4567C22.0716 26.4568 21.9484 26.508 21.8576 26.5991L20.5887 27.8717L20.1242 27.4055C20.0334 27.3144 19.9102 27.2632 19.7817 27.2631C19.6531 27.263 19.5299 27.314 19.4389 27.4049C19.3479 27.4958 19.2968 27.6191 19.2967 27.7477C19.2966 27.8764 19.3475 27.9998 19.4383 28.0908L20.2451 28.8984ZM24.6205 28.2325H30.2165C30.3448 28.2325 30.4679 28.1815 30.5587 28.0906C30.6494 27.9998 30.7004 27.8766 30.7004 27.7481C30.7004 27.6197 30.6494 27.4965 30.5587 27.4057C30.4679 27.3148 30.3448 27.2638 30.2165 27.2638H24.6205C24.4922 27.2638 24.3691 27.3148 24.2784 27.4057C24.1877 27.4965 24.1367 27.6197 24.1367 27.7481C24.1367 27.8766 24.1877 27.9998 24.2784 28.0906C24.3691 28.1815 24.4922 28.2325 24.6205 28.2325Z" fill="white" fill-opacity="0.95"/>
<path d="M39.5135 36.5458H38.7878V21.6235C38.7868 21.0859 38.573 20.5707 38.1933 20.1905C37.8136 19.8104 37.2988 19.5965 36.7617 19.5955H33.9495V16.4476C33.9495 16.384 33.9371 16.321 33.9128 16.2622C33.8885 16.2034 33.8529 16.15 33.808 16.105L28.9697 11.262C28.9247 11.2171 28.8714 11.1814 28.8126 11.1571C28.7539 11.1328 28.6909 11.1203 28.6274 11.1204H17.578C17.1724 11.121 16.7835 11.2826 16.4967 11.5697C16.2099 11.8567 16.0485 12.2459 16.0479 12.6519V19.5955H13.2356C12.6986 19.5965 12.1838 19.8104 11.8041 20.1905C11.4243 20.5707 11.2105 21.0859 11.2096 21.6235V36.5458H10.4838C10.3555 36.5458 10.2325 36.5968 10.1417 36.6876C10.051 36.7784 10 36.9016 10 37.0301V38.7348C10.0246 39.397 10.3102 40.0226 10.7944 40.4745C11.2786 40.9265 11.9219 41.1681 12.5837 41.1466H37.4137C38.0754 41.1681 38.7187 40.9265 39.2029 40.4745C39.6871 40.0226 39.9727 39.397 39.9973 38.7348V37.0301C39.9973 36.9016 39.9464 36.7784 39.8556 36.6876C39.7649 36.5968 39.6418 36.5458 39.5135 36.5458ZM36.7617 20.5641C37.0422 20.5647 37.3111 20.6765 37.5094 20.8751C37.7078 21.0736 37.8195 21.3427 37.8201 21.6235V36.5458H36.7315V22.138C36.7315 22.0096 36.6805 21.8864 36.5898 21.7956C36.4991 21.7048 36.376 21.6537 36.2477 21.6537H33.9495V20.5641H36.7617ZM28.2948 36.5458C28.2076 36.5457 28.122 36.5691 28.0471 36.6136C27.9721 36.6582 27.9106 36.7222 27.869 36.7988L27.3465 37.7565H22.6473L22.1247 36.7988C22.0831 36.7222 22.0216 36.6582 21.9466 36.6136C21.8717 36.5691 21.7861 36.5457 21.699 36.5458H14.2335V22.6223H16.0479V32.1871C16.0485 32.5932 16.2099 32.9826 16.4967 33.2698C16.7834 33.5571 17.1722 33.719 17.578 33.7199H32.4194C32.8251 33.719 33.2139 33.5571 33.5007 33.2698C33.7875 32.9826 33.9489 32.5932 33.9495 32.1871V22.6223H35.7638V36.5458H28.2948ZM29.1112 12.7754L32.296 15.9633H29.1112V12.7754ZM17.0155 12.6544C17.0152 12.5802 17.0295 12.5068 17.0576 12.4382C17.0858 12.3696 17.1271 12.3072 17.1794 12.2547C17.2317 12.2022 17.2938 12.1605 17.3622 12.132C17.4306 12.1036 17.5039 12.0889 17.578 12.0889H28.1436V16.4476C28.1436 16.576 28.1945 16.6992 28.2853 16.79C28.376 16.8809 28.4991 16.9319 28.6274 16.9319H32.9818V32.1871C32.9818 32.3364 32.9226 32.4796 32.8171 32.5852C32.7116 32.6908 32.5686 32.7501 32.4194 32.7501H17.578C17.4288 32.7501 17.2857 32.6908 17.1803 32.5852C17.0748 32.4796 17.0155 32.3364 17.0155 32.1871V12.6544ZM12.1772 21.6259C12.1772 21.3447 12.2887 21.075 12.4871 20.8759C12.6855 20.6769 12.9547 20.5647 13.2356 20.5641H16.0479V21.6537H13.7497C13.6861 21.6537 13.6232 21.6663 13.5645 21.6906C13.5058 21.7149 13.4525 21.7506 13.4076 21.7956C13.3626 21.8406 13.327 21.894 13.3027 21.9527C13.2784 22.0115 13.2659 22.0744 13.2659 22.138V36.5458H12.1772V21.6259ZM39.0297 38.7348C39.0047 39.14 38.821 39.5189 38.5183 39.7892C38.2157 40.0594 37.8187 40.1992 37.4137 40.178H12.5837C12.1786 40.1992 11.7816 40.0594 11.479 39.7892C11.1764 39.5189 10.9926 39.14 10.9677 38.7348V37.5144H21.4123L21.9348 38.472C21.9764 38.5485 22.0377 38.6124 22.1124 38.6569C22.1871 38.7014 22.2724 38.725 22.3594 38.7251H27.638C27.7249 38.725 27.8102 38.7014 27.8849 38.6569C27.9597 38.6124 28.021 38.5485 28.0625 38.472L28.5851 37.5144H39.0297V38.7348Z" fill="white" fill-opacity="0.95"/>
</svg>
