<svg width="96" height="96" viewBox="0 0 96 96" fill="none" xmlns="http://www.w3.org/2000/svg">
<rect opacity="0.15" width="96" height="96" rx="10" fill="white"/>
<path d="M24.722 42.5033H22.8893C22.3814 42.5033 21.9697 42.9149 21.9697 43.4229C21.9697 43.9308 22.3814 44.3424 22.8893 44.3424H24.7221C24.8428 44.3424 24.9624 44.3186 25.074 44.2724C25.1856 44.2262 25.2869 44.1585 25.3723 44.0731C25.4577 43.9877 25.5254 43.8863 25.5716 43.7747C25.6178 43.6631 25.6416 43.5436 25.6416 43.4228C25.6416 43.302 25.6178 43.1825 25.5716 43.0709C25.5254 42.9593 25.4576 42.858 25.3722 42.7726C25.2868 42.6872 25.1854 42.6195 25.0739 42.5733C24.9623 42.5271 24.8427 42.5033 24.722 42.5033ZM24.722 38.0895H22.8893C22.7685 38.0894 22.649 38.1132 22.5374 38.1594C22.4258 38.2056 22.3244 38.2734 22.239 38.3588C22.1536 38.4442 22.0859 38.5455 22.0397 38.6571C21.9935 38.7687 21.9697 38.8883 21.9697 39.009C21.9697 39.1298 21.9935 39.2494 22.0397 39.361C22.0859 39.4725 22.1536 39.5739 22.239 39.6593C22.3244 39.7447 22.4258 39.8124 22.5374 39.8587C22.649 39.9049 22.7685 39.9286 22.8893 39.9286H24.7221C24.8428 39.9286 24.9624 39.9048 25.074 39.8586C25.1856 39.8124 25.2869 39.7446 25.3723 39.6592C25.4577 39.5738 25.5254 39.4725 25.5716 39.3609C25.6178 39.2493 25.6416 39.1297 25.6416 39.009C25.6416 38.8882 25.6178 38.7686 25.5716 38.6571C25.5254 38.5455 25.4576 38.4441 25.3722 38.3588C25.2868 38.2734 25.1854 38.2056 25.0739 38.1594C24.9623 38.1132 24.8427 38.0895 24.722 38.0895ZM24.722 46.9171H22.8893C22.7685 46.9171 22.649 46.9409 22.5374 46.9871C22.4258 47.0333 22.3244 47.101 22.239 47.1864C22.1536 47.2718 22.0859 47.3732 22.0397 47.4848C21.9935 47.5963 21.9697 47.7159 21.9697 47.8367C21.9697 47.9574 21.9935 48.077 22.0397 48.1886C22.0859 48.3002 22.1536 48.4016 22.239 48.487C22.3244 48.5723 22.4258 48.6401 22.5374 48.6863C22.649 48.7325 22.7685 48.7563 22.8893 48.7563H24.7221C24.8428 48.7563 24.9624 48.7325 25.074 48.6863C25.1856 48.6401 25.287 48.5723 25.3724 48.487C25.4578 48.4016 25.5255 48.3002 25.5717 48.1886C25.6179 48.077 25.6417 47.9574 25.6417 47.8367C25.6416 47.5928 25.5447 47.3589 25.3722 47.1864C25.1998 47.014 24.9659 46.9171 24.722 46.9171ZM24.722 51.3309H22.8893C22.6454 51.3309 22.4115 51.4278 22.2391 51.6003C22.0666 51.7727 21.9697 52.0066 21.9697 52.2505C21.9697 52.4944 22.0666 52.7283 22.2391 52.9007C22.4115 53.0732 22.6454 53.1701 22.8893 53.1701H24.7221C24.8428 53.1701 24.9624 53.1463 25.074 53.1001C25.1856 53.0539 25.287 52.9862 25.3724 52.9008C25.4578 52.8154 25.5255 52.714 25.5717 52.6024C25.6179 52.4909 25.6417 52.3713 25.6417 52.2505C25.6416 52.0066 25.5447 51.7727 25.3722 51.6003C25.1998 51.4278 24.9659 51.3309 24.722 51.3309ZM24.722 55.7449H22.8893C22.6454 55.7449 22.4115 55.8417 22.2391 56.0142C22.0666 56.1867 21.9697 56.4206 21.9697 56.6644C21.9697 56.9083 22.0666 57.1422 22.2391 57.3147C22.4115 57.4871 22.6454 57.584 22.8893 57.584H24.7221C24.9634 57.5801 25.1934 57.4814 25.3627 57.3094C25.5319 57.1374 25.6267 56.9057 25.6267 56.6644C25.6267 56.4231 25.5318 56.1914 25.3626 56.0194C25.1933 55.8474 24.9632 55.7488 24.722 55.7449ZM24.722 60.1587H22.8893C22.7685 60.1587 22.649 60.1825 22.5374 60.2287C22.4258 60.2749 22.3245 60.3426 22.2391 60.428C22.1537 60.5134 22.0859 60.6148 22.0397 60.7264C21.9935 60.8379 21.9697 60.9575 21.9697 61.0783C21.9697 61.199 21.9935 61.3186 22.0397 61.4302C22.0859 61.5417 22.1537 61.6431 22.2391 61.7285C22.3245 61.8139 22.4258 61.8816 22.5374 61.9278C22.649 61.974 22.7685 61.9978 22.8893 61.9978H24.7221C24.8428 61.9979 24.9624 61.9741 25.074 61.9279C25.1856 61.8817 25.287 61.8139 25.3724 61.7285C25.4578 61.6431 25.5255 61.5418 25.5717 61.4302C25.6179 61.3186 25.6417 61.199 25.6417 61.0783C25.6416 60.8344 25.5447 60.6005 25.3722 60.428C25.1998 60.2556 24.9659 60.1587 24.722 60.1587ZM24.722 64.5725H22.8893C22.6454 64.5725 22.4115 64.6694 22.2391 64.8418C22.0666 65.0143 21.9697 65.2482 21.9697 65.4921C21.9697 65.736 22.0666 65.9699 22.2391 66.1423C22.4115 66.3148 22.6454 66.4117 22.8893 66.4117H24.7221C24.8428 66.4117 24.9624 66.3879 25.074 66.3417C25.1856 66.2955 25.287 66.2277 25.3724 66.1423C25.4578 66.057 25.5255 65.9556 25.5717 65.844C25.6179 65.7324 25.6417 65.6128 25.6417 65.4921C25.6416 65.2482 25.5447 65.0143 25.3722 64.8418C25.1998 64.6694 24.9659 64.5725 24.722 64.5725ZM41.6487 62.9836L40.0295 61.3645L41.6487 59.7455C41.8211 59.5729 41.9179 59.339 41.9179 59.0951C41.9179 58.8512 41.821 58.6173 41.6486 58.4448C41.4761 58.2724 41.2422 58.1756 40.9984 58.1756C40.7545 58.1756 40.5206 58.2724 40.3481 58.4448L38.0789 60.7141C37.9064 60.8865 37.8096 61.1204 37.8096 61.3643C37.8096 61.6082 37.9064 61.8421 38.0789 62.0146L40.3481 64.2839C40.5278 64.4634 40.7632 64.5531 40.9985 64.5531C41.2338 64.5531 41.4692 64.4634 41.6488 64.2839C41.8212 64.1114 41.9181 63.8776 41.918 63.6337C41.918 63.3899 41.8211 63.156 41.6487 62.9836ZM51.5011 60.7138L49.2317 58.4448C49.0582 58.2773 48.8259 58.1847 48.5848 58.1869C48.3437 58.189 48.1131 58.2857 47.9427 58.4562C47.7722 58.6267 47.6755 58.8573 47.6733 59.0984C47.6712 59.3395 47.7638 59.5717 47.9312 59.7452L49.5504 61.3643L47.9312 62.9833C47.762 63.1565 47.6678 63.3894 47.6692 63.6315C47.6706 63.8736 47.7674 64.1054 47.9386 64.2766C48.1098 64.4478 48.3417 64.5446 48.5838 64.5459C48.8259 64.5473 49.0588 64.4531 49.2319 64.2838L51.5012 62.0145C51.6736 61.842 51.7704 61.608 51.7704 61.3641C51.7703 61.1202 51.6735 60.8863 51.5011 60.7138ZM46.2794 57.2016C46.0503 57.1181 45.7973 57.1292 45.5763 57.2322C45.3553 57.3353 45.1842 57.5219 45.1008 57.751L42.552 64.7536C42.5089 64.8675 42.4889 64.9888 42.493 65.1104C42.4972 65.2321 42.5255 65.3517 42.5762 65.4624C42.627 65.5731 42.6992 65.6725 42.7887 65.7551C42.8782 65.8376 42.9832 65.9015 43.0976 65.9432C43.212 65.9848 43.3335 66.0033 43.4551 65.9976C43.5767 65.9919 43.696 65.9621 43.806 65.91C43.916 65.8578 44.0146 65.7843 44.0959 65.6938C44.1773 65.6032 44.2399 65.4974 44.2801 65.3825L46.8289 58.3799C46.8702 58.2665 46.8888 58.146 46.8835 58.0254C46.8782 57.9048 46.8493 57.7864 46.7983 57.6769C46.7472 57.5675 46.6751 57.4692 46.5861 57.3876C46.4971 57.3061 46.3929 57.2428 46.2794 57.2016ZM23.7901 26.5522C23.7784 26.4936 23.7611 26.4361 23.7387 26.3807C23.6924 26.2694 23.625 26.1681 23.5401 26.0825C23.3671 25.9104 23.1331 25.8135 22.8891 25.8129C22.6474 25.8129 22.4097 25.911 22.2391 26.0825C22.1962 26.1243 22.1582 26.1709 22.1239 26.2225C22.0907 26.2714 22.0626 26.3254 22.0404 26.3807C22.0172 26.4358 21.9988 26.4946 21.9877 26.5522C21.9755 26.6123 21.9695 26.6726 21.9695 26.7326C21.9695 26.9742 22.0675 27.2119 22.2391 27.3825C22.4117 27.5546 22.6453 27.6516 22.8891 27.6522C22.9496 27.6521 23.01 27.6459 23.0693 27.6338C23.128 27.6228 23.1857 27.6044 23.2409 27.5811C23.3528 27.5353 23.4545 27.4679 23.5403 27.3826C23.7116 27.2096 23.8081 26.9762 23.8088 26.7327C23.8084 26.6721 23.8022 26.6117 23.7901 26.5522ZM26.6567 26.0827C26.4837 25.9105 26.2497 25.8136 26.0056 25.8131C25.764 25.8131 25.5274 25.9111 25.3556 26.0827C25.1835 26.2552 25.0866 26.4889 25.086 26.7326C25.086 26.9742 25.1841 27.2119 25.3556 27.3825C25.5283 27.5544 25.7619 27.6514 26.0056 27.6522C26.2483 27.6522 26.4849 27.554 26.6567 27.3825C26.8284 27.2096 26.9253 26.9762 26.9264 26.7326C26.9252 26.489 26.8284 26.2556 26.6567 26.0827ZM30.0246 26.5522C30.0006 26.4345 29.954 26.3225 29.8875 26.2225C29.8544 26.171 29.8165 26.1244 29.7735 26.0825C29.7306 26.0398 29.6838 26.0013 29.6337 25.9673C29.5834 25.9341 29.5307 25.9061 29.4755 25.8828C29.4191 25.8607 29.3614 25.8423 29.3026 25.8301C29.1839 25.8068 29.0619 25.8068 28.9433 25.8301C28.8844 25.8423 28.8268 25.8607 28.7716 25.8828C28.7152 25.9061 28.6625 25.9342 28.6121 25.9673C28.5619 26.0016 28.5153 26.0396 28.4722 26.0825C28.4294 26.125 28.3912 26.1719 28.3582 26.2225C28.3251 26.2714 28.297 26.3254 28.2738 26.3807C28.2505 26.4358 28.2334 26.4946 28.221 26.5522C28.21 26.6123 28.2038 26.6726 28.2038 26.7326C28.2038 26.9742 28.3019 27.2119 28.4722 27.3825C28.5152 27.4254 28.5617 27.4634 28.6121 27.4964C28.6624 27.5297 28.7151 27.5589 28.7716 27.581C28.8267 27.6042 28.8843 27.6227 28.9433 27.6337C29.0618 27.6582 29.184 27.6582 29.3026 27.6337C29.3613 27.6227 29.4191 27.6043 29.4755 27.581C29.5306 27.5588 29.5833 27.5295 29.6337 27.4964C29.684 27.4634 29.7305 27.4254 29.7735 27.3825C29.9457 27.21 30.0426 26.9764 30.0432 26.7326C30.043 26.672 30.0367 26.6116 30.0246 26.5522ZM54.8782 25.8129H32.9521C32.8313 25.8129 32.7117 25.8367 32.6001 25.8829C32.4886 25.9291 32.3872 25.9968 32.3018 26.0822C32.2164 26.1676 32.1487 26.269 32.1025 26.3806C32.0563 26.4922 32.0325 26.6117 32.0325 26.7325C32.0325 26.8533 32.0563 26.9729 32.1025 27.0844C32.1487 27.196 32.2164 27.2974 32.3018 27.3828C32.3872 27.4682 32.4886 27.5359 32.6001 27.5821C32.7117 27.6283 32.8313 27.6521 32.9521 27.6521H54.8782C55.1194 27.6481 55.3495 27.5495 55.5188 27.3775C55.688 27.2055 55.7828 26.9738 55.7828 26.7325C55.7828 26.4912 55.688 26.2595 55.5188 26.0875C55.3495 25.9155 55.1194 25.8169 54.8782 25.8129ZM61.8717 25.8129H58.1117C57.991 25.8129 57.8714 25.8367 57.7598 25.8829C57.6482 25.9291 57.5469 25.9968 57.4615 26.0822C57.3761 26.1676 57.3083 26.269 57.2621 26.3806C57.2159 26.4922 57.1922 26.6117 57.1922 26.7325C57.1922 26.8533 57.2159 26.9729 57.2621 27.0844C57.3083 27.196 57.3761 27.2974 57.4615 27.3828C57.5469 27.4682 57.6482 27.5359 57.7598 27.5821C57.8714 27.6283 57.991 27.6521 58.1117 27.6521H61.8717C62.1156 27.6521 62.3494 27.5552 62.5219 27.3827C62.6944 27.2103 62.7912 26.9764 62.7912 26.7325C62.7912 26.4886 62.6944 26.2547 62.5219 26.0823C62.3494 25.9098 62.1156 25.8129 61.8717 25.8129ZM69.3892 44.832H57.3251C57.2044 44.832 57.0848 44.8558 56.9732 44.902C56.8616 44.9482 56.7602 45.0159 56.6749 45.1013C56.5895 45.1867 56.5217 45.2881 56.4755 45.3997C56.4293 45.5112 56.4055 45.6308 56.4056 45.7516C56.4055 45.8723 56.4293 45.9919 56.4755 46.1035C56.5217 46.2151 56.5895 46.3165 56.6749 46.4019C56.7602 46.4872 56.8616 46.555 56.9732 46.6012C57.0848 46.6474 57.2044 46.6712 57.3251 46.6712H69.3892C69.5099 46.6712 69.6295 46.6474 69.7411 46.6012C69.8527 46.555 69.9541 46.4872 70.0395 46.4019C70.1248 46.3165 70.1926 46.2151 70.2388 46.1035C70.285 45.9919 70.3088 45.8723 70.3088 45.7516C70.3088 45.6308 70.285 45.5112 70.2388 45.3997C70.1926 45.2881 70.1248 45.1867 70.0395 45.1013C69.9541 45.0159 69.8527 44.9482 69.7411 44.902C69.6295 44.8558 69.5099 44.832 69.3892 44.832ZM64.2458 40.4181H60.7516C60.6308 40.418 60.5113 40.4418 60.3997 40.488C60.2881 40.5342 60.1867 40.602 60.1013 40.6874C60.0159 40.7728 59.9482 40.8741 59.902 40.9857C59.8558 41.0973 59.832 41.2169 59.832 41.3376C59.832 41.4584 59.8558 41.578 59.902 41.6896C59.9482 41.8011 60.0159 41.9025 60.1013 41.9879C60.1867 42.0733 60.2881 42.141 60.3997 42.1873C60.5113 42.2335 60.6308 42.2572 60.7516 42.2572H64.2458C64.3666 42.2572 64.4862 42.2335 64.5978 42.1873C64.7094 42.141 64.8107 42.0733 64.8961 41.9879C64.9815 41.9025 65.0492 41.8011 65.0955 41.6896C65.1417 41.578 65.1654 41.4584 65.1654 41.3376C65.1654 41.2169 65.1417 41.0973 65.0955 40.9857C65.0492 40.8741 64.9815 40.7728 64.8961 40.6874C64.8107 40.602 64.7094 40.5342 64.5978 40.488C64.4862 40.4418 64.3666 40.418 64.2458 40.4181ZM73.458 40.4181H67.7709C67.6501 40.418 67.5305 40.4418 67.4189 40.488C67.3073 40.5342 67.206 40.602 67.1206 40.6874C67.0352 40.7728 66.9674 40.8741 66.9212 40.9857C66.875 41.0973 66.8513 41.2169 66.8513 41.3376C66.8513 41.4584 66.875 41.578 66.9212 41.6896C66.9674 41.8011 67.0352 41.9025 67.1206 41.9879C67.206 42.0733 67.3073 42.141 67.4189 42.1873C67.5305 42.2335 67.6501 42.2572 67.7709 42.2572H73.458C73.7019 42.2572 73.9358 42.1603 74.1083 41.9879C74.2807 41.8154 74.3776 41.5815 74.3776 41.3376C74.3776 41.0938 74.2807 40.8599 74.1083 40.6874C73.9358 40.5149 73.7019 40.4181 73.458 40.4181ZM56.7976 40.4181H45.1806C45.0598 40.418 44.9402 40.4418 44.8286 40.488C44.7171 40.5342 44.6157 40.602 44.5303 40.6874C44.4449 40.7728 44.3772 40.8741 44.331 40.9857C44.2848 41.0973 44.261 41.2169 44.261 41.3376C44.261 41.4584 44.2848 41.578 44.331 41.6896C44.3772 41.8011 44.4449 41.9025 44.5303 41.9879C44.6157 42.0733 44.7171 42.141 44.8286 42.1873C44.9402 42.2335 45.0598 42.2572 45.1806 42.2572H56.7976C57.0415 42.2572 57.2754 42.1603 57.4478 41.9879C57.6203 41.8154 57.7171 41.5815 57.7171 41.3376C57.7171 41.0938 57.6203 40.8599 57.4478 40.6874C57.2754 40.5149 57.0415 40.4181 56.7976 40.4181ZM53.9151 44.832H50.4208C50.3001 44.832 50.1805 44.8558 50.0689 44.902C49.9573 44.9482 49.8559 45.0159 49.7706 45.1013C49.6852 45.1867 49.6174 45.2881 49.5712 45.3997C49.525 45.5112 49.5012 45.6308 49.5013 45.7516C49.5012 45.8723 49.525 45.9919 49.5712 46.1035C49.6174 46.2151 49.6852 46.3165 49.7706 46.4019C49.8559 46.4872 49.9573 46.555 50.0689 46.6012C50.1805 46.6474 50.3001 46.6712 50.4208 46.6712H53.9151C54.0358 46.6712 54.1554 46.6474 54.267 46.6012C54.3786 46.555 54.48 46.4872 54.5653 46.4019C54.6507 46.3165 54.7185 46.2151 54.7647 46.1035C54.8109 45.9919 54.8347 45.8723 54.8346 45.7516C54.8347 45.6308 54.8109 45.5112 54.7647 45.3997C54.7185 45.2881 54.6507 45.1867 54.5653 45.1013C54.48 45.0159 54.3786 44.9482 54.267 44.902C54.1554 44.8558 54.0358 44.832 53.9151 44.832ZM46.846 44.832H45.0132C44.8924 44.832 44.7728 44.8558 44.6612 44.902C44.5497 44.9482 44.4483 45.0159 44.3629 45.1013C44.2775 45.1867 44.2098 45.2881 44.1636 45.3997C44.1174 45.5112 44.0936 45.6308 44.0936 45.7516C44.0936 45.8723 44.1174 45.9919 44.1636 46.1035C44.2098 46.2151 44.2775 46.3165 44.3629 46.4019C44.4483 46.4872 44.5497 46.555 44.6612 46.6012C44.7728 46.6474 44.8924 46.6712 45.0132 46.6712H46.846C46.9667 46.6712 47.0863 46.6474 47.1979 46.6012C47.3095 46.555 47.4108 46.4872 47.4962 46.4019C47.5816 46.3165 47.6494 46.2151 47.6956 46.1035C47.7418 45.9919 47.7655 45.8723 47.7655 45.7516C47.7656 45.6308 47.7418 45.5112 47.6956 45.3996C47.6494 45.2881 47.5817 45.1867 47.4963 45.1013C47.4109 45.0159 47.3095 44.9481 47.1979 44.9019C47.0863 44.8557 46.9667 44.832 46.846 44.832ZM40.4392 44.832H38.6064C38.4856 44.832 38.3661 44.8558 38.2545 44.902C38.1429 44.9482 38.0415 45.0159 37.9561 45.1013C37.8707 45.1867 37.803 45.2881 37.7568 45.3997C37.7106 45.5112 37.6868 45.6308 37.6868 45.7516C37.6868 45.8723 37.7106 45.9919 37.7568 46.1035C37.803 46.2151 37.8707 46.3165 37.9561 46.4019C38.0415 46.4872 38.1429 46.555 38.2545 46.6012C38.3661 46.6474 38.4856 46.6712 38.6064 46.6712H40.4392C40.56 46.6712 40.6795 46.6474 40.7911 46.6012C40.9027 46.555 41.0041 46.4872 41.0895 46.4019C41.1749 46.3165 41.2426 46.2151 41.2888 46.1035C41.335 45.9919 41.3588 45.8723 41.3588 45.7516C41.3588 45.6308 41.335 45.5112 41.2888 45.3997C41.2426 45.2881 41.1749 45.1867 41.0895 45.1013C41.0041 45.0159 40.9027 44.9482 40.7911 44.902C40.6795 44.8558 40.56 44.832 40.4392 44.832ZM40.4392 40.4181H38.6064C38.4856 40.418 38.3661 40.4418 38.2545 40.488C38.1429 40.5342 38.0415 40.602 37.9561 40.6874C37.8707 40.7728 37.803 40.8741 37.7568 40.9857C37.7106 41.0973 37.6868 41.2169 37.6868 41.3376C37.6868 41.4584 37.7106 41.578 37.7568 41.6896C37.803 41.8011 37.8707 41.9025 37.9561 41.9879C38.0415 42.0733 38.1429 42.141 38.2545 42.1873C38.3661 42.2335 38.4856 42.2572 38.6064 42.2572H40.4392C40.6831 42.2572 40.917 42.1603 41.0894 41.9879C41.2619 41.8154 41.3588 41.5815 41.3588 41.3376C41.3588 41.0938 41.2619 40.8599 41.0894 40.6874C40.917 40.5149 40.6831 40.4181 40.4392 40.4181ZM74.3593 45.5723C74.3483 45.5135 74.3299 45.456 74.3065 45.3995C74.2838 45.3441 74.2555 45.2911 74.2221 45.2413C74.1892 45.1907 74.151 45.1438 74.1081 45.1014C74.0655 45.0584 74.0186 45.0198 73.9682 44.9863C73.9179 44.9531 73.8652 44.925 73.81 44.9017C73.7536 44.8797 73.696 44.8613 73.6371 44.8503C73.5194 44.8258 73.3968 44.8258 73.2779 44.8503C73.2191 44.8618 73.1616 44.8791 73.1062 44.9017C73.0512 44.925 72.997 44.9532 72.9468 44.9863C72.8965 45.0205 72.85 45.0586 72.8069 45.1014C72.7653 45.143 72.7273 45.1908 72.693 45.2413C72.6598 45.2915 72.6317 45.3442 72.6084 45.3995C72.5851 45.4559 72.568 45.5135 72.5557 45.5723C72.5445 45.6314 72.5387 45.6913 72.5385 45.7515C72.5385 45.8114 72.5447 45.8717 72.5557 45.9317C72.592 46.1094 72.6793 46.2726 72.8069 46.4014C72.8498 46.4443 72.8963 46.4823 72.9468 46.5166C72.997 46.5498 73.0511 46.5779 73.1062 46.6012C73.1614 46.6232 73.2191 46.6416 73.2779 46.6527C73.3964 46.6772 73.5187 46.6772 73.6372 46.6527C73.696 46.6416 73.7537 46.6232 73.8101 46.6012C73.8652 46.5779 73.9179 46.5497 73.9683 46.5166C74.0186 46.4824 74.0663 46.4443 74.1083 46.4014C74.1511 46.3598 74.189 46.3131 74.2222 46.2615C74.2553 46.2126 74.2847 46.1586 74.3067 46.1033C74.3299 46.0483 74.3484 45.9905 74.3595 45.9317C74.3837 45.8131 74.3836 45.6909 74.3593 45.5723Z" fill="white"/>
<path d="M76.9807 54.2106H67.2683V50.9004H76.9807C78.2989 50.9004 79.3715 49.8279 79.3715 48.5096V38.5792C79.3715 37.261 78.299 36.1884 76.9807 36.1884H74.415C74.1711 36.1884 73.9372 36.2852 73.7648 36.4577C73.5923 36.6301 73.4954 36.864 73.4954 37.1079C73.4954 37.3518 73.5923 37.5857 73.7648 37.7582C73.9372 37.9306 74.1711 38.0275 74.415 38.0275H76.9807C77.2797 38.0275 77.5324 38.2802 77.5324 38.5792V48.5096C77.5324 48.8086 77.2797 49.0613 76.9807 49.0613H34.4232C34.1241 49.0613 33.8715 48.8086 33.8715 48.5096V38.5792C33.8715 38.2802 34.1241 38.0275 34.4232 38.0275H70.1238C70.2446 38.0275 70.3642 38.0037 70.4758 37.9575C70.5873 37.9113 70.6887 37.8436 70.7741 37.7582C70.8595 37.6728 70.9272 37.5714 70.9735 37.4599C71.0197 37.3483 71.0434 37.2287 71.0434 37.1079C71.0434 36.9872 71.0197 36.8676 70.9735 36.756C70.9272 36.6444 70.8595 36.5431 70.7741 36.4577C70.6887 36.3723 70.5873 36.3045 70.4758 36.2583C70.3642 36.2121 70.2446 36.1883 70.1238 36.1884H67.2683V25.4679C67.2683 22.9774 65.2423 20.9513 62.7517 20.9513C18.5018 20.9578 21.1794 20.9381 20.8156 20.9656C18.8742 21.1115 17.2826 22.4805 16.7953 24.2955C16.566 25.1483 16.6399 25.2157 16.6399 36.8633C16.6399 36.9841 16.6636 37.1037 16.7099 37.2153C16.7561 37.3268 16.8238 37.4282 16.9092 37.5136C16.9946 37.599 17.096 37.6667 17.2075 37.7129C17.3191 37.7591 17.4387 37.7829 17.5595 37.7829C17.6802 37.7829 17.7998 37.7591 17.9114 37.7129C18.023 37.6667 18.1243 37.599 18.2097 37.5136C18.2951 37.4282 18.3629 37.3268 18.4091 37.2153C18.4553 37.1037 18.4791 36.9841 18.479 36.8633V32.5134H65.4292V36.1885H34.4232C33.105 36.1885 32.0323 37.261 32.0323 38.5793V48.5097C32.0323 49.8281 33.1049 50.9006 34.4232 50.9006H65.4293V54.2107H34.4232C33.105 54.2107 32.0323 55.2832 32.0323 56.6016V66.5321C32.0323 67.8504 33.1049 68.923 34.4232 68.923H65.4293V69.8833C65.4293 71.3596 64.2281 72.5608 62.7518 72.5608H31.2686C31.0248 72.5608 30.7909 72.6577 30.6184 72.8301C30.446 73.0026 30.3491 73.2365 30.3491 73.4804C30.3491 73.7243 30.446 73.9582 30.6184 74.1306C30.7909 74.3031 31.0248 74.4 31.2686 74.4H62.7517C65.2422 74.4 67.2683 72.3739 67.2683 69.8833V68.923H76.9807C78.2989 68.923 79.3715 67.8504 79.3715 66.5321V56.6016C79.3715 55.2832 78.2989 54.2106 76.9807 54.2106ZM18.4792 30.6742C18.4832 25.2877 18.1979 24.5494 19.3507 23.4934C19.8286 23.0571 20.4641 22.7906 21.1566 22.7906H62.7518C64.2281 22.7906 65.4293 23.9917 65.4293 25.468V30.6742H18.4792ZM77.5324 66.532C77.5324 66.8311 77.2797 67.0837 76.9807 67.0837H34.4232C34.1241 67.0837 33.8715 66.8311 33.8715 66.532V56.6015C33.8715 56.3025 34.1241 56.0498 34.4232 56.0498H76.9807C77.2797 56.0498 77.5324 56.3025 77.5324 56.6015V66.532Z" fill="white"/>
<path d="M26.9775 72.5607H21.1568C19.6805 72.5607 18.4793 71.3595 18.4793 69.8832V41.1544C18.4793 41.0337 18.4555 40.9141 18.4093 40.8025C18.3631 40.6909 18.2954 40.5896 18.21 40.5042C18.1246 40.4188 18.0232 40.351 17.9116 40.3048C17.8001 40.2586 17.6805 40.2348 17.5597 40.2349C17.4389 40.2348 17.3194 40.2586 17.2078 40.3048C17.0962 40.351 16.9948 40.4188 16.9094 40.5042C16.824 40.5896 16.7563 40.6909 16.7101 40.8025C16.6639 40.9141 16.6401 41.0337 16.6401 41.1544V69.8832C16.6401 72.3737 18.6662 74.3999 21.1568 74.3999H26.9776C27.2189 74.3959 27.449 74.2973 27.6182 74.1252C27.7875 73.9532 27.8823 73.7215 27.8823 73.4802C27.8823 73.2389 27.7874 73.0073 27.6181 72.8353C27.4489 72.6632 27.2188 72.5646 26.9775 72.5607Z" fill="white"/>
</svg>
