<svg width="33" height="47" viewBox="0 0 33 47" fill="none" xmlns="http://www.w3.org/2000/svg">
<path d="M10.5919 46.7434V2.45703H29.6488V9.16867H17.2867V21.2453H26.3211V27.9552H17.2867V40.0335H29.6488V46.7434H10.5919Z" fill="#FF5202"/>
<path d="M7.11328 41.5237C7.11328 41.5237 11.5937 41.9771 10.676 38.7706C10.676 38.7706 15.6253 40.9614 14.569 44.6493C14.569 44.6493 14.4703 46.0551 10.4563 44.7899C10.4581 44.7899 8.64907 44.2164 7.11328 41.5237Z" fill="#EA8518"/>
<path d="M14.5342 46.6573C14.5342 46.6573 12.0442 43.4491 18.3366 40.0177C18.3366 40.0177 17.611 40.6884 17.2256 43.3255C17.2256 43.3255 16.6922 46.9285 14.5342 46.6573Z" fill="#5255AC"/>
<path d="M14.9354 45.8588C14.9354 45.8588 10.2939 42.3277 6.03497 45.0027C6.03497 45.0027 9.37917 47.6132 14.7303 46.7542C14.7315 46.7542 15.6381 46.6266 14.9354 45.8588Z" fill="#5255AC"/>
<path d="M3.29012 33.1731C6.70599 32.7127 9.1313 35.4857 9.94561 37.9014C9.94561 37.9014 11.0032 41.0381 11.4385 42.506C11.4544 42.5582 7.49151 41.0381 7.2283 40.9245C5.43341 40.1554 3.50046 38.4567 3.11386 36.4698C2.90941 35.4412 2.41882 33.2903 3.29012 33.1731Z" fill="#F0C722"/>
<path d="M11.4374 42.5015C11.4374 42.5015 1.77139 44.8452 0 39.555C0 39.555 1.26553 38.1705 3.87767 37.8732C3.87767 37.8708 7.34935 38.2758 11.4374 42.5015Z" fill="#F0C722"/>
<path d="M11.4373 42.506C11.4373 42.506 5.71894 36.195 7.97973 30.4692C7.97973 30.4692 11.3122 31.2852 11.6365 33.7805C11.6365 33.7805 12.1758 37.3349 11.4373 42.506Z" fill="#F0C722"/>
<path d="M11.4381 42.506H11.4327C11.4327 42.506 11.4387 42.5073 11.4381 42.506Z" fill="#5255AC"/>
<path d="M11.3124 42.3409C11.2378 42.242 11.1361 42.1004 11.0063 41.9231C11.0815 42.08 11.1853 42.2217 11.3124 42.3409Z" fill="#5255AC"/>
<path d="M7.57322 41.7794C7.83055 41.8894 11.2899 42.5237 11.4327 42.5039H11.4374C7.34937 38.2758 3.87769 37.8708 3.87769 37.8708C3.67865 37.8918 3.48197 37.931 3.29016 37.9879C4.07098 39.685 6.64258 41.382 7.57322 41.7794Z" fill="#438CE3"/>
<path d="M11.4374 42.5058L11.4498 42.4186C11.435 42.4145 11.4206 42.409 11.4069 42.4022C11.4174 42.4397 11.4274 42.4724 11.4374 42.5058Z" fill="#5255AC"/>
<path d="M10.1707 33.9638C9.74183 35.1512 9.74006 36.5055 9.91867 37.8246C9.92748 37.8504 9.9363 37.8756 9.94452 37.9013C9.94452 37.9013 10.9539 40.8963 11.4069 42.4023C11.4206 42.4091 11.435 42.4146 11.4498 42.4187C12.1701 37.2951 11.6366 33.7805 11.6366 33.7805C11.5285 33.1842 11.3475 32.756 11.126 32.4514C10.7035 32.8822 10.3778 33.3978 10.1707 33.9638Z" fill="#5255AC"/>
<path d="M10.4462 40.3609C10.2189 39.5268 10.0423 38.6798 9.91745 37.8246C9.4868 36.5218 8.76649 35.4188 7.72363 34.983C8.04501 37.5504 10.0966 40.6544 11.005 41.9231C10.7741 41.4867 10.5755 40.8518 10.4462 40.3609Z" fill="#5255AC"/>
<path d="M11.4069 42.4023C11.373 42.3869 11.3412 42.3672 11.3123 42.3438C11.3922 42.4503 11.4375 42.5082 11.4375 42.5082C11.4275 42.4725 11.4175 42.4397 11.4069 42.4023Z" fill="#5255AC"/>
<path d="M9.94455 37.9012C9.93633 37.8755 9.92751 37.8503 9.9187 37.8246C10.0436 38.6791 10.2202 39.5252 10.4475 40.3585C10.5767 40.8489 10.7753 41.4832 11.0074 41.9192C11.1343 42.0948 11.2389 42.2381 11.3135 42.337C11.3424 42.3605 11.3742 42.3801 11.4081 42.3956C10.9539 40.8934 9.94455 37.9012 9.94455 37.9012Z" fill="#5255AC"/>
<path d="M29.9256 1.48406C30.8286 3.99287 29.1113 6.27558 27.4051 7.28308C27.4051 7.28308 25.1896 8.58991 24.1432 9.15752C24.1062 9.17743 24.6214 5.93584 24.6649 5.71735C24.9587 4.23596 25.9381 2.49977 27.3887 1.88355C28.1384 1.56431 29.6959 0.844996 29.9256 1.48406Z" fill="#EA8518"/>
<path d="M24.1431 9.15808C24.1431 9.15808 20.7942 2.22736 24.5362 0.0307617C24.5362 0.0307617 25.7958 0.763548 26.4445 2.6907C26.4445 2.6907 26.6995 5.38168 24.1431 9.15808Z" fill="#F0C722"/>
<path d="M24.1432 9.15356C24.1432 9.15356 28.0209 3.81247 32.7417 4.59487C32.7417 4.59487 32.66 7.24464 30.8146 7.89304C30.8146 7.89304 28.1972 8.87559 24.1432 9.15356Z" fill="#F0C722"/>
<path d="M24.1431 9.15851V9.15454C24.1431 9.15454 24.1425 9.15851 24.1431 9.15851Z" fill="#5255AC"/>
<path d="M24.2484 9.036C24.3118 8.96402 24.4023 8.86044 24.5169 8.73755C24.4094 8.81948 24.3184 8.92071 24.2484 9.036Z" fill="#5255AC"/>
<path d="M24.0679 6.11861C24.0256 6.33124 24.1026 9.04741 24.1408 9.1546V9.15812C26.6995 5.38172 26.4445 2.69074 26.4445 2.69074C26.3959 2.54339 26.3337 2.40084 26.2588 2.26489C25.0949 3.13123 24.2219 5.35009 24.0679 6.11861Z" fill="#438CE3"/>
<path d="M24.1432 9.15805L24.212 9.15337C24.2126 9.14134 24.2144 9.12939 24.2173 9.11768L24.1432 9.15805Z" fill="#5255AC"/>
<path d="M30.4373 6.81731C29.4649 6.68506 28.4338 6.90275 27.4597 7.25153L27.4051 7.28313C27.4051 7.28313 25.29 8.5296 24.2171 9.11538C24.2143 9.12709 24.2125 9.13904 24.2119 9.15108C28.2264 8.86667 30.8145 7.89524 30.8145 7.89524C31.2504 7.71968 31.5471 7.51135 31.7428 7.29483C31.3465 7.04524 30.9015 6.88247 30.4373 6.81731Z" fill="#5255AC"/>
<path d="M25.6162 8.05787C26.2139 7.7515 26.8298 7.48162 27.4604 7.24971C28.3817 6.71309 29.4962 6.36314 29.6789 4.88025C27.2836 5.48768 24.9787 7.79336 24.5175 8.73377C24.8113 8.48799 25.2637 8.23518 25.6162 8.05787Z" fill="#5255AC"/>
<path d="M24.2173 9.1176C24.2241 9.08925 24.2345 9.0619 24.2484 9.03625C24.1803 9.11409 24.1438 9.15798 24.1432 9.15798L24.2173 9.1176Z" fill="#5255AC"/>
<path d="M27.4052 7.28355L27.4599 7.25195C26.8294 7.48388 26.2137 7.75377 25.6162 8.06011C25.2637 8.23567 24.8119 8.49023 24.5175 8.73601C24.4 8.86066 24.3125 8.96248 24.249 9.03446C24.2351 9.06011 24.2247 9.08745 24.2179 9.11581C25.2901 8.53002 27.4052 7.28355 27.4052 7.28355Z" fill="#5255AC"/>
<path d="M5.08508 17.1437C5.08508 17.1437 8.30355 16.4578 10.5784 22.4413C10.5784 22.4413 6.76129 21.9727 5.08508 17.1437Z" fill="#EA8518"/>
<path d="M13.4033 33.1974C13.4033 33.1974 8.13204 33.9979 6.76428 30.7156C6.76604 30.7156 10.2765 29.3251 13.4033 33.1974Z" fill="#EA8518"/>
<path d="M18.0863 27.1796C18.0863 27.1796 17.0969 32.2429 13.4543 33.306C13.4543 33.306 14.4237 27.4847 18.0863 27.1796Z" fill="#5255AC"/>
<path d="M8.93039 16.9399C8.93039 16.9399 5.05272 13.5097 6.86759 9.37952C6.86759 9.37952 10.3916 12.1103 8.93039 16.9399Z" fill="#EA8518"/>
<path d="M10.6524 22.4068C10.6524 22.4068 10.0596 17.1186 12.7992 14.6543C12.7992 14.6543 13.9061 17.1004 12.949 19.4218C12.949 19.4195 12.3633 21.0777 10.6524 22.4068Z" fill="#438CE3"/>
<path d="M14.8451 38.9905C14.8451 38.9905 11.011 39.7571 8.75427 36.3313C8.75427 36.3313 11.5039 35.1264 14.8451 38.9905Z" fill="#EA8518"/>
<path d="M14.9678 39.2386C14.9678 39.2386 14.7986 34.9883 18.131 32.8403C18.131 32.8403 20.0758 34.9321 14.9678 39.2386Z" fill="#EA8518"/>
<path d="M12.0279 28.2215C12.0279 28.2215 7.57915 28.1313 5.97168 24.3984C5.97168 24.3984 8.53035 23.6833 12.0279 28.2215Z" fill="#5255AC"/>
<path d="M11.9856 28.1338C11.9856 28.1338 11.8993 23.0722 15.6776 20.8147C15.6747 20.8147 16.1065 26.1158 11.9856 28.1338Z" fill="#438CE3"/>
<path d="M23.3149 45.119C23.2407 45.6572 23.2233 46.2016 23.2632 46.7433H29.4352L29.4111 46.6848C29.4064 46.6719 29.4005 46.6578 29.3947 46.6426C29.3606 46.5547 29.3124 46.4229 29.2566 46.2466L29.2296 46.1587C29.1978 46.0564 29.1649 45.9412 29.1309 45.8131C28.8459 44.7389 28.5057 42.7801 28.7454 40.0334H27.5586C26.561 41.7708 25.1633 43.6886 23.3149 45.119Z" fill="#438CE3"/>
<path d="M29.4082 46.6854C29.4034 46.6723 29.3975 46.658 29.3915 46.6426C29.3975 46.6574 29.4034 46.6723 29.4082 46.6854Z" fill="#F0C722"/>
<path d="M19.9676 41.0879C19.6991 41.2993 19.4617 41.5474 19.2626 41.8247C19.4726 41.5565 19.7087 41.3097 19.9676 41.0879Z" fill="#F0C722"/>
<path d="M21.3996 40.0334C20.577 40.5982 20.0976 40.9815 19.9895 41.0681C20.0976 40.9815 20.5782 40.5982 21.3996 40.0334Z" fill="#F0C722"/>
<path d="M23.8135 44.5128C23.6067 43.1069 24.3311 41.6156 25.4585 40.3041C24.1478 41.3549 22.6813 42.2371 21.1179 42.5452C20.3751 42.6898 19.61 42.6761 18.873 42.5048C18.1756 44.0547 18.4652 45.9168 18.6509 46.7433H20.4023C21.4517 46.357 22.4339 45.8089 23.3129 45.119C25.1612 43.6886 26.559 41.7708 27.5566 40.0334H27.3921C26.4332 41.6841 25.2047 43.4215 23.8135 44.5128Z" fill="#F0C722"/>
<path d="M29.1277 45.8131C29.1617 45.9408 29.1946 46.056 29.2264 46.1587L29.2534 46.2466C29.3092 46.4223 29.3574 46.5547 29.3915 46.6426C29.3973 46.6578 29.4032 46.6719 29.4079 46.6848L29.432 46.7433H29.6488V40.0334H28.7422C28.5025 42.7801 28.8427 44.7389 29.1277 45.8131Z" fill="#F0C722"/>
<path d="M19.9759 41.0821L19.97 41.0868C19.7112 41.3086 19.475 41.5554 19.265 41.8236C19.1018 42.031 18.9656 42.2581 18.8596 42.4995L18.8731 42.5024C19.6102 42.6735 20.3753 42.6873 21.1181 42.5428C22.6815 42.232 24.1479 41.3537 25.4587 40.3038L25.5251 40.2266L25.6902 40.0334H21.3995C20.577 40.5982 20.0975 40.9815 19.9894 41.0681L19.9759 41.0821Z" fill="#5255AC"/>
<path d="M25.4605 40.3038C24.3312 41.6141 23.1104 43.7102 23.3148 45.1141C24.7049 44.0245 26.9017 41.9213 27.5585 40.0334H25.7924C25.682 40.1247 25.5713 40.2149 25.4605 40.3038Z" fill="#FF5202"/>
<path d="M25.5269 40.2266L25.4605 40.3038C25.5714 40.2149 25.6814 40.1247 25.7907 40.0334H25.692L25.5269 40.2266Z" fill="#5255AC"/>
</svg>
