<svg width="6" height="10" viewBox="0 0 6 10" fill="none" xmlns="http://www.w3.org/2000/svg">
<path d="M0.152919 4.49462L4.41359 0.229921C4.51214 0.131204 4.64368 0.0768204 4.78395 0.0768204C4.92422 0.0768204 5.05576 0.131204 5.15431 0.229921L5.46808 0.543914C5.67225 0.748516 5.67225 1.08105 5.46808 1.28534L1.89029 4.86658L5.47205 8.45179C5.57059 8.5505 5.625 8.6821 5.625 8.82242C5.625 8.9629 5.57059 9.0945 5.47205 9.19329L5.15828 9.50721C5.05966 9.60593 4.92819 9.66031 4.78792 9.66031C4.64765 9.66031 4.51611 9.60593 4.41756 9.50721L0.152919 5.23862C0.054142 5.13959 -0.00011158 5.00737 0.000199795 4.86681C-0.00011158 4.72571 0.054142 4.59357 0.152919 4.49462Z" fill="#5255AC"/>
</svg>
