<svg width="96" height="96" viewBox="0 0 96 96" fill="none" xmlns="http://www.w3.org/2000/svg">
<rect opacity="0.15" width="96" height="96" rx="10" fill="white"/>
<path d="M16.6808 24.7999C15.7597 24.8045 14.8776 25.1722 14.2259 25.8231C13.5741 26.474 13.2054 27.3557 13.1996 28.2768V60.7608C13.1996 62.668 14.7736 64.2376 16.6808 64.2376H32.9426C32.9104 64.4965 32.8606 64.7528 32.7935 65.0049C32.5217 66.044 31.8596 67.4338 30.1716 68.8763H28.2776C26.7299 68.8763 26.7299 71.2001 28.2776 71.2001H42.2024C43.7501 71.2001 43.7501 68.8763 42.2024 68.8763H33.381C34.2842 67.7057 34.784 66.5614 35.0383 65.5924C35.1699 65.0838 35.2225 64.641 35.2488 64.2376H42.2024C43.7721 64.2595 43.7721 61.8963 42.2024 61.9183H16.6808C16.5275 61.9225 16.3749 61.8954 16.2323 61.8388C16.0897 61.7822 15.9602 61.6972 15.8515 61.5889C15.7428 61.4806 15.6573 61.3514 15.6001 61.209C15.5429 61.0667 15.5153 60.9142 15.519 60.7608V54.9602H42.2024C43.7721 54.9821 43.7721 52.619 42.2024 52.6365H15.519V28.2811C15.519 27.6235 16.0188 27.1237 16.6808 27.1237H60.7616C61.4236 27.1237 61.9235 27.6191 61.9235 28.2811C61.9016 29.8508 64.2647 29.8508 64.2428 28.2811C64.2371 27.36 63.8683 26.4784 63.2166 25.8275C62.5648 25.1766 61.6827 24.8089 60.7616 24.8043L16.6808 24.7999ZM49.1561 31.7492C48.2334 31.755 47.3502 32.124 46.6978 32.7765C46.0453 33.4289 45.6762 34.3121 45.6705 35.2348V67.7188C45.6705 69.626 47.2489 71.1913 49.1561 71.1913H63.0722C64.6199 71.1913 64.6199 68.8719 63.0722 68.8719H49.1605C49.0075 68.8761 48.8553 68.8492 48.713 68.7929C48.5707 68.7365 48.4414 68.6519 48.3327 68.5441C48.2241 68.4363 48.1385 68.3076 48.0811 68.1657C48.0236 68.0239 47.9956 67.8718 47.9986 67.7188V61.9183H63.081C64.6243 61.9183 64.6243 59.5989 63.081 59.5989H47.9986V38.7204H71.2052V42.206C71.2052 43.7537 73.5246 43.7537 73.5246 42.206V35.2392C73.5188 34.3165 73.1498 33.4333 72.4973 32.7808C71.8449 32.1284 70.9617 31.7593 70.039 31.7536L49.1561 31.7492ZM18.9783 34.0554C18.8253 34.0577 18.6743 34.0901 18.5339 34.1509C18.3935 34.2117 18.2665 34.2996 18.1602 34.4096C18.0539 34.5196 17.9703 34.6495 17.9143 34.7919C17.8584 34.9342 17.831 35.0862 17.8339 35.2392V37.5585C17.8339 39.1018 20.1577 39.1018 20.1577 37.5585V35.2348C20.1606 35.0789 20.1322 34.924 20.074 34.7793C20.0158 34.6347 19.9291 34.5032 19.8191 34.3927C19.709 34.2822 19.5779 34.1951 19.4334 34.1364C19.289 34.0777 19.1342 34.053 18.9783 34.0554ZM49.1561 34.0729H70.0346C70.1884 34.0694 70.3413 34.0969 70.4841 34.154C70.6269 34.2111 70.7567 34.2964 70.8657 34.405C70.9746 34.5135 71.0605 34.643 71.1181 34.7856C71.1757 34.9282 71.2039 35.081 71.2009 35.2348V36.3923H47.9986V35.2348C47.9956 35.0814 48.0237 34.929 48.081 34.7867C48.1383 34.6444 48.2238 34.5151 48.3323 34.4066C48.4408 34.2981 48.57 34.2126 48.7124 34.1553C48.8547 34.098 49.0071 34.07 49.1605 34.0729H49.1561ZM18.9826 41.0222C18.8297 41.0245 18.6787 41.057 18.5383 41.1177C18.3979 41.1785 18.2709 41.2664 18.1646 41.3764C18.0583 41.4864 17.9747 41.6163 17.9187 41.7587C17.8627 41.901 17.8354 42.0531 17.8383 42.206V49.1553C17.8383 50.703 20.162 50.703 20.162 49.1553V42.2016C20.165 42.0457 20.1366 41.8908 20.0784 41.7461C20.0202 41.6015 19.9335 41.47 19.8235 41.3595C19.7134 41.2491 19.5823 41.1619 19.4378 41.1032C19.2933 41.0445 19.1386 41.0198 18.9826 41.0222ZM51.4667 41.0222C51.3133 41.0239 51.1619 41.056 51.021 41.1165C50.8801 41.177 50.7526 41.2648 50.6458 41.3749C50.539 41.4849 50.4551 41.615 50.3988 41.7577C50.3425 41.9003 50.3151 42.0527 50.318 42.206V44.521C50.318 46.0687 52.6417 46.0687 52.6417 44.521V42.2016C52.6446 42.0461 52.6163 41.8916 52.5584 41.7472C52.5005 41.6028 52.4142 41.4715 52.3046 41.3611C52.1951 41.2507 52.0644 41.1634 51.9205 41.1045C51.7765 41.0455 51.6222 41.0204 51.4667 41.0222ZM70.039 45.6784C69.1183 45.6831 68.2366 46.0508 67.5856 46.7019C66.9346 47.3529 66.5668 48.2346 66.5622 49.1553V67.7232C66.5622 69.6304 68.1318 71.1957 70.039 71.1957H79.3208C80.2411 71.1922 81.1227 70.8254 81.7739 70.1751C82.4251 69.5247 82.793 68.6435 82.7976 67.7232V49.1553C82.7941 48.2342 82.4267 47.3519 81.7754 46.7006C81.1242 46.0493 80.2418 45.6819 79.3208 45.6784H70.039ZM51.4667 47.9846C51.3143 47.9858 51.1636 48.017 51.0234 48.0765C50.8831 48.136 50.7559 48.2226 50.6492 48.3314C50.5425 48.4402 50.4583 48.5689 50.4014 48.7103C50.3446 48.8517 50.3162 49.0029 50.318 49.1553V56.1177C50.318 57.6654 52.6417 57.6654 52.6417 56.1177V49.1553C52.6435 49.0007 52.6143 48.8473 52.5558 48.7042C52.4973 48.5611 52.4107 48.4311 52.3012 48.322C52.1917 48.2129 52.0614 48.1268 51.9181 48.0689C51.7747 48.0109 51.6213 47.9823 51.4667 47.9846ZM70.039 48.0022H79.3208C79.9872 48.0022 80.4783 48.4932 80.4783 49.1553V50.3215H68.8859V49.1553C68.8859 48.4932 69.377 47.9978 70.039 47.9978V48.0022ZM68.8859 52.6409H80.4783V64.2376H68.8859V52.6409ZM37.5594 59.6033H39.8831C41.4264 59.6033 41.4264 57.2796 39.8831 57.2796H37.5024C35.902 57.3585 36.0117 59.6778 37.5594 59.6033ZM58.4466 64.2376C56.8989 64.2376 56.8989 66.557 58.4466 66.557H60.7704C62.3137 66.557 62.3137 64.2332 60.7704 64.2332L58.4466 64.2376ZM68.8815 66.557H80.4783V67.7232C80.4825 67.8764 80.4554 68.0288 80.3988 68.1711C80.3421 68.3135 80.257 68.4428 80.1487 68.5511C80.0403 68.6594 79.911 68.7445 79.7687 68.8012C79.6263 68.8579 79.4739 68.8849 79.3208 68.8807H70.039C69.8862 68.8843 69.7343 68.8568 69.5924 68.7999C69.4506 68.7429 69.3219 68.6577 69.214 68.5495C69.1061 68.4412 69.0214 68.3121 68.965 68.1701C68.9086 68.028 68.8817 67.876 68.8859 67.7232L68.8815 66.557Z" fill="white"/>
</svg>
