<svg width="16" height="13" viewBox="0 0 16 13" fill="none" xmlns="http://www.w3.org/2000/svg">
<path d="M15.8815 5.74999C15.2962 4.46868 13.0007 0.290405 8.0004 0.290405C3.0001 0.290405 0.704624 4.46868 0.119255 5.74999C0.0406755 5.9217 0 6.10835 0 6.29721C0 6.48608 0.0406755 6.67273 0.119255 6.84444C0.704624 8.12441 3.0001 12.3027 8.0004 12.3027C13.0007 12.3027 15.2962 8.12441 15.8815 6.8431C15.96 6.67159 16.0006 6.48517 16.0006 6.29655C16.0006 6.10792 15.96 5.9215 15.8815 5.74999ZM8.0004 10.968C3.79548 10.968 1.83336 7.38699 1.33333 6.30389C1.83336 5.2061 3.79548 1.6251 8.0004 1.6251C12.1953 1.6251 14.1581 5.19075 14.6675 6.29655C14.1581 7.40234 12.1953 10.968 8.0004 10.968Z" fill="white"/>
<path d="M8.00041 2.95978C7.3411 2.95978 6.69659 3.15547 6.14839 3.52212C5.6002 3.88877 5.17293 4.4099 4.92062 5.01961C4.66831 5.62932 4.6023 6.30022 4.73092 6.94749C4.85955 7.59475 5.17704 8.18931 5.64324 8.65596C6.10945 9.12261 6.70342 9.4404 7.35007 9.56915C7.99671 9.6979 8.66697 9.63182 9.2761 9.37927C9.88522 9.12672 10.4058 8.69904 10.7721 8.15032C11.1384 7.60159 11.3339 6.95647 11.3339 6.29652C11.3329 5.41189 10.9813 4.56379 10.3564 3.93826C9.73147 3.31273 8.88419 2.96084 8.00041 2.95978ZM8.00041 8.29857C7.60482 8.29857 7.21812 8.18115 6.8892 7.96116C6.56028 7.74118 6.30392 7.4285 6.15254 7.06267C6.00115 6.69685 5.96154 6.2943 6.03872 5.90594C6.11589 5.51758 6.30639 5.16085 6.58611 4.88086C6.86583 4.60087 7.22222 4.41019 7.6102 4.33294C7.99819 4.25569 8.40035 4.29534 8.76582 4.44687C9.1313 4.5984 9.44367 4.85501 9.66345 5.18424C9.88322 5.51348 10.0005 5.90055 10.0005 6.29652C10.0005 6.8275 9.7898 7.33673 9.41471 7.71218C9.03961 8.08764 8.53087 8.29857 8.00041 8.29857Z" fill="white"/>
</svg>
