<svg width="850" height="183" viewBox="0 0 850 183" fill="none" xmlns="http://www.w3.org/2000/svg">
<rect width="100" height="100" rx="50" fill="white"/>
<path d="M33.6969 23.4937H36.2125V25.9899H38.5313V23.4937H41.0469V31.0479H38.5313V28.5298H36.2344V31.0479H33.6969V23.4937ZM44.3719 26.0118H42.1516V23.4937H49.1188V26.0118H46.8875V31.0479H44.3719V26.0118ZM50.2235 23.4937H52.8594L54.4782 26.1541L56.0969 23.4937H58.7328V31.0479H56.2172V27.3037L54.4563 30.0188L52.6953 27.3037V31.0479H50.2235V23.4937ZM59.9797 23.4937H62.4953V28.5517H66.061V31.0479H59.9797V23.4937Z" fill="black"/>
<path d="M33.6094 75.059L30 34.5075H69.6813L66.0719 75.0371L49.8078 79.5477" fill="#FF4C1E"/>
<path d="M49.8406 76.099V37.8357H66.0609L62.9656 72.4314L49.8406 76.099Z" fill="#FF651E"/>
<path d="M37.3719 42.7951H49.8406L51.6947 45.2803L49.8406 47.7655H42.8188L43.2781 52.8563H49.8406L51.6947 55.4345L49.8406 57.8158H38.7281L37.3719 42.7951ZM38.9469 60.3119H43.9344L44.2844 64.2861L49.8406 65.775L51.9327 68.2558L49.8406 70.9644L39.6469 68.1179L38.9469 60.3119Z" fill="#EBEBEB"/>
<path d="M62.2656 42.7951H49.8187V47.7655H61.8062L62.2656 42.7951ZM61.3578 52.8563H49.8187V57.8267H55.9437L55.364 64.2861L49.8187 65.775V70.9425L59.9906 68.1179L61.3578 52.8563Z" fill="white"/>
<path d="M19.4382 148V134.909H21.4134V140.598H27.9396V134.909H29.9212V148H27.9396V142.292H21.4134V148H19.4382ZM32.152 136.609V134.909H42.2834V136.609H38.1989V148H36.2301V136.609H32.152ZM44.5222 134.909H46.9192L51.0868 145.085H51.2402L55.4078 134.909H57.8049V148H55.9256V138.527H55.8042L51.9434 147.981H50.3837L46.5229 138.521H46.4015V148H44.5222V134.909ZM60.6765 148V134.909H62.6516V146.3H68.5835V148H60.6765ZM74.9787 148.179C74.1776 148.179 73.4574 148.026 72.8182 147.719C72.1832 147.408 71.6761 146.982 71.2969 146.44C70.9176 145.899 70.7152 145.281 70.6896 144.587H72.6072C72.6541 145.149 72.9034 145.612 73.3551 145.974C73.8068 146.336 74.348 146.517 74.9787 146.517C75.4815 146.517 75.9268 146.402 76.3146 146.172C76.7067 145.938 77.0135 145.616 77.2351 145.207C77.4609 144.798 77.5739 144.331 77.5739 143.807C77.5739 143.274 77.4588 142.799 77.2287 142.381C76.9986 141.964 76.6811 141.636 76.2763 141.397C75.8757 141.158 75.4155 141.037 74.8956 141.033C74.4993 141.033 74.1009 141.101 73.7003 141.237C73.2997 141.374 72.9759 141.553 72.7287 141.774L70.9197 141.506L71.6548 134.909H78.8523V136.603H73.2976L72.8821 140.266H72.9588C73.2145 140.018 73.5533 139.812 73.9751 139.646C74.4013 139.479 74.8572 139.396 75.343 139.396C76.1399 139.396 76.8494 139.586 77.4716 139.965C78.098 140.344 78.5902 140.862 78.9482 141.518C79.3104 142.17 79.4893 142.92 79.4851 143.768C79.4893 144.616 79.2976 145.373 78.9098 146.038C78.5263 146.702 77.9936 147.227 77.3118 147.61C76.6342 147.989 75.8565 148.179 74.9787 148.179Z" fill="#707070"/>
<path d="M26.2903 175.791L22.1879 175.521L20.6429 171.636L19.0979 175.521L15 175.791L18.1431 178.463L17.1117 182.515L20.6429 180.281L24.1742 182.515L23.1428 178.463L26.2903 175.791Z" fill="#F0C722"/>
<path d="M40.9678 175.791L36.8653 175.521L35.3203 171.636L33.7754 175.521L29.6774 175.791L32.8205 178.463L31.7891 182.515L35.3203 180.281L38.8516 182.515L37.8202 178.463L40.9678 175.791Z" fill="#F0C722"/>
<path d="M55.6452 175.791L51.5428 175.521L49.9978 171.636L48.4528 175.521L44.3549 175.791L47.4979 178.463L46.4665 182.515L49.9978 180.281L53.529 182.515L52.4976 178.463L55.6452 175.791Z" fill="#F0C722"/>
<path d="M70.3225 175.791L66.2201 175.521L64.6751 171.636L63.1302 175.521L59.0322 175.791L62.1753 178.463L61.1439 182.515L64.6751 180.281L68.2064 182.515L67.175 178.463L70.3225 175.791Z" fill="#F0C722"/>
<path d="M85 175.791L80.8976 175.521L79.3526 171.636L77.8076 175.521L73.7097 175.791L76.8528 178.463L75.8214 182.515L79.3526 180.281L82.8839 182.515L81.8525 178.463L85 175.791Z" fill="#F0C722"/>
<rect x="150" width="100" height="100" rx="50" fill="white"/>
<path d="M206.079 54.3156C205.247 53.562 204.102 53.2008 202.612 53.2008H193.945V61.9622H202.612C204.102 61.9622 205.263 61.5775 206.079 60.8002C206.902 60.0308 207.318 58.9318 207.318 57.5186C207.318 56.129 206.91 55.0692 206.079 54.3156ZM204.886 48.6709C205.671 47.9957 206.063 47.038 206.063 45.7819C206.063 44.3687 205.71 43.3717 205.004 42.7986C204.298 42.2255 203.279 41.9351 201.945 41.9351H193.945V49.6758H201.945C203.122 49.6758 204.102 49.3461 204.886 48.6709Z" fill="#5E3B7F"/>
<path d="M216 27.4976H184C179.6 27.4976 176 31.1011 176 35.5053V67.536C176 71.9403 179.6 75.5438 184 75.5438H216C220.4 75.5438 224 71.9403 224 67.5361V35.5053C224 31.1011 220.4 27.4976 216 27.4976ZM211.631 61.232C211.239 62.1898 210.627 63.0141 209.788 63.705C208.949 64.3958 207.882 64.9454 206.573 65.3537C205.263 65.7619 203.71 65.966 201.906 65.966H189.043V37.939H202.651C205.161 37.939 207.176 38.5121 208.69 39.6661C210.204 40.8202 210.965 42.5552 210.965 44.8868C210.965 46.3 210.62 47.5089 209.929 48.5139C209.239 49.5188 208.251 50.3039 206.965 50.8534V50.9319C208.69 51.3009 210 52.1174 210.886 53.3814C211.772 54.6532 212.219 56.239 212.219 58.1545C212.22 59.2536 212.024 60.2821 211.631 61.232Z" fill="#5E3B7F"/>
<path d="M158.438 148V134.909H163.232C164.161 134.909 164.93 135.062 165.54 135.369C166.149 135.672 166.605 136.083 166.908 136.603C167.21 137.119 167.362 137.7 167.362 138.348C167.362 138.893 167.261 139.354 167.061 139.729C166.861 140.099 166.592 140.398 166.256 140.624C165.923 140.845 165.557 141.007 165.156 141.109V141.237C165.591 141.259 166.015 141.399 166.428 141.659C166.846 141.915 167.191 142.279 167.464 142.752C167.737 143.225 167.873 143.8 167.873 144.478C167.873 145.147 167.715 145.748 167.4 146.281C167.089 146.809 166.607 147.229 165.955 147.54C165.303 147.847 164.47 148 163.456 148H158.438ZM160.413 146.306H163.264C164.21 146.306 164.888 146.123 165.297 145.756C165.706 145.39 165.911 144.932 165.911 144.382C165.911 143.969 165.806 143.589 165.597 143.244C165.388 142.899 165.09 142.624 164.702 142.42C164.319 142.215 163.863 142.113 163.335 142.113H160.413V146.306ZM160.413 140.572H163.06C163.503 140.572 163.901 140.487 164.255 140.317C164.613 140.146 164.896 139.908 165.105 139.601C165.318 139.29 165.425 138.923 165.425 138.501C165.425 137.96 165.235 137.506 164.856 137.14C164.477 136.773 163.895 136.59 163.111 136.59H160.413V140.572ZM174.198 148.198C173.277 148.198 172.474 147.987 171.788 147.565C171.102 147.143 170.569 146.553 170.19 145.795C169.811 145.036 169.621 144.15 169.621 143.136C169.621 142.117 169.811 141.227 170.19 140.464C170.569 139.701 171.102 139.109 171.788 138.687C172.474 138.265 173.277 138.054 174.198 138.054C175.118 138.054 175.922 138.265 176.608 138.687C177.294 139.109 177.826 139.701 178.206 140.464C178.585 141.227 178.775 142.117 178.775 143.136C178.775 144.15 178.585 145.036 178.206 145.795C177.826 146.553 177.294 147.143 176.608 147.565C175.922 147.987 175.118 148.198 174.198 148.198ZM174.204 146.594C174.801 146.594 175.295 146.436 175.687 146.121C176.079 145.805 176.369 145.386 176.556 144.862C176.748 144.337 176.844 143.76 176.844 143.129C176.844 142.503 176.748 141.928 176.556 141.403C176.369 140.875 176.079 140.451 175.687 140.131C175.295 139.812 174.801 139.652 174.204 139.652C173.603 139.652 173.105 139.812 172.708 140.131C172.316 140.451 172.025 140.875 171.833 141.403C171.645 141.928 171.551 142.503 171.551 143.129C171.551 143.76 171.645 144.337 171.833 144.862C172.025 145.386 172.316 145.805 172.708 146.121C173.105 146.436 173.603 146.594 174.204 146.594ZM185.044 148.198C184.123 148.198 183.32 147.987 182.634 147.565C181.948 147.143 181.415 146.553 181.036 145.795C180.656 145.036 180.467 144.15 180.467 143.136C180.467 142.117 180.656 141.227 181.036 140.464C181.415 139.701 181.948 139.109 182.634 138.687C183.32 138.265 184.123 138.054 185.044 138.054C185.964 138.054 186.767 138.265 187.453 138.687C188.139 139.109 188.672 139.701 189.051 140.464C189.431 141.227 189.62 142.117 189.62 143.136C189.62 144.15 189.431 145.036 189.051 145.795C188.672 146.553 188.139 147.143 187.453 147.565C186.767 147.987 185.964 148.198 185.044 148.198ZM185.05 146.594C185.646 146.594 186.141 146.436 186.533 146.121C186.925 145.805 187.215 145.386 187.402 144.862C187.594 144.337 187.69 143.76 187.69 143.129C187.69 142.503 187.594 141.928 187.402 141.403C187.215 140.875 186.925 140.451 186.533 140.131C186.141 139.812 185.646 139.652 185.05 139.652C184.449 139.652 183.95 139.812 183.554 140.131C183.162 140.451 182.87 140.875 182.678 141.403C182.491 141.928 182.397 142.503 182.397 143.129C182.397 143.76 182.491 144.337 182.678 144.862C182.87 145.386 183.162 145.805 183.554 146.121C183.95 146.436 184.449 146.594 185.05 146.594ZM196.337 138.182V139.716H190.974V138.182H196.337ZM192.412 135.83H194.323V145.117C194.323 145.488 194.379 145.767 194.489 145.955C194.6 146.138 194.743 146.263 194.918 146.332C195.097 146.396 195.29 146.428 195.499 146.428C195.653 146.428 195.787 146.417 195.902 146.396C196.017 146.374 196.107 146.357 196.17 146.344L196.516 147.923C196.405 147.966 196.247 148.009 196.043 148.051C195.838 148.098 195.582 148.124 195.276 148.128C194.773 148.136 194.304 148.047 193.869 147.859C193.435 147.672 193.083 147.382 192.815 146.99C192.546 146.598 192.412 146.106 192.412 145.513V135.83ZM205.65 140.579L203.918 140.886C203.845 140.664 203.73 140.453 203.572 140.253C203.419 140.053 203.21 139.888 202.946 139.761C202.682 139.633 202.352 139.569 201.955 139.569C201.414 139.569 200.962 139.69 200.6 139.933C200.238 140.172 200.057 140.481 200.057 140.86C200.057 141.188 200.178 141.452 200.421 141.653C200.664 141.853 201.056 142.017 201.597 142.145L203.157 142.503C204.06 142.712 204.734 143.033 205.177 143.468C205.62 143.903 205.842 144.467 205.842 145.162C205.842 145.75 205.671 146.274 205.33 146.734C204.994 147.19 204.523 147.548 203.918 147.808C203.317 148.068 202.62 148.198 201.827 148.198C200.728 148.198 199.831 147.964 199.136 147.495C198.442 147.022 198.016 146.351 197.858 145.482L199.705 145.2C199.82 145.682 200.057 146.046 200.415 146.293C200.773 146.536 201.239 146.658 201.815 146.658C202.441 146.658 202.942 146.528 203.317 146.268C203.692 146.004 203.879 145.682 203.879 145.303C203.879 144.996 203.764 144.738 203.534 144.529C203.308 144.32 202.961 144.163 202.492 144.056L200.83 143.692C199.914 143.483 199.237 143.151 198.798 142.695C198.363 142.239 198.146 141.661 198.146 140.962C198.146 140.383 198.308 139.876 198.631 139.441C198.955 139.006 199.403 138.668 199.974 138.425C200.545 138.178 201.199 138.054 201.936 138.054C202.997 138.054 203.832 138.284 204.442 138.744C205.051 139.2 205.454 139.812 205.65 140.579ZM212.526 138.182V139.716H207.163V138.182H212.526ZM208.601 135.83H210.513V145.117C210.513 145.488 210.568 145.767 210.679 145.955C210.79 146.138 210.932 146.263 211.107 146.332C211.286 146.396 211.48 146.428 211.689 146.428C211.842 146.428 211.976 146.417 212.091 146.396C212.206 146.374 212.296 146.357 212.36 146.344L212.705 147.923C212.594 147.966 212.437 148.009 212.232 148.051C212.028 148.098 211.772 148.124 211.465 148.128C210.962 148.136 210.493 148.047 210.059 147.859C209.624 147.672 209.273 147.382 209.004 146.99C208.736 146.598 208.601 146.106 208.601 145.513V135.83ZM214.64 148V138.182H216.488V139.741H216.59C216.769 139.213 217.084 138.798 217.536 138.495C217.992 138.188 218.507 138.035 219.083 138.035C219.202 138.035 219.343 138.039 219.505 138.048C219.671 138.056 219.801 138.067 219.895 138.08V139.908C219.818 139.886 219.681 139.863 219.485 139.837C219.289 139.808 219.093 139.793 218.897 139.793C218.446 139.793 218.043 139.888 217.689 140.08C217.34 140.268 217.063 140.53 216.858 140.866C216.654 141.199 216.551 141.578 216.551 142.004V148H214.64ZM224.318 148.217C223.696 148.217 223.133 148.102 222.63 147.872C222.127 147.638 221.729 147.299 221.435 146.856C221.145 146.413 221 145.869 221 145.226C221 144.672 221.107 144.216 221.32 143.858C221.533 143.5 221.821 143.217 222.183 143.008C222.545 142.799 222.95 142.641 223.397 142.535C223.845 142.428 224.301 142.347 224.765 142.292C225.353 142.224 225.831 142.168 226.197 142.126C226.564 142.079 226.83 142.004 226.996 141.902C227.162 141.8 227.245 141.634 227.245 141.403V141.359C227.245 140.8 227.088 140.368 226.772 140.061C226.461 139.754 225.997 139.601 225.379 139.601C224.735 139.601 224.228 139.744 223.858 140.029C223.491 140.31 223.238 140.624 223.097 140.969L221.301 140.56C221.514 139.963 221.825 139.482 222.234 139.115C222.647 138.744 223.123 138.476 223.659 138.31C224.196 138.139 224.761 138.054 225.353 138.054C225.745 138.054 226.161 138.101 226.6 138.195C227.043 138.284 227.456 138.45 227.84 138.693C228.228 138.936 228.545 139.283 228.792 139.735C229.039 140.183 229.163 140.764 229.163 141.48V148H227.297V146.658H227.22C227.096 146.905 226.911 147.148 226.664 147.386C226.417 147.625 226.099 147.823 225.711 147.981C225.324 148.138 224.859 148.217 224.318 148.217ZM224.733 146.683C225.262 146.683 225.713 146.579 226.088 146.37C226.468 146.161 226.755 145.888 226.951 145.552C227.152 145.211 227.252 144.847 227.252 144.459V143.193C227.184 143.261 227.051 143.325 226.855 143.385C226.664 143.44 226.444 143.489 226.197 143.532C225.95 143.57 225.709 143.607 225.475 143.641C225.24 143.67 225.044 143.696 224.887 143.717C224.516 143.764 224.177 143.843 223.87 143.954C223.568 144.065 223.325 144.224 223.142 144.433C222.963 144.638 222.873 144.911 222.873 145.251C222.873 145.724 223.048 146.082 223.397 146.325C223.747 146.564 224.192 146.683 224.733 146.683ZM231.709 151.682V138.182H233.575V139.773H233.735C233.846 139.569 234.006 139.332 234.214 139.064C234.423 138.795 234.713 138.561 235.084 138.361C235.454 138.156 235.944 138.054 236.554 138.054C237.346 138.054 238.054 138.254 238.676 138.655C239.298 139.055 239.786 139.633 240.14 140.387C240.498 141.141 240.677 142.049 240.677 143.11C240.677 144.171 240.5 145.081 240.146 145.839C239.792 146.594 239.307 147.175 238.689 147.585C238.071 147.989 237.366 148.192 236.573 148.192C235.976 148.192 235.488 148.092 235.109 147.891C234.734 147.691 234.44 147.457 234.227 147.188C234.014 146.92 233.85 146.681 233.735 146.472H233.62V151.682H231.709ZM233.581 143.091C233.581 143.781 233.682 144.386 233.882 144.906C234.082 145.426 234.372 145.833 234.751 146.127C235.131 146.417 235.595 146.562 236.145 146.562C236.716 146.562 237.193 146.411 237.577 146.108C237.96 145.801 238.25 145.386 238.446 144.862C238.646 144.337 238.746 143.747 238.746 143.091C238.746 142.443 238.648 141.862 238.452 141.346C238.26 140.83 237.971 140.423 237.583 140.125C237.199 139.827 236.72 139.678 236.145 139.678C235.591 139.678 235.122 139.82 234.738 140.106C234.359 140.391 234.072 140.79 233.876 141.301C233.68 141.812 233.581 142.409 233.581 143.091Z" fill="#707070"/>
<path d="M176.29 175.791L172.188 175.521L170.643 171.636L169.098 175.521L165 175.791L168.143 178.463L167.112 182.515L170.643 180.281L174.174 182.515L173.143 178.463L176.29 175.791Z" fill="#F0C722"/>
<path d="M190.968 175.791L186.865 175.521L185.32 171.636L183.775 175.521L179.677 175.791L182.821 178.463L181.789 182.515L185.32 180.281L188.852 182.515L187.82 178.463L190.968 175.791Z" fill="#F0C722"/>
<path d="M205.645 175.791L201.543 175.521L199.998 171.636L198.453 175.521L194.355 175.791L197.498 178.463L196.467 182.515L199.998 180.281L203.529 182.515L202.498 178.463L205.645 175.791Z" fill="#F0C722"/>
<path d="M220.323 175.791L216.22 175.521L214.675 171.636L213.13 175.521L209.032 175.791L212.175 178.463L211.144 182.515L214.675 180.281L218.206 182.515L217.175 178.463L220.323 175.791Z" fill="#F0C722"/>
<path d="M235 175.791L230.898 175.521L229.353 171.636L227.808 175.521L223.71 175.791L226.853 178.463L225.821 182.515L229.353 180.281L232.884 182.515L231.852 178.463L235 175.791Z" fill="#F0C722"/>
<rect x="300" width="100" height="100" rx="50" fill="white"/>
<path d="M330 34.6002L333.644 75.4627L350.024 80.0082L366.36 75.4691L370 34.6002H330Z" fill="#004CE8"/>
<path d="M336.764 72.8607L333.65 37.9418H350V76.5338L336.764 72.8607Z" fill="#0065F4"/>
<path d="M361.655 53.0995L361.206 58.1119H350L347.846 55.6057L350 53.0995H361.655ZM350 42.9543H362.557L362.101 47.9667H350L347.846 45.4605L350 42.9543ZM350 71.3323L347.846 68.6742L350 66.1173L350.022 66.1231L355.599 64.6158L355.955 60.6182H360.982L360.281 68.4883L350.023 71.3387L350 71.3323Z" fill="#EBEBEB"/>
<path d="M360.586 23.4937H354.521V26.0325H358.05V28.5712H354.521V31.11H360.586V23.4937ZM353.308 23.4937H347.243V25.7013H350.772V26.1429H347.243V31.2203H353.308V28.9024H349.779V28.4608H353.308V23.4937ZM346.03 23.4937H339.965V25.7013H343.494V26.1429H339.965V31.2203H346.03V28.9024H342.501V28.4608H346.03V23.4937Z" fill="black"/>
<path d="M343.851 58.1119L344.432 64.6126L350.017 66.1215V71.3363L339.751 68.4883L339.676 67.6415L338.499 54.4455L338.377 53.0995L337.473 42.9543H350.017V47.9667H342.961L343.417 53.0995H350.017V58.1119H343.851Z" fill="white"/>
<path d="M337.311 139.166H335.317C335.24 138.74 335.097 138.365 334.888 138.041C334.68 137.717 334.424 137.442 334.121 137.217C333.819 136.991 333.48 136.82 333.105 136.705C332.734 136.59 332.34 136.533 331.923 136.533C331.168 136.533 330.493 136.722 329.896 137.102C329.304 137.481 328.835 138.037 328.49 138.77C328.149 139.503 327.979 140.398 327.979 141.455C327.979 142.52 328.149 143.419 328.49 144.152C328.835 144.885 329.306 145.439 329.903 145.814C330.499 146.189 331.17 146.376 331.916 146.376C332.33 146.376 332.722 146.321 333.092 146.21C333.467 146.095 333.806 145.927 334.109 145.705C334.411 145.484 334.667 145.213 334.876 144.893C335.089 144.57 335.236 144.199 335.317 143.781L337.311 143.788C337.205 144.431 336.998 145.023 336.691 145.565C336.388 146.102 335.999 146.566 335.521 146.958C335.048 147.346 334.507 147.646 333.898 147.859C333.288 148.072 332.624 148.179 331.903 148.179C330.77 148.179 329.76 147.911 328.874 147.374C327.987 146.832 327.288 146.059 326.777 145.053C326.27 144.048 326.016 142.848 326.016 141.455C326.016 140.057 326.272 138.857 326.783 137.856C327.295 136.85 327.994 136.079 328.88 135.542C329.766 135.001 330.774 134.73 331.903 134.73C332.598 134.73 333.246 134.83 333.847 135.031C334.452 135.227 334.995 135.516 335.477 135.9C335.958 136.279 336.357 136.744 336.672 137.293C336.987 137.839 337.2 138.463 337.311 139.166ZM346.814 138.348C346.746 137.743 346.465 137.274 345.971 136.942C345.476 136.605 344.854 136.437 344.104 136.437C343.567 136.437 343.103 136.522 342.711 136.692C342.319 136.859 342.014 137.089 341.797 137.383C341.584 137.673 341.477 138.003 341.477 138.374C341.477 138.685 341.55 138.953 341.694 139.179C341.844 139.405 342.037 139.594 342.276 139.748C342.519 139.897 342.779 140.023 343.056 140.125C343.333 140.223 343.599 140.304 343.855 140.368L345.133 140.7C345.551 140.803 345.979 140.941 346.418 141.116C346.857 141.29 347.264 141.521 347.639 141.806C348.014 142.092 348.317 142.445 348.547 142.867C348.781 143.289 348.898 143.794 348.898 144.382C348.898 145.124 348.706 145.782 348.323 146.357C347.944 146.933 347.392 147.386 346.667 147.719C345.947 148.051 345.076 148.217 344.053 148.217C343.073 148.217 342.225 148.062 341.509 147.751C340.793 147.44 340.233 146.999 339.828 146.428C339.423 145.852 339.199 145.17 339.157 144.382H341.138C341.177 144.855 341.33 145.249 341.599 145.565C341.871 145.876 342.219 146.108 342.64 146.261C343.067 146.411 343.533 146.485 344.04 146.485C344.599 146.485 345.095 146.398 345.53 146.223C345.969 146.044 346.314 145.797 346.565 145.482C346.817 145.162 346.942 144.789 346.942 144.363C346.942 143.975 346.831 143.658 346.61 143.411C346.393 143.163 346.096 142.959 345.721 142.797C345.351 142.635 344.931 142.492 344.462 142.369L342.915 141.947C341.867 141.661 341.036 141.241 340.422 140.688C339.813 140.134 339.508 139.401 339.508 138.489C339.508 137.734 339.713 137.076 340.122 136.513C340.531 135.951 341.085 135.514 341.784 135.203C342.483 134.888 343.271 134.73 344.149 134.73C345.035 134.73 345.817 134.886 346.495 135.197C347.177 135.508 347.714 135.936 348.106 136.482C348.498 137.023 348.702 137.645 348.719 138.348H346.814ZM358.398 138.348C358.33 137.743 358.049 137.274 357.555 136.942C357.06 136.605 356.438 136.437 355.688 136.437C355.151 136.437 354.687 136.522 354.295 136.692C353.903 136.859 353.598 137.089 353.381 137.383C353.168 137.673 353.061 138.003 353.061 138.374C353.061 138.685 353.134 138.953 353.278 139.179C353.428 139.405 353.621 139.594 353.86 139.748C354.103 139.897 354.363 140.023 354.64 140.125C354.917 140.223 355.183 140.304 355.439 140.368L356.717 140.7C357.135 140.803 357.563 140.941 358.002 141.116C358.441 141.29 358.848 141.521 359.223 141.806C359.598 142.092 359.901 142.445 360.131 142.867C360.365 143.289 360.482 143.794 360.482 144.382C360.482 145.124 360.29 145.782 359.907 146.357C359.528 146.933 358.976 147.386 358.251 147.719C357.531 148.051 356.66 148.217 355.637 148.217C354.657 148.217 353.809 148.062 353.093 147.751C352.377 147.44 351.817 146.999 351.412 146.428C351.007 145.852 350.783 145.17 350.741 144.382H352.722C352.761 144.855 352.914 145.249 353.183 145.565C353.455 145.876 353.803 146.108 354.224 146.261C354.651 146.411 355.117 146.485 355.624 146.485C356.183 146.485 356.679 146.398 357.114 146.223C357.553 146.044 357.898 145.797 358.149 145.482C358.401 145.162 358.526 144.789 358.526 144.363C358.526 143.975 358.415 143.658 358.194 143.411C357.977 143.163 357.68 142.959 357.305 142.797C356.935 142.635 356.515 142.492 356.046 142.369L354.499 141.947C353.451 141.661 352.62 141.241 352.006 140.688C351.397 140.134 351.092 139.401 351.092 138.489C351.092 137.734 351.297 137.076 351.706 136.513C352.115 135.951 352.669 135.514 353.368 135.203C354.067 134.888 354.855 134.73 355.733 134.73C356.619 134.73 357.401 134.886 358.079 135.197C358.761 135.508 359.298 135.936 359.69 136.482C360.082 137.023 360.286 137.645 360.303 138.348H358.398ZM367.221 148.179C366.343 148.179 365.559 148.028 364.869 147.725C364.183 147.423 363.639 147.003 363.239 146.466C362.843 145.925 362.629 145.298 362.6 144.587H364.607C364.632 144.974 364.762 145.311 364.997 145.597C365.235 145.878 365.546 146.095 365.93 146.249C366.313 146.402 366.74 146.479 367.208 146.479C367.724 146.479 368.18 146.389 368.576 146.21C368.977 146.031 369.29 145.782 369.516 145.462C369.742 145.138 369.855 144.766 369.855 144.344C369.855 143.905 369.742 143.519 369.516 143.187C369.294 142.85 368.968 142.586 368.538 142.394C368.112 142.202 367.596 142.107 366.991 142.107H365.885V140.496H366.991C367.477 140.496 367.903 140.408 368.269 140.234C368.64 140.059 368.93 139.816 369.139 139.505C369.347 139.19 369.452 138.821 369.452 138.399C369.452 137.994 369.36 137.643 369.177 137.344C368.998 137.042 368.742 136.805 368.41 136.635C368.082 136.464 367.694 136.379 367.247 136.379C366.82 136.379 366.422 136.458 366.051 136.616C365.685 136.769 365.387 136.991 365.156 137.281C364.926 137.566 364.803 137.909 364.786 138.31H362.874C362.896 137.602 363.105 136.98 363.501 136.443C363.901 135.906 364.43 135.487 365.086 135.184C365.742 134.881 366.471 134.73 367.272 134.73C368.112 134.73 368.836 134.894 369.445 135.222C370.059 135.546 370.532 135.979 370.865 136.52C371.201 137.061 371.367 137.653 371.363 138.297C371.367 139.03 371.163 139.652 370.749 140.163C370.34 140.675 369.795 141.018 369.113 141.192V141.295C369.982 141.427 370.656 141.772 371.133 142.33C371.615 142.888 371.853 143.581 371.849 144.408C371.853 145.128 371.653 145.773 371.248 146.344C370.847 146.915 370.3 147.365 369.605 147.693C368.911 148.017 368.116 148.179 367.221 148.179Z" fill="#707070"/>
<path d="M326.29 175.791L322.188 175.521L320.643 171.636L319.098 175.521L315 175.791L318.143 178.463L317.112 182.515L320.643 180.281L324.174 182.515L323.143 178.463L326.29 175.791Z" fill="#F0C722"/>
<path d="M340.968 175.791L336.865 175.521L335.32 171.636L333.775 175.521L329.677 175.791L332.821 178.463L331.789 182.515L335.32 180.281L338.852 182.515L337.82 178.463L340.968 175.791Z" fill="#F0C722"/>
<path d="M355.645 175.791L351.543 175.521L349.998 171.636L348.453 175.521L344.355 175.791L347.498 178.463L346.467 182.515L349.998 180.281L353.529 182.515L352.498 178.463L355.645 175.791Z" fill="#F0C722"/>
<path d="M370.323 175.791L366.22 175.521L364.675 171.636L363.13 175.521L359.032 175.791L362.175 178.463L361.144 182.515L364.675 180.281L368.206 182.515L367.175 178.463L370.323 175.791Z" fill="#F0C722"/>
<path d="M385 175.791L380.898 175.521L379.353 171.636L377.808 175.521L373.71 175.791L376.853 178.463L375.821 182.515L379.353 180.281L382.884 182.515L381.852 178.463L385 175.791Z" fill="#F0C722"/>
<rect x="450" width="100" height="100" rx="50" fill="white"/>
<path d="M475.526 134.909H477.495V144.19C477.495 145.03 477.329 145.748 476.996 146.344C476.668 146.941 476.206 147.397 475.609 147.712C475.013 148.023 474.314 148.179 473.513 148.179C472.776 148.179 472.113 148.045 471.525 147.776C470.941 147.508 470.479 147.118 470.138 146.607C469.801 146.091 469.633 145.464 469.633 144.727H471.595C471.595 145.089 471.678 145.403 471.844 145.667C472.015 145.931 472.247 146.138 472.541 146.287C472.839 146.432 473.18 146.504 473.564 146.504C473.982 146.504 474.335 146.417 474.625 146.242C474.919 146.063 475.143 145.801 475.296 145.456C475.45 145.111 475.526 144.689 475.526 144.19V134.909ZM485.183 143.756H487.126L488.494 145.539L489.14 146.332L491.319 149.176H489.3L487.842 147.278L487.344 146.587L485.183 143.756ZM491.741 141.455C491.741 142.852 491.486 144.054 490.974 145.06C490.463 146.061 489.762 146.832 488.871 147.374C487.985 147.911 486.977 148.179 485.848 148.179C484.714 148.179 483.702 147.911 482.812 147.374C481.925 146.832 481.226 146.059 480.715 145.053C480.204 144.048 479.948 142.848 479.948 141.455C479.948 140.057 480.204 138.857 480.715 137.856C481.226 136.85 481.925 136.079 482.812 135.542C483.702 135.001 484.714 134.73 485.848 134.73C486.977 134.73 487.985 135.001 488.871 135.542C489.762 136.079 490.463 136.85 490.974 137.856C491.486 138.857 491.741 140.057 491.741 141.455ZM489.785 141.455C489.785 140.389 489.613 139.492 489.268 138.763C488.927 138.031 488.458 137.477 487.861 137.102C487.269 136.722 486.598 136.533 485.848 136.533C485.094 136.533 484.42 136.722 483.828 137.102C483.236 137.477 482.767 138.031 482.422 138.763C482.081 139.492 481.91 140.389 481.91 141.455C481.91 142.52 482.081 143.419 482.422 144.152C482.767 144.881 483.236 145.435 483.828 145.814C484.42 146.189 485.094 146.376 485.848 146.376C486.598 146.376 487.269 146.189 487.861 145.814C488.458 145.435 488.927 144.881 489.268 144.152C489.613 143.419 489.785 142.52 489.785 141.455ZM500.27 143.928V138.182H502.188V148H500.308V146.3H500.206C499.98 146.824 499.618 147.261 499.119 147.61C498.625 147.955 498.009 148.128 497.272 148.128C496.641 148.128 496.083 147.989 495.597 147.712C495.116 147.431 494.737 147.016 494.46 146.466C494.187 145.916 494.05 145.237 494.05 144.427V138.182H495.962V144.197C495.962 144.866 496.147 145.398 496.518 145.795C496.888 146.191 497.37 146.389 497.962 146.389C498.32 146.389 498.676 146.3 499.03 146.121C499.388 145.942 499.684 145.671 499.918 145.309C500.157 144.947 500.274 144.487 500.27 143.928ZM508.987 148.198C508.02 148.198 507.187 147.991 506.488 147.578C505.793 147.161 505.256 146.575 504.877 145.82C504.502 145.062 504.314 144.173 504.314 143.155C504.314 142.149 504.502 141.263 504.877 140.496C505.256 139.729 505.785 139.13 506.462 138.7C507.144 138.269 507.941 138.054 508.853 138.054C509.407 138.054 509.944 138.146 510.464 138.329C510.983 138.512 511.45 138.8 511.863 139.192C512.277 139.584 512.603 140.093 512.841 140.719C513.08 141.342 513.199 142.098 513.199 142.989V143.666H505.395V142.234H511.327C511.327 141.732 511.224 141.286 511.02 140.898C510.815 140.506 510.528 140.197 510.157 139.972C509.79 139.746 509.36 139.633 508.866 139.633C508.329 139.633 507.86 139.765 507.459 140.029C507.063 140.289 506.756 140.63 506.539 141.052C506.326 141.469 506.219 141.923 506.219 142.413V143.532C506.219 144.188 506.334 144.746 506.564 145.207C506.799 145.667 507.125 146.018 507.542 146.261C507.96 146.5 508.448 146.619 509.006 146.619C509.368 146.619 509.699 146.568 509.997 146.466C510.295 146.359 510.553 146.202 510.77 145.993C510.988 145.784 511.154 145.526 511.269 145.219L513.078 145.545C512.933 146.078 512.673 146.545 512.298 146.945C511.927 147.342 511.461 147.651 510.898 147.872C510.34 148.089 509.703 148.198 508.987 148.198ZM515.32 148V138.182H517.167V139.741H517.27C517.449 139.213 517.764 138.798 518.216 138.495C518.672 138.188 519.187 138.035 519.762 138.035C519.882 138.035 520.022 138.039 520.184 138.048C520.35 138.056 520.48 138.067 520.574 138.08V139.908C520.498 139.886 520.361 139.863 520.165 139.837C519.969 139.808 519.773 139.793 519.577 139.793C519.125 139.793 518.723 139.888 518.369 140.08C518.02 140.268 517.743 140.53 517.538 140.866C517.333 141.199 517.231 141.578 517.231 142.004V148H515.32ZM523.735 151.682C523.45 151.682 523.19 151.658 522.955 151.612C522.721 151.569 522.546 151.522 522.431 151.471L522.891 149.905C523.241 149.999 523.552 150.039 523.825 150.026C524.097 150.013 524.338 149.911 524.547 149.719C524.76 149.528 524.947 149.214 525.109 148.78L525.346 148.128L521.754 138.182H523.799L526.286 145.801H526.388L528.874 138.182H530.926L526.88 149.31C526.692 149.822 526.454 150.254 526.164 150.608C525.874 150.966 525.529 151.234 525.129 151.413C524.728 151.592 524.263 151.682 523.735 151.682Z" fill="#707070"/>
<path d="M476.29 175.791L472.188 175.521L470.643 171.636L469.098 175.521L465 175.791L468.143 178.463L467.112 182.515L470.643 180.281L474.174 182.515L473.143 178.463L476.29 175.791Z" fill="#F0C722"/>
<path d="M490.968 175.791L486.865 175.521L485.32 171.636L483.775 175.521L479.677 175.791L482.821 178.463L481.789 182.515L485.32 180.281L488.852 182.515L487.82 178.463L490.968 175.791Z" fill="#F0C722"/>
<path d="M505.645 175.791L501.543 175.521L499.998 171.636L498.453 175.521L494.355 175.791L497.498 178.463L496.467 182.515L499.998 180.281L503.529 182.515L502.498 178.463L505.645 175.791Z" fill="#F0C722"/>
<path d="M520.323 175.791L516.22 175.521L514.675 171.636L513.13 175.521L509.032 175.791L512.175 178.463L511.144 182.515L514.675 180.281L518.206 182.515L517.175 178.463L520.323 175.791Z" fill="#F0C722"/>
<path d="M535 175.791L530.898 175.521L529.353 171.636L527.808 175.521L523.71 175.791L526.853 178.463L525.821 182.515L529.353 180.281L532.884 182.515L531.852 178.463L535 175.791Z" fill="#F0C722"/>
<path fill-rule="evenodd" clip-rule="evenodd" d="M484.077 24.267C482.926 24.267 482 25.3664 482 26.7227V77.092C482 78.4433 482.929 79.5477 484.077 79.5477H515.231C516.382 79.5477 517.308 78.4482 517.308 77.092V41.4451C517.308 40.7676 516.981 39.8322 516.573 39.3494L504.558 25.1361C504.152 24.6558 503.355 24.267 502.79 24.267H484.077Z" fill="#F5E1B6"/>
<path fill-rule="evenodd" clip-rule="evenodd" d="M504.279 40.0385C504.447 40.1685 504.644 40.2374 504.845 40.2369H516.269C516.545 40.2369 516.809 40.3663 517.004 40.5967C517.198 40.8271 517.308 41.1396 517.308 41.4654V55.4514L504.279 40.0385Z" fill="#EDD5AA"/>
<path fill-rule="evenodd" clip-rule="evenodd" d="M516.269 40.2369H504.845C504.709 40.237 504.573 40.2052 504.447 40.1432C504.321 40.0813 504.206 39.9904 504.11 39.8759C504.014 39.7614 503.937 39.6255 503.885 39.476C503.834 39.3265 503.807 39.1664 503.808 39.0048V25.4954C503.808 25.1696 503.698 24.8571 503.504 24.6267C503.309 24.3964 503.045 24.2669 502.769 24.2669C503.355 24.2669 504.152 24.6557 504.558 25.1361L516.573 39.3494C516.981 39.8321 517.308 40.7682 517.308 41.4451C517.308 40.7867 516.843 40.2369 516.269 40.2369Z" fill="#FFEEC8"/>
<path fill-rule="evenodd" clip-rule="evenodd" d="M504.327 40.0735C504.017 39.8616 503.808 39.4642 503.808 39.0048V25.4954C503.808 25.1696 503.698 24.8571 503.504 24.6267C503.309 24.3964 503.045 24.2669 502.769 24.2669C503.257 24.2669 503.894 24.5378 504.327 24.9064V31.9577V40.0735Z" fill="#FFF4DE"/>
<path fill-rule="evenodd" clip-rule="evenodd" d="M510.824 39.6227H516.785C517.097 40.1345 517.325 40.8868 517.325 41.4636C517.325 41.1381 517.216 40.8259 517.021 40.5958C516.826 40.3656 516.562 40.2363 516.287 40.2363H504.867C504.669 40.2363 504.484 40.1719 504.327 40.0602V39.6227H510.824Z" fill="#E8D3A9"/>
<path fill-rule="evenodd" clip-rule="evenodd" d="M516.079 79.3351C515.812 79.4757 515.523 79.5481 515.231 79.5477H484.077C482.929 79.5477 482 78.4433 482 77.092V39.0214L516.079 79.3351Z" fill="#F2DBAE"/>
<path fill-rule="evenodd" clip-rule="evenodd" d="M517.308 41.4556V77.092C517.308 77.4147 517.255 77.7342 517.15 78.0324C517.046 78.3306 516.893 78.6015 516.7 78.8296C516.507 79.0577 516.278 79.2385 516.026 79.3618C515.774 79.485 515.504 79.5482 515.231 79.5477H484.077C482.929 79.5477 482 78.4433 482 77.092V26.7226C482 26.4 482.053 26.0804 482.158 25.7822C482.262 25.484 482.415 25.2132 482.608 24.985C482.801 24.7569 483.03 24.5761 483.282 24.4529C483.534 24.3296 483.804 24.2665 484.077 24.2669H502.775H502.769C502.952 24.2669 503.131 24.3237 503.289 24.4315C503.446 24.5393 503.578 24.6944 503.669 24.8812H484.081C483.667 24.8812 483.27 25.0755 482.977 25.4215C482.684 25.7675 482.52 26.2368 482.519 26.7263V77.0883C482.52 77.5778 482.684 78.0471 482.977 78.3931C483.27 78.7391 483.667 78.9334 484.081 78.9334H515.227C515.641 78.9334 516.038 78.7391 516.331 78.3931C516.624 78.0471 516.788 77.5778 516.789 77.0883V40.4015C516.947 40.5094 517.078 40.6644 517.169 40.8512C517.26 41.0379 517.308 41.2498 517.308 41.4654V41.4556Z" fill="#F2DBAE"/>
<path fill-rule="evenodd" clip-rule="evenodd" d="M492.719 50.2261C492.51 50.3385 492.323 50.4988 492.167 50.6979C491.993 50.9231 491.855 51.1844 491.761 51.4687C491.656 51.774 491.602 52.1309 491.602 52.5283V55.882C491.602 56.194 491.566 56.4864 491.495 56.7511C491.424 57.0146 491.329 57.2425 491.213 57.4274C491.106 57.6018 490.97 57.7479 490.813 57.8561C490.672 57.9533 490.513 58.0052 490.35 58.0066H490.308V59.3591H490.35C490.508 59.3591 490.664 59.4064 490.813 59.5004C490.97 59.6017 491.106 59.7417 491.213 59.9107C491.329 60.0895 491.424 60.3137 491.495 60.5772C491.566 60.8413 491.602 61.1404 491.602 61.4647V64.8C491.602 65.1974 491.656 65.5536 491.761 65.8595C491.866 66.1648 492.003 66.4246 492.167 66.6304C492.331 66.8368 492.517 66.9952 492.718 67.1021C492.921 67.209 493.126 67.2631 493.328 67.2631H494.462V66.0579H493.64C493.495 66.0579 493.378 66.0149 493.292 65.9314C493.199 65.836 493.125 65.7161 493.078 65.5813C493.02 65.4211 492.982 65.2519 492.964 65.0789C492.944 64.8945 492.933 64.7089 492.933 64.523V61.1693C492.933 60.6988 492.877 60.3014 492.767 59.99C492.656 59.6792 492.525 59.423 492.377 59.2289C492.228 59.0348 492.074 58.8911 491.919 58.8033C491.824 58.7462 491.724 58.7009 491.62 58.6681C491.915 58.5466 492.176 58.3336 492.377 58.0514C492.525 57.8518 492.656 57.5969 492.766 57.2923C492.877 56.9864 492.934 56.6111 492.934 56.1762V52.8041C492.934 52.6094 492.944 52.4165 492.965 52.2304C492.984 52.0461 493.022 51.8803 493.078 51.7378C493.132 51.5983 493.204 51.4835 493.292 51.3963C493.378 51.3121 493.495 51.2697 493.64 51.2697H494.462V50.0646H493.328C493.126 50.0646 492.921 50.1193 492.719 50.2261ZM508.958 58.0066C508.796 58.0057 508.637 57.9571 508.494 57.8653C508.336 57.7626 508.2 57.6193 508.095 57.4458C507.97 57.2405 507.875 57.0122 507.813 56.7702C507.739 56.4824 507.703 56.1828 507.706 55.882V52.5283C507.706 52.1315 507.652 51.7752 507.547 51.4687C507.452 51.1846 507.315 50.9233 507.141 50.6979C506.985 50.4989 506.798 50.3386 506.589 50.2261C506.398 50.122 506.19 50.067 505.98 50.0646H504.846V51.2697H505.668C505.813 51.2697 505.929 51.3127 506.015 51.3963C506.103 51.4822 506.175 51.6008 506.23 51.7464C506.285 51.895 506.323 52.0639 506.344 52.2488C506.364 52.4374 506.374 52.637 506.374 52.8409V56.1762C506.374 56.6473 506.43 57.0447 506.541 57.3561C506.652 57.6675 506.783 57.9237 506.93 58.1166C507.079 58.3113 507.233 58.4544 507.388 58.5422C507.503 58.6079 507.603 58.6534 507.688 58.6773C507.393 58.799 507.132 59.012 506.931 59.294C506.783 59.4937 506.652 59.7486 506.542 60.0532C506.43 60.3597 506.374 60.735 506.374 61.1693V64.523C506.374 64.7152 506.364 64.9081 506.343 65.0973C506.324 65.2815 506.285 65.4474 506.23 65.5887C506.181 65.7205 506.108 65.8377 506.016 65.9314C505.93 66.0156 505.813 66.0579 505.668 66.0579H504.846V67.2631H505.98C506.182 67.2631 506.387 67.2084 506.589 67.1015C506.798 66.9892 506.986 66.8289 507.141 66.6298C507.305 66.4234 507.441 66.1642 507.547 65.8589C507.652 65.553 507.706 65.1962 507.706 64.7994V61.4641C507.706 61.1515 507.743 60.8622 507.813 60.6042C507.884 60.3468 507.979 60.1226 508.095 59.9371C508.21 59.7529 508.345 59.6091 508.495 59.5084C508.644 59.4089 508.8 59.3585 508.958 59.3585H509V58.0066H508.958Z" fill="#6997B5"/>
<path fill-rule="evenodd" clip-rule="evenodd" d="M495.5 62.9611C495.775 62.9611 496.04 62.8318 496.234 62.6016C496.429 62.3715 496.539 62.0593 496.539 61.7338C496.539 61.4083 496.429 61.0962 496.234 60.866C496.04 60.6358 495.775 60.5065 495.5 60.5065C495.225 60.5065 494.961 60.6358 494.766 60.866C494.571 61.0962 494.462 61.4083 494.462 61.7338C494.462 62.0593 494.571 62.3715 494.766 62.6016C494.961 62.8318 495.225 62.9611 495.5 62.9611ZM499.654 62.9611C499.929 62.9611 500.194 62.8318 500.388 62.6016C500.583 62.3715 500.692 62.0593 500.692 61.7338C500.692 61.4083 500.583 61.0962 500.388 60.866C500.194 60.6358 499.929 60.5065 499.654 60.5065C499.379 60.5065 499.114 60.6358 498.92 60.866C498.725 61.0962 498.615 61.4083 498.615 61.7338C498.615 62.0593 498.725 62.3715 498.92 62.6016C499.114 62.8318 499.379 62.9611 499.654 62.9611ZM503.808 62.9611C504.083 62.9611 504.347 62.8318 504.542 62.6016C504.737 62.3715 504.846 62.0593 504.846 61.7338C504.846 61.4083 504.737 61.0962 504.542 60.866C504.347 60.6358 504.083 60.5065 503.808 60.5065C503.532 60.5065 503.268 60.6358 503.074 60.866C502.879 61.0962 502.769 61.4083 502.769 61.7338C502.769 62.0593 502.879 62.3715 503.074 62.6016C503.268 62.8318 503.532 62.9611 503.808 62.9611Z" fill="#716F6B"/>
<rect x="600" width="100" height="100" rx="50" fill="white"/>
<path d="M634.578 138.348C634.51 137.743 634.229 137.274 633.734 136.942C633.24 136.605 632.618 136.437 631.868 136.437C631.331 136.437 630.866 136.522 630.474 136.692C630.082 136.859 629.778 137.089 629.56 137.383C629.347 137.673 629.241 138.003 629.241 138.374C629.241 138.685 629.313 138.953 629.458 139.179C629.607 139.405 629.801 139.594 630.04 139.748C630.283 139.897 630.543 140.023 630.82 140.125C631.097 140.223 631.363 140.304 631.619 140.368L632.897 140.7C633.315 140.803 633.743 140.941 634.182 141.116C634.621 141.29 635.028 141.521 635.403 141.806C635.778 142.092 636.08 142.445 636.31 142.867C636.545 143.289 636.662 143.794 636.662 144.382C636.662 145.124 636.47 145.782 636.087 146.357C635.707 146.933 635.156 147.386 634.431 147.719C633.711 148.051 632.839 148.217 631.817 148.217C630.837 148.217 629.989 148.062 629.273 147.751C628.557 147.44 627.996 146.999 627.592 146.428C627.187 145.852 626.963 145.17 626.92 144.382H628.902C628.94 144.855 629.094 145.249 629.362 145.565C629.635 145.876 629.982 146.108 630.404 146.261C630.83 146.411 631.297 146.485 631.804 146.485C632.362 146.485 632.859 146.398 633.293 146.223C633.732 146.044 634.077 145.797 634.329 145.482C634.58 145.162 634.706 144.789 634.706 144.363C634.706 143.975 634.595 143.658 634.374 143.411C634.156 143.163 633.86 142.959 633.485 142.797C633.114 142.635 632.695 142.492 632.226 142.369L630.679 141.947C629.631 141.661 628.8 141.241 628.186 140.688C627.577 140.134 627.272 139.401 627.272 138.489C627.272 137.734 627.477 137.076 627.886 136.513C628.295 135.951 628.849 135.514 629.548 135.203C630.246 134.888 631.035 134.73 631.913 134.73C632.799 134.73 633.581 134.886 634.259 135.197C634.94 135.508 635.477 135.936 635.869 136.482C636.261 137.023 636.466 137.645 636.483 138.348H634.578ZM640.023 148H637.926L642.637 134.909H644.919L649.63 148H647.533L643.832 137.287H643.73L640.023 148ZM640.374 142.874H647.175V144.536H640.374V142.874ZM658.555 138.348C658.487 137.743 658.205 137.274 657.711 136.942C657.217 136.605 656.594 136.437 655.844 136.437C655.308 136.437 654.843 136.522 654.451 136.692C654.059 136.859 653.754 137.089 653.537 137.383C653.324 137.673 653.217 138.003 653.217 138.374C653.217 138.685 653.29 138.953 653.435 139.179C653.584 139.405 653.778 139.594 654.016 139.748C654.259 139.897 654.519 140.023 654.796 140.125C655.073 140.223 655.339 140.304 655.595 140.368L656.874 140.7C657.291 140.803 657.719 140.941 658.158 141.116C658.597 141.29 659.004 141.521 659.379 141.806C659.754 142.092 660.057 142.445 660.287 142.867C660.521 143.289 660.638 143.794 660.638 144.382C660.638 145.124 660.447 145.782 660.063 146.357C659.684 146.933 659.132 147.386 658.408 147.719C657.688 148.051 656.816 148.217 655.793 148.217C654.813 148.217 653.965 148.062 653.249 147.751C652.533 147.44 651.973 146.999 651.568 146.428C651.163 145.852 650.94 145.17 650.897 144.382H652.879C652.917 144.855 653.07 145.249 653.339 145.565C653.612 145.876 653.959 146.108 654.381 146.261C654.807 146.411 655.273 146.485 655.781 146.485C656.339 146.485 656.835 146.398 657.27 146.223C657.709 146.044 658.054 145.797 658.305 145.482C658.557 145.162 658.683 144.789 658.683 144.363C658.683 143.975 658.572 143.658 658.35 143.411C658.133 143.163 657.837 142.959 657.462 142.797C657.091 142.635 656.671 142.492 656.202 142.369L654.656 141.947C653.607 141.661 652.776 141.241 652.163 140.688C651.553 140.134 651.249 139.401 651.249 138.489C651.249 137.734 651.453 137.076 651.862 136.513C652.271 135.951 652.825 135.514 653.524 135.203C654.223 134.888 655.011 134.73 655.889 134.73C656.776 134.73 657.558 134.886 658.235 135.197C658.917 135.508 659.454 135.936 659.846 136.482C660.238 137.023 660.442 137.645 660.46 138.348H658.555ZM670.139 138.348C670.07 137.743 669.789 137.274 669.295 136.942C668.801 136.605 668.178 136.437 667.428 136.437C666.892 136.437 666.427 136.522 666.035 136.692C665.643 136.859 665.338 137.089 665.121 137.383C664.908 137.673 664.801 138.003 664.801 138.374C664.801 138.685 664.874 138.953 665.019 139.179C665.168 139.405 665.362 139.594 665.6 139.748C665.843 139.897 666.103 140.023 666.38 140.125C666.657 140.223 666.923 140.304 667.179 140.368L668.458 140.7C668.875 140.803 669.303 140.941 669.742 141.116C670.181 141.29 670.588 141.521 670.963 141.806C671.338 142.092 671.641 142.445 671.871 142.867C672.105 143.289 672.222 143.794 672.222 144.382C672.222 145.124 672.031 145.782 671.647 146.357C671.268 146.933 670.716 147.386 669.992 147.719C669.271 148.051 668.4 148.217 667.377 148.217C666.397 148.217 665.549 148.062 664.833 147.751C664.117 147.44 663.557 146.999 663.152 146.428C662.747 145.852 662.524 145.17 662.481 144.382H664.463C664.501 144.855 664.654 145.249 664.923 145.565C665.195 145.876 665.543 146.108 665.965 146.261C666.391 146.411 666.857 146.485 667.365 146.485C667.923 146.485 668.419 146.398 668.854 146.223C669.293 146.044 669.638 145.797 669.889 145.482C670.141 145.162 670.267 144.789 670.267 144.363C670.267 143.975 670.156 143.658 669.934 143.411C669.717 143.163 669.421 142.959 669.046 142.797C668.675 142.635 668.255 142.492 667.786 142.369L666.24 141.947C665.191 141.661 664.36 141.241 663.747 140.688C663.137 140.134 662.833 139.401 662.833 138.489C662.833 137.734 663.037 137.076 663.446 136.513C663.855 135.951 664.409 135.514 665.108 135.203C665.807 134.888 666.595 134.73 667.473 134.73C668.36 134.73 669.142 134.886 669.819 135.197C670.501 135.508 671.038 135.936 671.43 136.482C671.822 137.023 672.026 137.645 672.044 138.348H670.139Z" fill="#707070"/>
<path d="M626.29 175.791L622.188 175.521L620.643 171.636L619.098 175.521L615 175.791L618.143 178.463L617.112 182.515L620.643 180.281L624.174 182.515L623.143 178.463L626.29 175.791Z" fill="#F0C722"/>
<path d="M640.968 175.791L636.865 175.521L635.32 171.636L633.775 175.521L629.677 175.791L632.821 178.463L631.789 182.515L635.32 180.281L638.852 182.515L637.82 178.463L640.968 175.791Z" fill="#F0C722"/>
<path d="M655.645 175.791L651.543 175.521L649.998 171.636L648.453 175.521L644.355 175.791L647.498 178.463L646.467 182.515L649.998 180.281L653.529 182.515L652.498 178.463L655.645 175.791Z" fill="#F0C722"/>
<path d="M670.323 175.791L666.22 175.521L664.675 171.636L663.13 175.521L659.032 175.791L662.175 178.463L661.144 182.515L664.675 180.281L668.206 182.515L667.175 178.463L670.323 175.791Z" fill="#F0C722"/>
<path d="M685 175.791L680.898 175.521L679.353 171.636L677.808 175.521L673.71 175.791L676.853 178.463L675.821 182.515L679.353 180.281L682.884 182.515L681.852 178.463L685 175.791Z" fill="#F0C722"/>
<path d="M674 51.5207C674 52.263 673.967 52.9964 673.9 53.7211C673.849 54.2903 673.777 54.8575 673.685 55.4213C671.823 66.8337 661.928 75.5438 650 75.5438C643.925 75.5438 638.377 73.2847 634.149 69.5586C632.583 68.1799 631.203 66.6034 630.043 64.8687C627.489 61.0515 626 56.4597 626 51.5207C626 38.2531 636.745 27.4976 650 27.4976C663.255 27.4976 674 38.2531 674 51.5207Z" fill="#F2F2F2"/>
<path d="M667.884 54.2397C667.157 54.5152 667.186 54.5201 666.801 53.8181C666.309 52.9239 666.048 51.9835 666.025 50.9608C666.006 50.0833 666.246 49.2675 666.548 48.4673C666.789 47.831 666.476 47.6064 665.925 47.5485C665.524 47.5073 665.111 47.5113 664.709 47.5525C663.665 47.6594 663.562 47.7495 663.285 48.7644C663.121 49.3665 662.989 49.9735 662.716 50.545C662.042 51.9521 661.276 53.3072 660.49 54.6525C660.349 54.8947 660.233 55.1555 660.034 55.3624C659.465 54.5093 659.25 53.5671 659.202 52.5786C659.154 51.603 659.453 50.696 659.781 49.7988C659.892 49.4968 659.8 49.3095 659.539 49.1791C659.424 49.1213 659.294 49.0673 659.168 49.0575C658.498 49.0046 657.83 49.0123 657.176 49.1957C656.882 49.2771 656.69 49.4419 656.625 49.7723C656.497 50.4185 656.298 51.0483 656.03 51.65C655.286 53.3228 654.546 54.9985 653.803 56.6723C653.156 58.1265 652.519 59.5845 651.753 60.9808C651.699 61.0798 651.654 61.2515 651.519 61.2171C651.382 61.1828 651.43 61.0141 651.424 60.8984C651.38 60.0748 651.604 59.2894 651.795 58.503C652.098 57.2586 652.429 56.0202 652.751 54.7799C652.843 54.4239 652.688 54.1846 652.393 54.014C651.969 53.7699 651.547 53.7581 651.087 54.1003C651.15 53.5943 651.177 53.1501 651.156 52.706C651.107 51.7157 650.648 51.0715 649.85 50.9224C649.267 50.8135 648.716 50.9832 648.194 51.2303C646.98 51.8059 646.003 52.6736 645.182 53.7267C645.086 53.8492 644.989 53.962 644.85 54.0375C643.309 54.8778 641.769 55.7182 640.232 56.5663C640.064 56.6604 639.955 56.634 639.834 56.5035C639.06 55.673 638.162 54.9876 637.272 54.2925C636.029 53.3198 634.743 52.3981 633.67 51.2254C633.043 50.539 632.52 49.7869 632.258 48.879C631.831 47.3944 632.151 46.0119 632.862 44.698C633.703 43.1439 634.951 41.9437 636.328 40.8749C638.513 39.1785 640.91 37.8313 643.437 36.7224C646.266 35.482 649.201 34.6829 652.326 34.8034C653.565 34.8515 654.766 35.0662 655.87 35.6731C656.65 36.1027 657.167 36.7233 657.313 37.6342C657.485 38.701 657.229 39.6865 656.756 40.621C655.699 42.7085 654.019 44.1872 652.033 45.3452C650.38 46.309 648.596 46.9209 646.708 47.2415C645.665 47.4189 644.618 47.5258 643.569 47.366C642.365 47.1827 641.252 46.7797 640.428 45.8089C640.333 45.6972 640.213 45.6196 640.051 45.6981C639.885 45.7785 639.898 45.9256 639.914 46.0668C639.926 46.1638 639.952 46.2619 639.986 46.3541C640.207 46.9494 640.619 47.3984 641.102 47.7906C642.358 48.8133 643.846 49.1134 645.408 49.1438C646.938 49.1742 648.443 48.9801 649.933 48.6232C653.294 47.8192 656.11 46.1689 658.165 43.341C659.393 41.6506 660.171 39.7876 660.102 37.6559C660.058 36.3038 659.604 35.1094 658.619 34.1388C657.449 32.9866 655.996 32.4071 654.437 32.0591C652.701 31.6727 650.948 31.6178 649.177 31.8296C647.636 32.0139 646.13 32.3297 644.665 32.8347C642.423 33.6083 640.257 34.5584 638.184 35.7135C636.06 36.896 634.059 38.2502 632.303 39.9464C630.75 41.4476 629.415 43.1038 628.662 45.1599C628.341 46.0404 628.11 46.9455 628.325 47.8976C628.602 49.1233 629.205 50.1842 629.999 51.1412C631.199 52.5905 632.671 53.7318 634.189 54.8221C635.409 55.6987 636.685 56.4969 637.857 57.4391C638.189 57.7058 638.187 57.7058 637.796 57.9107C637.34 58.149 636.878 58.3784 636.43 58.6324C634.62 59.6562 632.872 60.7661 631.445 62.3086C630.742 63.0685 630.265 63.9216 630.043 64.8687C631.203 66.6034 632.583 68.1799 634.149 69.5586C636.815 69.3507 638.855 67.9623 640.363 65.6659C641.091 64.5569 641.432 63.3019 641.56 61.9781C641.673 60.8113 641.554 59.6816 641.211 58.5677C641.151 58.3716 640.929 58.1765 641.016 58.0039C641.097 57.8451 641.342 57.7646 641.523 57.6608C642.249 57.2381 642.978 56.8214 643.727 56.391C643.759 56.5518 643.696 56.646 643.669 56.7479C643.24 58.3236 642.941 59.9121 643.267 61.5496C643.47 62.5693 643.808 63.5292 644.451 64.3735C645.112 65.2423 646.588 65.1432 647.188 64.35C647.757 63.5969 648.134 62.7477 648.527 61.9025C648.742 61.4397 648.94 60.9691 649.146 60.5013C649.108 61.0641 649.11 61.6132 649.13 62.1604C649.151 62.6997 649.237 63.2321 649.517 63.7087C649.854 64.2813 650.488 64.448 651.077 64.142C651.698 63.8194 652.121 63.288 652.45 62.7114C653.862 60.2317 655.171 57.6989 656.256 55.0544C656.487 54.4926 656.724 53.9317 656.986 53.3071C657.026 53.5121 657.052 53.6375 657.077 53.7631C657.318 55.0231 657.747 56.2154 658.368 57.3362C658.501 57.5764 658.486 57.7421 658.318 57.9725C657.746 58.752 657.119 59.4855 656.501 60.2267C655.981 60.8504 655.426 61.4466 654.987 62.1329C654.593 62.7506 654.82 63.383 655.475 63.5233C655.677 63.5665 655.889 63.5793 656.096 63.5763C657.241 63.5626 658.298 63.2203 659.283 62.6594C660.608 61.9035 661.394 60.7954 661.358 59.2178C661.341 58.5 661.147 57.8107 660.858 57.1527C660.794 57.0066 660.791 56.9007 660.886 56.7635C661.804 55.4475 662.615 54.068 663.361 52.6482C663.493 52.3982 663.586 52.1206 663.8 51.8765C663.828 51.9755 663.851 52.0374 663.863 52.1011C664.1 53.2778 664.42 54.4279 665.019 55.478C665.184 55.7654 665.102 55.9114 664.874 56.1036C664.092 56.7694 663.431 57.5459 662.913 58.4353C662.51 59.1276 662.233 59.8668 662.236 60.6778C662.239 61.5799 662.929 62.1113 663.808 61.8995C664.723 61.6798 665.573 61.3063 666.335 60.7484C667.995 59.5316 668.482 58.248 667.962 56.4566C667.758 55.7516 667.762 55.7634 668.468 55.5496C670.013 55.0829 671.58 55.0633 673.156 55.3202C673.334 55.3496 673.51 55.383 673.685 55.4212C673.778 54.8573 673.849 54.2901 673.9 53.7209C671.885 53.2278 669.873 53.4837 667.884 54.2397ZM635.242 66.8543C634.795 67.0132 634.329 67.0808 633.853 67.0436C633.261 66.9964 632.885 66.5778 632.846 65.9483C632.803 65.2227 633.018 64.5677 633.335 63.9303C633.912 62.7733 634.881 61.9879 635.869 61.2172C636.83 60.4671 637.863 59.8268 638.907 59.2041C639.223 59.0159 639.228 59.0179 639.301 59.3954C639.395 59.8798 639.479 60.3651 639.448 60.8054C639.53 63.4459 637.614 66.0139 635.242 66.8543ZM649.621 53.5396C649.454 54.6525 649.091 55.7124 648.704 56.7596C648.177 58.1893 647.664 59.6257 647 61.0004C646.849 61.3171 646.689 61.6319 646.443 61.8898C646.211 62.1339 646.005 62.1055 645.845 61.8074C645.531 61.2249 645.57 60.5768 645.519 60.1061C645.534 57.745 646.326 55.8153 647.629 54.0808C647.994 53.5974 648.459 53.2042 649.075 53.0463C649.494 52.9396 649.686 53.1082 649.621 53.5396ZM658.751 60.5298C658.304 61.3025 657.66 61.8643 656.871 62.2644C656.787 62.3065 656.678 62.381 656.601 62.282C656.529 62.1888 656.646 62.1271 656.698 62.0682C657.483 61.2103 658.258 60.3454 658.956 59.4149C658.967 59.4002 658.994 59.3982 659.053 59.3728C659.047 59.8033 658.952 60.1818 658.751 60.5298ZM664.169 60.4965C664.052 60.5514 663.917 60.6544 663.803 60.5661C663.678 60.4691 663.728 60.2975 663.766 60.1661C663.945 59.567 664.185 58.9934 664.516 58.459C664.794 58.0089 665.139 57.6157 665.518 57.249C665.67 57.1019 665.739 57.1196 665.791 57.3314C665.845 57.5481 665.85 57.7647 665.854 57.9853C665.844 59.1924 665.232 59.9955 664.169 60.4965Z" fill="#CD6699"/>
<rect x="750" width="100" height="100" rx="50" fill="white"/>
<path d="M769.544 148H767.447L772.158 134.909H774.44L779.151 148H777.055L773.354 137.287H773.251L769.544 148ZM769.896 142.874H776.697V144.536H769.896V142.874ZM782.8 142.17V148H780.888V138.182H782.723V139.78H782.844C783.07 139.26 783.424 138.842 783.905 138.527C784.391 138.212 785.003 138.054 785.74 138.054C786.409 138.054 786.995 138.195 787.498 138.476C788.001 138.753 788.39 139.166 788.667 139.716C788.944 140.266 789.083 140.945 789.083 141.755V148H787.172V141.985C787.172 141.273 786.986 140.717 786.616 140.317C786.245 139.912 785.736 139.71 785.088 139.71C784.645 139.71 784.251 139.805 783.905 139.997C783.564 140.189 783.294 140.47 783.094 140.841C782.898 141.207 782.8 141.651 782.8 142.17ZM795.763 151.886C794.983 151.886 794.312 151.784 793.749 151.58C793.191 151.375 792.735 151.104 792.381 150.768C792.028 150.431 791.763 150.063 791.589 149.662L793.231 148.984C793.346 149.172 793.5 149.37 793.692 149.579C793.888 149.792 794.152 149.973 794.484 150.122C794.821 150.271 795.253 150.346 795.782 150.346C796.506 150.346 797.105 150.169 797.578 149.815C798.051 149.466 798.287 148.908 798.287 148.141V146.21H798.166C798.051 146.419 797.885 146.651 797.667 146.907C797.454 147.163 797.16 147.384 796.785 147.572C796.41 147.759 795.922 147.853 795.322 147.853C794.546 147.853 793.847 147.672 793.225 147.31C792.607 146.943 792.117 146.404 791.755 145.692C791.397 144.977 791.218 144.097 791.218 143.053C791.218 142.009 791.395 141.114 791.748 140.368C792.106 139.622 792.596 139.051 793.219 138.655C793.841 138.254 794.546 138.054 795.334 138.054C795.944 138.054 796.436 138.156 796.811 138.361C797.186 138.561 797.478 138.795 797.687 139.064C797.9 139.332 798.064 139.569 798.179 139.773H798.319V138.182H800.192V148.217C800.192 149.061 799.996 149.754 799.604 150.295C799.212 150.836 798.682 151.237 798.013 151.496C797.348 151.756 796.598 151.886 795.763 151.886ZM795.743 146.268C796.293 146.268 796.758 146.14 797.137 145.884C797.52 145.624 797.81 145.254 798.006 144.772C798.206 144.286 798.307 143.705 798.307 143.027C798.307 142.366 798.209 141.785 798.013 141.282C797.817 140.779 797.529 140.387 797.15 140.106C796.77 139.82 796.302 139.678 795.743 139.678C795.168 139.678 794.689 139.827 794.305 140.125C793.922 140.419 793.632 140.82 793.436 141.327C793.244 141.834 793.148 142.401 793.148 143.027C793.148 143.67 793.246 144.235 793.442 144.721C793.638 145.207 793.928 145.586 794.312 145.859C794.699 146.131 795.177 146.268 795.743 146.268ZM808.975 143.928V138.182H810.893V148H809.013V146.3H808.911C808.685 146.824 808.323 147.261 807.824 147.61C807.33 147.955 806.714 148.128 805.977 148.128C805.346 148.128 804.788 147.989 804.302 147.712C803.821 147.431 803.442 147.016 803.165 146.466C802.892 145.916 802.756 145.237 802.756 144.427V138.182H804.667V144.197C804.667 144.866 804.852 145.398 805.223 145.795C805.594 146.191 806.075 146.389 806.667 146.389C807.025 146.389 807.381 146.3 807.735 146.121C808.093 145.942 808.389 145.671 808.623 145.309C808.862 144.947 808.979 144.487 808.975 143.928ZM815.372 134.909V148H813.461V134.909H815.372ZM820.8 148.217C820.178 148.217 819.616 148.102 819.113 147.872C818.61 147.638 818.211 147.299 817.917 146.856C817.628 146.413 817.483 145.869 817.483 145.226C817.483 144.672 817.589 144.216 817.802 143.858C818.015 143.5 818.303 143.217 818.665 143.008C819.028 142.799 819.432 142.641 819.88 142.535C820.327 142.428 820.783 142.347 821.248 142.292C821.836 142.224 822.313 142.168 822.68 142.126C823.046 142.079 823.312 142.004 823.479 141.902C823.645 141.8 823.728 141.634 823.728 141.403V141.359C823.728 140.8 823.57 140.368 823.255 140.061C822.944 139.754 822.479 139.601 821.861 139.601C821.218 139.601 820.711 139.744 820.34 140.029C819.974 140.31 819.72 140.624 819.579 140.969L817.783 140.56C817.996 139.963 818.307 139.482 818.716 139.115C819.13 138.744 819.605 138.476 820.142 138.31C820.679 138.139 821.243 138.054 821.836 138.054C822.228 138.054 822.643 138.101 823.082 138.195C823.525 138.284 823.939 138.45 824.322 138.693C824.71 138.936 825.028 139.283 825.275 139.735C825.522 140.183 825.645 140.764 825.645 141.48V148H823.779V146.658H823.702C823.579 146.905 823.393 147.148 823.146 147.386C822.899 147.625 822.581 147.823 822.194 147.981C821.806 148.138 821.341 148.217 820.8 148.217ZM821.216 146.683C821.744 146.683 822.196 146.579 822.571 146.37C822.95 146.161 823.238 145.888 823.434 145.552C823.634 145.211 823.734 144.847 823.734 144.459V143.193C823.666 143.261 823.534 143.325 823.338 143.385C823.146 143.44 822.927 143.489 822.68 143.532C822.432 143.57 822.192 143.607 821.957 143.641C821.723 143.67 821.527 143.696 821.369 143.717C820.998 143.764 820.66 143.843 820.353 143.954C820.05 144.065 819.807 144.224 819.624 144.433C819.445 144.638 819.356 144.911 819.356 145.251C819.356 145.724 819.53 146.082 819.88 146.325C820.229 146.564 820.675 146.683 821.216 146.683ZM828.191 148V138.182H830.038V139.741H830.141C830.32 139.213 830.635 138.798 831.087 138.495C831.543 138.188 832.058 138.035 832.634 138.035C832.753 138.035 832.893 138.039 833.055 138.048C833.222 138.056 833.352 138.067 833.445 138.08V139.908C833.369 139.886 833.232 139.863 833.036 139.837C832.84 139.808 832.644 139.793 832.448 139.793C831.996 139.793 831.594 139.888 831.24 140.08C830.891 140.268 830.614 140.53 830.409 140.866C830.205 141.199 830.102 141.578 830.102 142.004V148H828.191Z" fill="#707070"/>
<path d="M776.29 175.791L772.188 175.521L770.643 171.636L769.098 175.521L765 175.791L768.143 178.463L767.112 182.515L770.643 180.281L774.174 182.515L773.143 178.463L776.29 175.791Z" fill="#F0C722"/>
<path d="M790.968 175.791L786.865 175.521L785.32 171.636L783.775 175.521L779.677 175.791L782.821 178.463L781.789 182.515L785.32 180.281L788.852 182.515L787.82 178.463L790.968 175.791Z" fill="#F0C722"/>
<path d="M805.645 175.791L801.543 175.521L799.998 171.636L798.453 175.521L794.355 175.791L797.498 178.463L796.467 182.515L799.998 180.281L803.529 182.515L802.498 178.463L805.645 175.791Z" fill="#F0C722"/>
<path d="M820.323 175.791L816.22 175.521L814.675 171.636L813.13 175.521L809.032 175.791L812.175 178.463L811.144 182.515L814.675 180.281L818.206 182.515L817.175 178.463L820.323 175.791Z" fill="#F0C722"/>
<path d="M835 175.791L830.898 175.521L829.353 171.636L827.808 175.521L823.71 175.791L826.853 178.463L825.821 182.515L829.353 180.281L832.884 182.515L831.852 178.463L835 175.791Z" fill="#F0C722"/>
<path d="M799.767 26.5598L776 34.8274L779.756 65.6063L799.792 76.4913L819.932 65.4587L823.686 34.681L799.767 26.5598Z" fill="#B3B3B3"/>
<path d="M821.316 36.4598L799.711 29.1777V73.8907L817.817 63.9863L821.316 36.4598Z" fill="#A6120D"/>
<path d="M778.667 36.5911L781.885 64.1179L799.711 73.8907V29.1769L778.667 36.5909L778.667 36.5911Z" fill="#DD1B16"/>
<path d="M805.658 52.9806L799.711 55.7295H793.443L790.497 63.0141L785.017 63.1141L799.711 30.8015L805.658 52.9808V52.9806ZM805.083 51.5967L799.751 41.1618L795.377 51.4171H799.711L805.083 51.5969V51.5967Z" fill="#F2F2F2"/>
<path d="M799.711 30.8012L799.751 41.1618L804.714 51.425H799.723L799.711 55.7228L806.613 55.7293L809.839 63.1152L815.083 63.2112L799.711 30.8012Z" fill="#B3B3B3"/>
</svg>
