<svg width="700" height="183" viewBox="0 0 700 183" fill="none" xmlns="http://www.w3.org/2000/svg">
<path d="M11.5263 134.909H13.495V144.19C13.495 145.03 13.3288 145.748 12.9964 146.344C12.6683 146.941 12.206 147.397 11.6094 147.712C11.0128 148.023 10.3139 148.179 9.51278 148.179C8.77557 148.179 8.11293 148.045 7.52486 147.776C6.94105 147.508 6.47869 147.118 6.13778 146.607C5.80114 146.091 5.63281 145.464 5.63281 144.727H7.59517C7.59517 145.089 7.67827 145.403 7.84446 145.667C8.01491 145.931 8.24716 146.138 8.54119 146.287C8.83949 146.432 9.1804 146.504 9.56392 146.504C9.98153 146.504 10.3352 146.417 10.625 146.242C10.919 146.063 11.1428 145.801 11.2962 145.456C11.4496 145.111 11.5263 144.689 11.5263 144.19V134.909ZM19.0737 148.217C18.4515 148.217 17.889 148.102 17.3862 147.872C16.8833 147.638 16.4849 147.299 16.1909 146.856C15.9011 146.413 15.7562 145.869 15.7562 145.226C15.7562 144.672 15.8627 144.216 16.0758 143.858C16.2889 143.5 16.5765 143.217 16.9387 143.008C17.301 142.799 17.7058 142.641 18.1532 142.535C18.6007 142.428 19.0566 142.347 19.5211 142.292C20.1092 142.224 20.5865 142.168 20.9529 142.126C21.3194 142.079 21.5858 142.004 21.752 141.902C21.9181 141.8 22.0012 141.634 22.0012 141.403V141.359C22.0012 140.8 21.8436 140.368 21.5282 140.061C21.2172 139.754 20.7527 139.601 20.1348 139.601C19.4913 139.601 18.9842 139.744 18.6135 140.029C18.247 140.31 17.9934 140.624 17.8528 140.969L16.0566 140.56C16.2697 139.963 16.5808 139.482 16.9899 139.115C17.4032 138.744 17.8784 138.476 18.4153 138.31C18.9522 138.139 19.5169 138.054 20.1092 138.054C20.5012 138.054 20.9167 138.101 21.3556 138.195C21.7988 138.284 22.2122 138.45 22.5957 138.693C22.9835 138.936 23.301 139.283 23.5481 139.735C23.7953 140.183 23.9189 140.764 23.9189 141.48V148H22.0524V146.658H21.9757C21.8521 146.905 21.6667 147.148 21.4196 147.386C21.1724 147.625 20.8549 147.823 20.4672 147.981C20.0794 148.138 19.6149 148.217 19.0737 148.217ZM19.4892 146.683C20.0176 146.683 20.4693 146.579 20.8443 146.37C21.2235 146.161 21.5112 145.888 21.7072 145.552C21.9075 145.211 22.0076 144.847 22.0076 144.459V143.193C21.9395 143.261 21.8074 143.325 21.6113 143.385C21.4196 143.44 21.2001 143.489 20.9529 143.532C20.7058 143.57 20.465 143.607 20.2306 143.641C19.9963 143.67 19.8002 143.696 19.6426 143.717C19.2718 143.764 18.9331 143.843 18.6262 143.954C18.3237 144.065 18.0808 144.224 17.8975 144.433C17.7186 144.638 17.6291 144.911 17.6291 145.251C17.6291 145.724 17.8038 146.082 18.1532 146.325C18.5027 146.564 18.948 146.683 19.4892 146.683ZM34.5121 138.182L30.9517 148H28.9062L25.3395 138.182H27.3913L29.8778 145.737H29.9801L32.4602 138.182H34.5121ZM38.8842 148.217C38.2621 148.217 37.6996 148.102 37.1967 147.872C36.6939 147.638 36.2955 147.299 36.0014 146.856C35.7116 146.413 35.5668 145.869 35.5668 145.226C35.5668 144.672 35.6733 144.216 35.8864 143.858C36.0994 143.5 36.3871 143.217 36.7493 143.008C37.1115 142.799 37.5163 142.641 37.9638 142.535C38.4112 142.428 38.8672 142.347 39.3317 142.292C39.9197 142.224 40.397 142.168 40.7635 142.126C41.13 142.079 41.3963 142.004 41.5625 141.902C41.7287 141.8 41.8118 141.634 41.8118 141.403V141.359C41.8118 140.8 41.6541 140.368 41.3388 140.061C41.0277 139.754 40.5632 139.601 39.9453 139.601C39.3018 139.601 38.7947 139.744 38.424 140.029C38.0575 140.31 37.804 140.624 37.6634 140.969L35.8672 140.56C36.0803 139.963 36.3913 139.482 36.8004 139.115C37.2138 138.744 37.6889 138.476 38.2259 138.31C38.7628 138.139 39.3274 138.054 39.9197 138.054C40.3118 138.054 40.7273 138.101 41.1662 138.195C41.6094 138.284 42.0227 138.45 42.4062 138.693C42.794 138.936 43.1115 139.283 43.3587 139.735C43.6058 140.183 43.7294 140.764 43.7294 141.48V148H41.8629V146.658H41.7862C41.6626 146.905 41.4773 147.148 41.2301 147.386C40.983 147.625 40.6655 147.823 40.2777 147.981C39.8899 148.138 39.4254 148.217 38.8842 148.217ZM39.2997 146.683C39.8281 146.683 40.2798 146.579 40.6548 146.37C41.0341 146.161 41.3217 145.888 41.5178 145.552C41.718 145.211 41.8182 144.847 41.8182 144.459V143.193C41.75 143.261 41.6179 143.325 41.4219 143.385C41.2301 143.44 41.0107 143.489 40.7635 143.532C40.5163 143.57 40.2756 143.607 40.0412 143.641C39.8068 143.67 39.6108 143.696 39.4531 143.717C39.0824 143.764 38.7436 143.843 38.4368 143.954C38.1342 144.065 37.8913 144.224 37.7081 144.433C37.5291 144.638 37.4396 144.911 37.4396 145.251C37.4396 145.724 37.6143 146.082 37.9638 146.325C38.3132 146.564 38.7585 146.683 39.2997 146.683ZM53.5684 138.348C53.5002 137.743 53.2189 137.274 52.7246 136.942C52.2303 136.605 51.6081 136.437 50.8581 136.437C50.3212 136.437 49.8567 136.522 49.4647 136.692C49.0726 136.859 48.7679 137.089 48.5506 137.383C48.3375 137.673 48.231 138.003 48.231 138.374C48.231 138.685 48.3034 138.953 48.4483 139.179C48.5975 139.405 48.7914 139.594 49.03 139.748C49.2729 139.897 49.5328 140.023 49.8098 140.125C50.0868 140.223 50.3532 140.304 50.6088 140.368L51.8873 140.7C52.3049 140.803 52.7331 140.941 53.1721 141.116C53.611 141.29 54.0179 141.521 54.3929 141.806C54.7679 142.092 55.0705 142.445 55.3006 142.867C55.535 143.289 55.6522 143.794 55.6522 144.382C55.6522 145.124 55.4604 145.782 55.0769 146.357C54.6976 146.933 54.1458 147.386 53.4213 147.719C52.7012 148.051 51.8297 148.217 50.807 148.217C49.8269 148.217 48.9789 148.062 48.263 147.751C47.5471 147.44 46.9867 146.999 46.5819 146.428C46.177 145.852 45.9533 145.17 45.9107 144.382H47.8922C47.9306 144.855 48.084 145.249 48.3525 145.565C48.6252 145.876 48.9725 146.108 49.3944 146.261C49.8205 146.411 50.2871 146.485 50.7942 146.485C51.3525 146.485 51.8489 146.398 52.2836 146.223C52.7225 146.044 53.0676 145.797 53.3191 145.482C53.5705 145.162 53.6962 144.789 53.6962 144.363C53.6962 143.975 53.5854 143.658 53.3638 143.411C53.1465 143.163 52.8503 142.959 52.4753 142.797C52.1046 142.635 51.6848 142.492 51.2161 142.369L49.6692 141.947C48.6209 141.661 47.79 141.241 47.1763 140.688C46.5669 140.134 46.2623 139.401 46.2623 138.489C46.2623 137.734 46.4668 137.076 46.8759 136.513C47.285 135.951 47.839 135.514 48.5378 135.203C49.2367 134.888 50.025 134.73 50.9029 134.73C51.7892 134.73 52.5712 134.886 53.2488 135.197C53.9306 135.508 54.4675 135.936 54.8596 136.482C55.2516 137.023 55.4561 137.645 55.4732 138.348H53.5684ZM61.9947 148.198C61.0444 148.198 60.2262 147.983 59.5401 147.553C58.8583 147.118 58.3342 146.519 57.9677 145.756C57.6012 144.994 57.418 144.12 57.418 143.136C57.418 142.138 57.6055 141.259 57.9805 140.496C58.3555 139.729 58.8839 139.13 59.5657 138.7C60.2475 138.269 61.0508 138.054 61.9755 138.054C62.7212 138.054 63.386 138.192 63.9698 138.469C64.5536 138.742 65.0245 139.126 65.3825 139.62C65.7447 140.114 65.9599 140.692 66.0281 141.352H64.168C64.0657 140.892 63.8313 140.496 63.4648 140.163C63.1026 139.831 62.6168 139.665 62.0075 139.665C61.4748 139.665 61.0082 139.805 60.6076 140.087C60.2113 140.364 59.9023 140.76 59.6808 141.276C59.4592 141.787 59.3484 142.392 59.3484 143.091C59.3484 143.807 59.457 144.425 59.6744 144.945C59.8917 145.464 60.1985 145.867 60.5948 146.153C60.9954 146.438 61.4663 146.581 62.0075 146.581C62.3697 146.581 62.6978 146.515 62.9918 146.383C63.2901 146.246 63.5394 146.053 63.7397 145.801C63.9442 145.55 64.087 145.247 64.168 144.893H66.0281C65.9599 145.528 65.7532 146.095 65.408 146.594C65.0629 147.092 64.6005 147.484 64.021 147.77C63.4457 148.055 62.7702 148.198 61.9947 148.198ZM68.0719 148V138.182H69.9192V139.741H70.0215C70.2005 139.213 70.5158 138.798 70.9675 138.495C71.4235 138.188 71.9391 138.035 72.5144 138.035C72.6337 138.035 72.7743 138.039 72.9363 138.048C73.1025 138.056 73.2324 138.067 73.3262 138.08V139.908C73.2495 139.886 73.1131 139.863 72.9171 139.837C72.7211 139.808 72.525 139.793 72.329 139.793C71.8773 139.793 71.4746 139.888 71.1209 140.08C70.7715 140.268 70.4945 140.53 70.29 140.866C70.0854 141.199 69.9831 141.578 69.9831 142.004V148H68.0719ZM74.9801 148V138.182H76.8913V148H74.9801ZM75.9453 136.667C75.6129 136.667 75.3274 136.556 75.0888 136.335C74.8544 136.109 74.7372 135.84 74.7372 135.529C74.7372 135.214 74.8544 134.945 75.0888 134.724C75.3274 134.498 75.6129 134.385 75.9453 134.385C76.2777 134.385 76.5611 134.498 76.7955 134.724C77.0341 134.945 77.1534 135.214 77.1534 135.529C77.1534 135.84 77.0341 136.109 76.7955 136.335C76.5611 136.556 76.2777 136.667 75.9453 136.667ZM79.4625 151.682V138.182H81.329V139.773H81.4888C81.5996 139.569 81.7594 139.332 81.9682 139.064C82.177 138.795 82.4668 138.561 82.8375 138.361C83.2083 138.156 83.6983 138.054 84.3077 138.054C85.1003 138.054 85.8077 138.254 86.4299 138.655C87.052 139.055 87.54 139.633 87.8936 140.387C88.2516 141.141 88.4306 142.049 88.4306 143.11C88.4306 144.171 88.2537 145.081 87.9 145.839C87.5463 146.594 87.0605 147.175 86.4426 147.585C85.8248 147.989 85.1195 148.192 84.3269 148.192C83.7303 148.192 83.2424 148.092 82.8631 147.891C82.4881 147.691 82.1941 147.457 81.981 147.188C81.7679 146.92 81.6039 146.681 81.4888 146.472H81.3738V151.682H79.4625ZM81.3354 143.091C81.3354 143.781 81.4355 144.386 81.6358 144.906C81.8361 145.426 82.1259 145.833 82.5051 146.127C82.8844 146.417 83.3489 146.562 83.8986 146.562C84.4696 146.562 84.9469 146.411 85.3304 146.108C85.714 145.801 86.0037 145.386 86.1998 144.862C86.4 144.337 86.5002 143.747 86.5002 143.091C86.5002 142.443 86.4022 141.862 86.2061 141.346C86.0144 140.83 85.7246 140.423 85.3368 140.125C84.9533 139.827 84.4739 139.678 83.8986 139.678C83.3446 139.678 82.8759 139.82 82.4924 140.106C82.1131 140.391 81.8255 140.79 81.6294 141.301C81.4334 141.812 81.3354 142.409 81.3354 143.091ZM95.155 138.182V139.716H89.7921V138.182H95.155ZM91.2303 135.83H93.1415V145.117C93.1415 145.488 93.1969 145.767 93.3077 145.955C93.4185 146.138 93.5613 146.263 93.736 146.332C93.915 146.396 94.1088 146.428 94.3176 146.428C94.4711 146.428 94.6053 146.417 94.7203 146.396C94.8354 146.374 94.9249 146.357 94.9888 146.344L95.334 147.923C95.2232 147.966 95.0655 148.009 94.861 148.051C94.6564 148.098 94.4007 148.124 94.0939 148.128C93.5911 148.136 93.1223 148.047 92.6877 147.859C92.253 147.672 91.9015 147.382 91.633 146.99C91.3645 146.598 91.2303 146.106 91.2303 145.513V135.83Z" fill="#707070"/>
<rect width="100" height="100" rx="50" fill="white"/>
<path d="M26.2903 176.023L22.1879 175.753L20.6429 171.868L19.0979 175.753L15 176.023L18.1431 178.695L17.1117 182.747L20.6429 180.513L24.1742 182.747L23.1428 178.695L26.2903 176.023Z" fill="#F0C722"/>
<path d="M40.9678 176.023L36.8653 175.753L35.3203 171.868L33.7754 175.753L29.6774 176.023L32.8205 178.695L31.7891 182.747L35.3203 180.513L38.8516 182.747L37.8202 178.695L40.9678 176.023Z" fill="#F0C722"/>
<path d="M55.6452 176.023L51.5428 175.753L49.9978 171.868L48.4528 175.753L44.3549 176.023L47.4979 178.695L46.4665 182.747L49.9978 180.513L53.529 182.747L52.4976 178.695L55.6452 176.023Z" fill="#F0C722"/>
<path d="M70.3225 176.023L66.2201 175.753L64.6751 171.868L63.1302 175.753L59.0322 176.023L62.1753 178.695L61.1439 182.747L64.6751 180.513L68.2064 182.747L67.175 178.695L70.3225 176.023Z" fill="#F0C722"/>
<path d="M85 176.023L80.8976 175.753L79.3526 171.868L77.8076 175.753L73.7097 176.023L76.8528 178.695L75.8214 182.747L79.3526 180.513L82.8838 182.747L81.8525 178.695L85 176.023Z" fill="#F0C722"/>
<path d="M30 31.7334H70V71.7719H30V31.7334Z" fill="#F0DB4F"/>
<path d="M66.7262 62.2228C66.4335 60.3959 65.2433 58.8621 61.7186 57.4311C60.4943 56.8678 59.1293 56.4644 58.7224 55.5358C58.5779 54.9953 58.5589 54.6908 58.6502 54.3635C58.9125 53.3017 60.1787 52.9706 61.1825 53.275C61.8289 53.492 62.4411 53.9906 62.8099 54.786C64.5361 53.6671 64.5323 53.6747 65.7376 52.9059C65.2966 52.2208 65.0608 51.9049 64.7719 51.6119C63.7338 50.4511 62.3194 49.8535 60.057 49.8992C59.6654 49.9487 59.27 50.0019 58.8783 50.0514C57.7491 50.3369 56.673 50.9306 56.0418 51.726C54.1483 53.8764 54.6882 57.6404 56.9924 59.1895C59.2624 60.8946 62.597 61.2828 63.0228 62.8775C63.4373 64.8299 61.5894 65.4616 59.7528 65.2371C58.3992 64.9555 57.6464 64.2666 56.8327 63.0145C55.3346 63.8822 55.3346 63.8822 53.7947 64.769C54.1597 65.5682 54.5437 65.9298 55.1559 66.6225C58.0533 69.5645 65.3042 69.4199 66.6046 64.9669C66.6578 64.8146 67.0076 63.7946 66.7262 62.2228ZM51.7452 50.1351H48.0038C48.0038 53.3702 47.9886 56.5824 47.9886 59.8174C47.9886 61.8765 48.0951 63.7642 47.7605 64.3427C47.213 65.4806 45.7947 65.3399 45.1483 65.1191C44.4905 64.7956 44.1559 64.335 43.7681 63.6843C43.6616 63.4978 43.5818 63.3532 43.5551 63.3417C42.54 63.9621 41.5285 64.5862 40.5133 65.2066C41.019 66.2457 41.7643 67.1477 42.7186 67.7338C44.1445 68.5901 46.0608 68.8527 48.0647 68.3922C49.3689 68.0116 50.4943 67.2238 51.0836 66.0249C51.9354 64.4531 51.7528 62.5501 51.7452 60.4454C51.7643 57.0125 51.7452 53.5795 51.7452 50.1351Z" fill="#323330"/>
<path d="M151.793 136.609V134.909H161.924V136.609H157.839V148H155.871V136.609H151.793ZM164.093 151.682C163.807 151.682 163.547 151.658 163.313 151.612C163.078 151.569 162.904 151.522 162.789 151.471L163.249 149.905C163.598 149.999 163.909 150.039 164.182 150.026C164.455 150.013 164.695 149.911 164.904 149.719C165.117 149.528 165.305 149.214 165.467 148.78L165.703 148.128L162.111 138.182H164.156L166.643 145.801H166.745L169.232 138.182H171.284L167.237 149.31C167.05 149.822 166.811 150.254 166.521 150.608C166.232 150.966 165.887 151.234 165.486 151.413C165.085 151.592 164.621 151.682 164.093 151.682ZM173.08 151.682V138.182H174.946V139.773H175.106C175.217 139.569 175.377 139.332 175.585 139.064C175.794 138.795 176.084 138.561 176.455 138.361C176.825 138.156 177.316 138.054 177.925 138.054C178.718 138.054 179.425 138.254 180.047 138.655C180.669 139.055 181.157 139.633 181.511 140.387C181.869 141.141 182.048 142.049 182.048 143.11C182.048 144.171 181.871 145.081 181.517 145.839C181.164 146.594 180.678 147.175 180.06 147.585C179.442 147.989 178.737 148.192 177.944 148.192C177.347 148.192 176.86 148.092 176.48 147.891C176.105 147.691 175.811 147.457 175.598 147.188C175.385 146.92 175.221 146.681 175.106 146.472H174.991V151.682H173.08ZM174.953 143.091C174.953 143.781 175.053 144.386 175.253 144.906C175.453 145.426 175.743 145.833 176.122 146.127C176.502 146.417 176.966 146.562 177.516 146.562C178.087 146.562 178.564 146.411 178.948 146.108C179.331 145.801 179.621 145.386 179.817 144.862C180.017 144.337 180.117 143.747 180.117 143.091C180.117 142.443 180.019 141.862 179.823 141.346C179.632 140.83 179.342 140.423 178.954 140.125C178.57 139.827 178.091 139.678 177.516 139.678C176.962 139.678 176.493 139.82 176.11 140.106C175.73 140.391 175.443 140.79 175.247 141.301C175.051 141.812 174.953 142.409 174.953 143.091ZM188.421 148.198C187.453 148.198 186.62 147.991 185.921 147.578C185.227 147.161 184.69 146.575 184.311 145.82C183.936 145.062 183.748 144.173 183.748 143.155C183.748 142.149 183.936 141.263 184.311 140.496C184.69 139.729 185.218 139.13 185.896 138.7C186.578 138.269 187.374 138.054 188.286 138.054C188.84 138.054 189.377 138.146 189.897 138.329C190.417 138.512 190.884 138.8 191.297 139.192C191.71 139.584 192.036 140.093 192.275 140.719C192.514 141.342 192.633 142.098 192.633 142.989V143.666H184.828V142.234H190.76C190.76 141.732 190.658 141.286 190.453 140.898C190.249 140.506 189.961 140.197 189.59 139.972C189.224 139.746 188.794 139.633 188.299 139.633C187.762 139.633 187.294 139.765 186.893 140.029C186.497 140.289 186.19 140.63 185.972 141.052C185.759 141.469 185.653 141.923 185.653 142.413V143.532C185.653 144.188 185.768 144.746 185.998 145.207C186.232 145.667 186.558 146.018 186.976 146.261C187.394 146.5 187.882 146.619 188.44 146.619C188.802 146.619 189.132 146.568 189.431 146.466C189.729 146.359 189.987 146.202 190.204 145.993C190.421 145.784 190.588 145.526 190.703 145.219L192.512 145.545C192.367 146.078 192.107 146.545 191.732 146.945C191.361 147.342 190.894 147.651 190.332 147.872C189.774 148.089 189.137 148.198 188.421 148.198ZM206.811 138.348C206.742 137.743 206.461 137.274 205.967 136.942C205.472 136.605 204.85 136.437 204.1 136.437C203.563 136.437 203.099 136.522 202.707 136.692C202.315 136.859 202.01 137.089 201.793 137.383C201.58 137.673 201.473 138.003 201.473 138.374C201.473 138.685 201.546 138.953 201.691 139.179C201.84 139.405 202.034 139.594 202.272 139.748C202.515 139.897 202.775 140.023 203.052 140.125C203.329 140.223 203.595 140.304 203.851 140.368L205.129 140.7C205.547 140.803 205.975 140.941 206.414 141.116C206.853 141.29 207.26 141.521 207.635 141.806C208.01 142.092 208.313 142.445 208.543 142.867C208.777 143.289 208.894 143.794 208.894 144.382C208.894 145.124 208.703 145.782 208.319 146.357C207.94 146.933 207.388 147.386 206.664 147.719C205.943 148.051 205.072 148.217 204.049 148.217C203.069 148.217 202.221 148.062 201.505 147.751C200.789 147.44 200.229 146.999 199.824 146.428C199.419 145.852 199.195 145.17 199.153 144.382H201.134C201.173 144.855 201.326 145.249 201.595 145.565C201.867 145.876 202.215 146.108 202.637 146.261C203.063 146.411 203.529 146.485 204.036 146.485C204.595 146.485 205.091 146.398 205.526 146.223C205.965 146.044 206.31 145.797 206.561 145.482C206.813 145.162 206.938 144.789 206.938 144.363C206.938 143.975 206.828 143.658 206.606 143.411C206.389 143.163 206.093 142.959 205.718 142.797C205.347 142.635 204.927 142.492 204.458 142.369L202.911 141.947C201.863 141.661 201.032 141.241 200.419 140.688C199.809 140.134 199.504 139.401 199.504 138.489C199.504 137.734 199.709 137.076 200.118 136.513C200.527 135.951 201.081 135.514 201.78 135.203C202.479 134.888 203.267 134.73 204.145 134.73C205.031 134.73 205.813 134.886 206.491 135.197C207.173 135.508 207.71 135.936 208.102 136.482C208.494 137.023 208.698 137.645 208.715 138.348H206.811ZM215.237 148.198C214.287 148.198 213.468 147.983 212.782 147.553C212.1 147.118 211.576 146.519 211.21 145.756C210.843 144.994 210.66 144.12 210.66 143.136C210.66 142.138 210.848 141.259 211.223 140.496C211.598 139.729 212.126 139.13 212.808 138.7C213.49 138.269 214.293 138.054 215.218 138.054C215.963 138.054 216.628 138.192 217.212 138.469C217.796 138.742 218.267 139.126 218.625 139.62C218.987 140.114 219.202 140.692 219.27 141.352H217.41C217.308 140.892 217.074 140.496 216.707 140.163C216.345 139.831 215.859 139.665 215.25 139.665C214.717 139.665 214.25 139.805 213.85 140.087C213.453 140.364 213.145 140.76 212.923 141.276C212.701 141.787 212.591 142.392 212.591 143.091C212.591 143.807 212.699 144.425 212.917 144.945C213.134 145.464 213.441 145.867 213.837 146.153C214.238 146.438 214.708 146.581 215.25 146.581C215.612 146.581 215.94 146.515 216.234 146.383C216.532 146.246 216.782 146.053 216.982 145.801C217.186 145.55 217.329 145.247 217.41 144.893H219.27C219.202 145.528 218.995 146.095 218.65 146.594C218.305 147.092 217.843 147.484 217.263 147.77C216.688 148.055 216.012 148.198 215.237 148.198ZM221.314 148V138.182H223.161V139.741H223.264C223.443 139.213 223.758 138.798 224.21 138.495C224.666 138.188 225.181 138.035 225.757 138.035C225.876 138.035 226.017 138.039 226.178 138.048C226.345 138.056 226.475 138.067 226.568 138.08V139.908C226.492 139.886 226.355 139.863 226.159 139.837C225.963 139.808 225.767 139.793 225.571 139.793C225.119 139.793 224.717 139.888 224.363 140.08C224.014 140.268 223.737 140.53 223.532 140.866C223.328 141.199 223.225 141.578 223.225 142.004V148H221.314ZM228.222 148V138.182H230.134V148H228.222ZM229.188 136.667C228.855 136.667 228.57 136.556 228.331 136.335C228.097 136.109 227.979 135.84 227.979 135.529C227.979 135.214 228.097 134.945 228.331 134.724C228.57 134.498 228.855 134.385 229.188 134.385C229.52 134.385 229.803 134.498 230.038 134.724C230.276 134.945 230.396 135.214 230.396 135.529C230.396 135.84 230.276 136.109 230.038 136.335C229.803 136.556 229.52 136.667 229.188 136.667ZM232.705 151.682V138.182H234.571V139.773H234.731C234.842 139.569 235.002 139.332 235.21 139.064C235.419 138.795 235.709 138.561 236.08 138.361C236.45 138.156 236.941 138.054 237.55 138.054C238.343 138.054 239.05 138.254 239.672 138.655C240.294 139.055 240.782 139.633 241.136 140.387C241.494 141.141 241.673 142.049 241.673 143.11C241.673 144.171 241.496 145.081 241.142 145.839C240.789 146.594 240.303 147.175 239.685 147.585C239.067 147.989 238.362 148.192 237.569 148.192C236.972 148.192 236.485 148.092 236.105 147.891C235.73 147.691 235.436 147.457 235.223 147.188C235.01 146.92 234.846 146.681 234.731 146.472H234.616V151.682H232.705ZM234.578 143.091C234.578 143.781 234.678 144.386 234.878 144.906C235.078 145.426 235.368 145.833 235.747 146.127C236.127 146.417 236.591 146.562 237.141 146.562C237.712 146.562 238.189 146.411 238.573 146.108C238.956 145.801 239.246 145.386 239.442 144.862C239.642 144.337 239.742 143.747 239.742 143.091C239.742 142.443 239.644 141.862 239.448 141.346C239.257 140.83 238.967 140.423 238.579 140.125C238.195 139.827 237.716 139.678 237.141 139.678C236.587 139.678 236.118 139.82 235.735 140.106C235.355 140.391 235.068 140.79 234.872 141.301C234.676 141.812 234.578 142.409 234.578 143.091ZM248.397 138.182V139.716H243.034V138.182H248.397ZM244.472 135.83H246.384V145.117C246.384 145.488 246.439 145.767 246.55 145.955C246.661 146.138 246.803 146.263 246.978 146.332C247.157 146.396 247.351 146.428 247.56 146.428C247.713 146.428 247.847 146.417 247.963 146.396C248.078 146.374 248.167 146.357 248.231 146.344L248.576 147.923C248.465 147.966 248.308 148.009 248.103 148.051C247.899 148.098 247.643 148.124 247.336 148.128C246.833 148.136 246.365 148.047 245.93 147.859C245.495 147.672 245.144 147.382 244.875 146.99C244.607 146.598 244.472 146.106 244.472 145.513V135.83Z" fill="#707070"/>
<rect x="150" width="100" height="100" rx="50" fill="white"/>
<path d="M176.29 176.023L172.188 175.753L170.643 171.868L169.098 175.753L165 176.023L168.143 178.695L167.112 182.747L170.643 180.513L174.174 182.747L173.143 178.695L176.29 176.023Z" fill="#F0C722"/>
<path d="M190.968 176.023L186.865 175.753L185.32 171.868L183.775 175.753L179.677 176.023L182.821 178.695L181.789 182.747L185.32 180.513L188.852 182.747L187.82 178.695L190.968 176.023Z" fill="#F0C722"/>
<path d="M205.645 176.023L201.543 175.753L199.998 171.868L198.453 175.753L194.355 176.023L197.498 178.695L196.467 182.747L199.998 180.513L203.529 182.747L202.498 178.695L205.645 176.023Z" fill="#F0C722"/>
<path d="M220.323 176.023L216.22 175.753L214.675 171.868L213.13 175.753L209.032 176.023L212.175 178.695L211.144 182.747L214.675 180.513L218.206 182.747L217.175 178.695L220.323 176.023Z" fill="#F0C722"/>
<path d="M235 176.023L230.898 175.753L229.353 171.868L227.808 175.753L223.71 176.023L226.853 178.695L225.821 182.747L229.353 180.513L232.884 182.747L231.852 178.695L235 176.023Z" fill="#F0C722"/>
<path d="M157.659 45.875L157.909 44.3636H166.915L166.665 45.875H163.034L161.352 56H159.602L161.284 45.875H157.659ZM166.376 59.2727C166.119 59.2727 165.89 59.2519 165.689 59.2102C165.488 59.1723 165.339 59.1307 165.24 59.0852L165.888 57.6932C166.187 57.7765 166.454 57.8087 166.689 57.7898C166.928 57.7708 167.151 57.6723 167.359 57.4943C167.568 57.3163 167.78 57.036 167.996 56.6534L168.314 56.0795L166.604 47.2727H168.354L169.433 54.0625H169.524L172.865 47.2727H174.757L169.524 57.1534C169.278 57.6231 168.998 58.0133 168.683 58.3239C168.373 58.6383 168.024 58.875 167.638 59.0341C167.255 59.1932 166.835 59.2727 166.376 59.2727ZM174.359 59.2727L176.371 47.2727H178.03L177.797 48.6875H177.939C178.068 48.5057 178.242 48.2955 178.462 48.0568C178.685 47.8182 178.979 47.6098 179.342 47.4318C179.706 47.25 180.159 47.1591 180.7 47.1591C181.405 47.1591 182.001 47.3371 182.49 47.6932C182.979 48.0492 183.327 48.5625 183.536 49.233C183.744 49.9034 183.77 50.7102 183.615 51.6534C183.46 52.5966 183.168 53.4053 182.74 54.0795C182.312 54.75 181.793 55.267 181.183 55.6307C180.577 55.9905 179.92 56.1705 179.212 56.1705C178.681 56.1705 178.263 56.0814 177.956 55.9034C177.653 55.7254 177.428 55.517 177.28 55.2784C177.132 55.0398 177.02 54.8277 176.945 54.642H176.842L176.07 59.2727H174.359ZM177.308 51.6364C177.21 52.25 177.21 52.7879 177.308 53.25C177.407 53.7121 177.604 54.0739 177.899 54.3352C178.198 54.5928 178.592 54.7216 179.081 54.7216C179.589 54.7216 180.034 54.5871 180.416 54.3182C180.799 54.0455 181.115 53.6761 181.365 53.2102C181.619 52.7443 181.795 52.2197 181.893 51.6364C181.988 51.0606 181.986 50.5436 181.888 50.0852C181.793 49.6269 181.598 49.2652 181.303 49C181.007 48.7348 180.604 48.6023 180.092 48.6023C179.596 48.6023 179.157 48.7292 178.774 48.983C178.395 49.2367 178.081 49.5909 177.831 50.0455C177.581 50.5 177.407 51.0303 177.308 51.6364ZM188.528 56.1761C187.672 56.1761 186.964 55.9924 186.403 55.625C185.847 55.2538 185.456 54.733 185.233 54.0625C185.009 53.3883 184.973 52.5985 185.125 51.6932C185.273 50.7992 185.57 50.0114 186.017 49.3295C186.464 48.6477 187.021 48.1155 187.688 47.733C188.358 47.3504 189.098 47.1591 189.909 47.1591C190.402 47.1591 190.866 47.2405 191.301 47.4034C191.741 47.5663 192.114 47.822 192.42 48.1705C192.727 48.5189 192.939 48.9716 193.057 49.5284C193.178 50.0814 193.174 50.7538 193.045 51.5455L192.949 52.1477H186.006L186.205 50.875H191.477C191.557 50.428 191.536 50.0322 191.415 49.6875C191.294 49.339 191.085 49.0644 190.79 48.8636C190.498 48.6629 190.131 48.5625 189.688 48.5625C189.233 48.5625 188.809 48.6818 188.415 48.9205C188.021 49.1591 187.691 49.464 187.426 49.8352C187.165 50.2027 187 50.5814 186.932 50.9716L186.733 52.1364C186.634 52.7727 186.652 53.2841 186.784 53.6705C186.92 54.0568 187.159 54.3371 187.5 54.5114C187.841 54.6856 188.267 54.7727 188.778 54.7727C189.108 54.7727 189.413 54.7273 189.693 54.6364C189.977 54.5417 190.229 54.4034 190.449 54.2216C190.669 54.036 190.852 53.8049 191 53.5284L192.557 53.8182C192.348 54.2917 192.049 54.7064 191.659 55.0625C191.269 55.4148 190.809 55.6894 190.278 55.8864C189.752 56.0795 189.169 56.1761 188.528 56.1761ZM206.338 47.4886C206.342 46.9167 206.156 46.4792 205.781 46.1761C205.41 45.8731 204.891 45.7216 204.224 45.7216C203.747 45.7216 203.321 45.7973 202.946 45.9489C202.575 46.0966 202.272 46.3011 202.037 46.5625C201.806 46.8201 201.664 47.1136 201.611 47.4432C201.562 47.7197 201.586 47.9583 201.685 48.1591C201.787 48.3598 201.933 48.5284 202.122 48.6648C202.315 48.7973 202.527 48.9091 202.759 49C202.99 49.0871 203.213 49.1591 203.429 49.2159L204.52 49.5114C204.872 49.6023 205.23 49.7254 205.594 49.8807C205.957 50.036 206.285 50.2405 206.577 50.4943C206.868 50.7481 207.086 51.0625 207.23 51.4375C207.374 51.8125 207.402 52.2614 207.315 52.7841C207.202 53.4432 206.935 54.0284 206.514 54.5398C206.094 55.0511 205.539 55.4545 204.849 55.75C204.16 56.0455 203.361 56.1932 202.452 56.1932C201.58 56.1932 200.848 56.0549 200.253 55.7784C199.662 55.5019 199.228 55.1098 198.952 54.6023C198.675 54.0909 198.577 53.4848 198.656 52.7841H200.423C200.382 53.2045 200.457 53.5549 200.651 53.8352C200.848 54.1117 201.124 54.3182 201.48 54.4545C201.836 54.5871 202.24 54.6534 202.69 54.6534C203.19 54.6534 203.647 54.5758 204.06 54.4205C204.473 54.2614 204.813 54.0417 205.082 53.7614C205.351 53.4773 205.516 53.1458 205.577 52.767C205.637 52.4223 205.588 52.1402 205.429 51.9205C205.274 51.7008 205.039 51.5189 204.724 51.375C204.414 51.2311 204.06 51.1042 203.662 50.9943L202.349 50.6193C201.459 50.3655 200.785 49.9924 200.327 49.5C199.868 49.0076 199.704 48.3561 199.832 47.5455C199.946 46.875 200.226 46.2898 200.673 45.7898C201.12 45.2898 201.677 44.9015 202.344 44.625C203.01 44.3447 203.734 44.2045 204.514 44.2045C205.302 44.2045 205.973 44.3447 206.526 44.625C207.079 44.9053 207.488 45.2917 207.753 45.7841C208.018 46.2765 208.111 46.8447 208.031 47.4886H206.338ZM212.396 56.1761C211.548 56.1761 210.853 55.9848 210.311 55.6023C209.769 55.2159 209.393 54.6837 209.18 54.0057C208.968 53.3277 208.934 52.5511 209.078 51.6761C209.222 50.7898 209.516 50.0076 209.959 49.3295C210.406 48.6477 210.964 48.1155 211.635 47.733C212.309 47.3504 213.057 47.1591 213.879 47.1591C214.542 47.1591 215.112 47.2822 215.589 47.5284C216.067 47.7708 216.429 48.1117 216.675 48.5511C216.921 48.9905 217.027 49.5038 216.993 50.0909H215.339C215.313 49.6818 215.161 49.3295 214.885 49.0341C214.608 48.7386 214.201 48.5909 213.663 48.5909C213.19 48.5909 212.754 48.7159 212.357 48.9659C211.959 49.2121 211.624 49.5644 211.351 50.0227C211.078 50.4773 210.893 51.0152 210.794 51.6364C210.688 52.2727 210.694 52.822 210.811 53.2841C210.929 53.7462 211.144 54.1042 211.459 54.358C211.773 54.6117 212.169 54.7386 212.646 54.7386C212.972 54.7386 213.275 54.6799 213.555 54.5625C213.839 54.4413 214.089 54.2689 214.305 54.0455C214.525 53.822 214.696 53.553 214.817 53.2386H216.476C216.313 53.803 216.04 54.3068 215.658 54.75C215.279 55.1932 214.813 55.5417 214.26 55.7955C213.707 56.0492 213.086 56.1761 212.396 56.1761ZM217.821 56L219.276 47.2727H220.918L220.685 48.6591H220.776C221.01 48.1894 221.353 47.8201 221.804 47.5511C222.255 47.2784 222.736 47.142 223.247 47.142C223.357 47.142 223.482 47.1458 223.622 47.1534C223.762 47.1572 223.876 47.1667 223.963 47.1818L223.69 48.8068C223.626 48.7879 223.509 48.767 223.338 48.7443C223.168 48.7178 222.991 48.7045 222.81 48.7045C222.412 48.7045 222.043 48.7898 221.702 48.9602C221.361 49.1269 221.075 49.3598 220.844 49.6591C220.613 49.9545 220.463 50.2917 220.395 50.6705L219.52 56H217.821ZM223.993 56L225.447 47.2727H227.146L225.692 56H223.993ZM226.652 45.9091C226.357 45.9091 226.107 45.8106 225.902 45.6136C225.701 45.4129 225.608 45.1742 225.624 44.8977C225.639 44.6174 225.756 44.3788 225.976 44.1818C226.196 43.9811 226.451 43.8807 226.743 43.8807C227.038 43.8807 227.286 43.9811 227.487 44.1818C227.688 44.3788 227.783 44.6174 227.771 44.8977C227.756 45.1742 227.639 45.4129 227.419 45.6136C227.203 45.8106 226.947 45.9091 226.652 45.9091ZM227.438 59.2727L229.449 47.2727H231.108L230.875 48.6875H231.017C231.146 48.5057 231.32 48.2955 231.54 48.0568C231.763 47.8182 232.057 47.6098 232.42 47.4318C232.784 47.25 233.237 47.1591 233.778 47.1591C234.483 47.1591 235.08 47.3371 235.568 47.6932C236.057 48.0492 236.405 48.5625 236.614 49.233C236.822 49.9034 236.848 50.7102 236.693 51.6534C236.538 52.5966 236.246 53.4053 235.818 54.0795C235.39 54.75 234.871 55.267 234.261 55.6307C233.655 55.9905 232.998 56.1705 232.29 56.1705C231.759 56.1705 231.341 56.0814 231.034 55.9034C230.731 55.7254 230.506 55.517 230.358 55.2784C230.21 55.0398 230.098 54.8277 230.023 54.642H229.92L229.148 59.2727H227.438ZM230.386 51.6364C230.288 52.25 230.288 52.7879 230.386 53.25C230.485 53.7121 230.682 54.0739 230.977 54.3352C231.277 54.5928 231.67 54.7216 232.159 54.7216C232.667 54.7216 233.112 54.5871 233.494 54.3182C233.877 54.0455 234.193 53.6761 234.443 53.2102C234.697 52.7443 234.873 52.2197 234.972 51.6364C235.066 51.0606 235.064 50.5436 234.966 50.0852C234.871 49.6269 234.676 49.2652 234.381 49C234.085 48.7348 233.682 48.6023 233.17 48.6023C232.674 48.6023 232.235 48.7292 231.852 48.983C231.473 49.2367 231.159 49.5909 230.909 50.0455C230.659 50.5 230.485 51.0303 230.386 51.6364ZM243.396 47.2727L243.175 48.6364H238.408L238.629 47.2727H243.396ZM240.249 45.1818H241.947L240.572 53.4375C240.519 53.767 240.529 54.0152 240.601 54.1818C240.673 54.3447 240.783 54.4564 240.93 54.517C241.082 54.5739 241.25 54.6023 241.436 54.6023C241.572 54.6023 241.692 54.5928 241.794 54.5739C241.896 54.5549 241.978 54.5398 242.038 54.5284L242.129 55.9318C242.016 55.9697 241.862 56.0076 241.669 56.0455C241.48 56.0871 241.249 56.1098 240.976 56.1136C240.529 56.1212 240.125 56.0417 239.766 55.875C239.406 55.7045 239.137 55.447 238.959 55.1023C238.781 54.7538 238.737 54.3163 238.828 53.7898L240.249 45.1818Z" fill="#FF5202"/>
<path d="M611.438 134.909H613.835L618.003 145.085H618.156L622.324 134.909H624.721V148H622.842V138.527H622.72L618.859 147.981H617.3L613.439 138.521H613.317V148H611.438V134.909ZM631.575 148.198C630.654 148.198 629.851 147.987 629.165 147.565C628.479 147.143 627.946 146.553 627.567 145.795C627.188 145.036 626.998 144.15 626.998 143.136C626.998 142.117 627.188 141.227 627.567 140.464C627.946 139.701 628.479 139.109 629.165 138.687C629.851 138.265 630.654 138.054 631.575 138.054C632.495 138.054 633.298 138.265 633.985 138.687C634.671 139.109 635.203 139.701 635.583 140.464C635.962 141.227 636.151 142.117 636.151 143.136C636.151 144.15 635.962 145.036 635.583 145.795C635.203 146.553 634.671 147.143 633.985 147.565C633.298 147.987 632.495 148.198 631.575 148.198ZM631.581 146.594C632.178 146.594 632.672 146.436 633.064 146.121C633.456 145.805 633.746 145.386 633.933 144.862C634.125 144.337 634.221 143.76 634.221 143.129C634.221 142.503 634.125 141.928 633.933 141.403C633.746 140.875 633.456 140.451 633.064 140.131C632.672 139.812 632.178 139.652 631.581 139.652C630.98 139.652 630.482 139.812 630.085 140.131C629.693 140.451 629.401 140.875 629.21 141.403C629.022 141.928 628.928 142.503 628.928 143.129C628.928 143.76 629.022 144.337 629.21 144.862C629.401 145.386 629.693 145.805 630.085 146.121C630.482 146.436 630.98 146.594 631.581 146.594ZM642.42 148.198C641.47 148.198 640.652 147.983 639.966 147.553C639.284 147.118 638.76 146.519 638.393 145.756C638.027 144.994 637.844 144.12 637.844 143.136C637.844 142.138 638.031 141.259 638.406 140.496C638.781 139.729 639.31 139.13 639.991 138.7C640.673 138.269 641.477 138.054 642.401 138.054C643.147 138.054 643.812 138.192 644.396 138.469C644.979 138.742 645.45 139.126 645.808 139.62C646.17 140.114 646.386 140.692 646.454 141.352H644.594C644.491 140.892 644.257 140.496 643.891 140.163C643.528 139.831 643.043 139.665 642.433 139.665C641.901 139.665 641.434 139.805 641.033 140.087C640.637 140.364 640.328 140.76 640.107 141.276C639.885 141.787 639.774 142.392 639.774 143.091C639.774 143.807 639.883 144.425 640.1 144.945C640.317 145.464 640.624 145.867 641.021 146.153C641.421 146.438 641.892 146.581 642.433 146.581C642.795 146.581 643.124 146.515 643.418 146.383C643.716 146.246 643.965 146.053 644.165 145.801C644.37 145.55 644.513 145.247 644.594 144.893H646.454C646.386 145.528 646.179 146.095 645.834 146.594C645.489 147.092 645.026 147.484 644.447 147.77C643.871 148.055 643.196 148.198 642.42 148.198ZM650.256 144.67L650.243 142.337H650.575L654.487 138.182H656.775L652.314 142.912H652.013L650.256 144.67ZM648.498 148V134.909H650.409V148H648.498ZM654.698 148L651.182 143.334L652.499 141.998L657.044 148H654.698ZM664.54 148H662.444L667.154 134.909H669.436L674.147 148H672.051L668.35 137.287H668.248L664.54 148ZM664.892 142.874H671.693V144.536H664.892V142.874ZM676.038 148V134.909H680.704C681.722 134.909 682.566 135.094 683.235 135.465C683.904 135.836 684.405 136.343 684.737 136.987C685.07 137.626 685.236 138.346 685.236 139.147C685.236 139.952 685.068 140.677 684.731 141.32C684.399 141.96 683.896 142.467 683.222 142.842C682.553 143.212 681.712 143.398 680.698 143.398H677.489V141.723H680.519C681.162 141.723 681.684 141.612 682.085 141.391C682.485 141.165 682.779 140.858 682.967 140.47C683.154 140.082 683.248 139.641 683.248 139.147C683.248 138.653 683.154 138.214 682.967 137.83C682.779 137.447 682.483 137.146 682.078 136.929C681.678 136.712 681.149 136.603 680.493 136.603H678.013V148H676.038ZM689.527 134.909V148H687.551V134.909H689.527Z" fill="#707070"/>
<rect x="600" width="100" height="100" rx="50" fill="white"/>
<path d="M626.29 176.023L622.188 175.753L620.643 171.868L619.098 175.753L615 176.023L618.143 178.695L617.112 182.747L620.643 180.513L624.174 182.747L623.143 178.695L626.29 176.023Z" fill="#F0C722"/>
<path d="M640.968 176.023L636.865 175.753L635.32 171.868L633.775 175.753L629.677 176.023L632.821 178.695L631.789 182.747L635.32 180.513L638.852 182.747L637.82 178.695L640.968 176.023Z" fill="#F0C722"/>
<path d="M655.645 176.023L651.543 175.753L649.998 171.868L648.453 175.753L644.355 176.023L647.498 178.695L646.467 182.747L649.998 180.513L653.529 182.747L652.498 178.695L655.645 176.023Z" fill="#F0C722"/>
<path d="M670.323 176.023L666.22 175.753L664.675 171.868L663.13 175.753L659.032 176.023L662.175 178.695L661.144 182.747L664.675 180.513L668.206 182.747L667.175 178.695L670.323 176.023Z" fill="#F0C722"/>
<path d="M685 176.023L680.898 175.753L679.353 171.868L677.808 175.753L673.71 176.023L676.853 178.695L675.821 182.747L679.353 180.513L682.884 182.747L681.852 178.695L685 176.023Z" fill="#F0C722"/>
<path d="M616.483 44.3636H618.614L620.83 53.4091H620.966L626.159 44.3636H628.29L626.358 56H624.688L626.091 47.5795H625.983L621.153 55.983H619.761L617.739 47.5739H617.631L616.222 56H614.551L616.483 44.3636ZM632.49 56.1761C631.661 56.1761 630.967 55.9867 630.411 55.608C629.854 55.2254 629.462 54.6913 629.234 54.0057C629.011 53.3163 628.973 52.5152 629.121 51.6023C629.265 50.7083 629.554 49.928 629.99 49.2614C630.429 48.5947 630.979 48.0777 631.638 47.7102C632.301 47.3428 633.037 47.1591 633.848 47.1591C634.678 47.1591 635.369 47.3504 635.922 47.733C636.479 48.1155 636.871 48.6515 637.098 49.3409C637.325 50.0303 637.365 50.8333 637.217 51.75C637.073 52.6364 636.78 53.4129 636.337 54.0795C635.897 54.7424 635.348 55.2576 634.689 55.625C634.03 55.9924 633.297 56.1761 632.49 56.1761ZM632.587 54.75C633.132 54.75 633.607 54.6061 634.013 54.3182C634.422 54.0303 634.755 53.6477 635.013 53.1705C635.27 52.6932 635.446 52.1705 635.541 51.6023C635.628 51.053 635.626 50.5511 635.536 50.0966C635.448 49.6383 635.259 49.2708 634.967 48.9943C634.676 48.7178 634.27 48.5795 633.751 48.5795C633.206 48.5795 632.727 48.7254 632.314 49.017C631.905 49.3049 631.571 49.6894 631.314 50.1705C631.06 50.6515 630.888 51.1761 630.797 51.7443C630.71 52.2898 630.71 52.7917 630.797 53.25C630.884 53.7045 631.073 54.0682 631.365 54.3409C631.657 54.6136 632.064 54.75 632.587 54.75ZM642.068 56.1761C641.22 56.1761 640.525 55.9848 639.983 55.6023C639.441 55.2159 639.064 54.6837 638.852 54.0057C638.64 53.3277 638.606 52.5511 638.75 51.6761C638.894 50.7898 639.188 50.0076 639.631 49.3295C640.078 48.6477 640.636 48.1155 641.307 47.733C641.981 47.3504 642.729 47.1591 643.551 47.1591C644.214 47.1591 644.784 47.2822 645.261 47.5284C645.739 47.7708 646.1 48.1117 646.347 48.5511C646.593 48.9905 646.699 49.5038 646.665 50.0909H645.011C644.985 49.6818 644.833 49.3295 644.557 49.0341C644.28 48.7386 643.873 48.5909 643.335 48.5909C642.862 48.5909 642.426 48.7159 642.028 48.9659C641.631 49.2121 641.295 49.5644 641.023 50.0227C640.75 50.4773 640.564 51.0152 640.466 51.6364C640.36 52.2727 640.366 52.822 640.483 53.2841C640.6 53.7462 640.816 54.1042 641.131 54.358C641.445 54.6117 641.841 54.7386 642.318 54.7386C642.644 54.7386 642.947 54.6799 643.227 54.5625C643.511 54.4413 643.761 54.2689 643.977 54.0455C644.197 53.822 644.367 53.553 644.489 53.2386H646.148C645.985 53.803 645.712 54.3068 645.33 54.75C644.951 55.1932 644.485 55.5417 643.932 55.7955C643.379 56.0492 642.758 56.1761 642.068 56.1761ZM649.544 53.0398L649.868 50.9659H650.169L654.271 47.2727H656.305L651.646 51.4773H651.379L649.544 53.0398ZM647.493 56L649.425 44.3636H651.124L649.192 56H647.493ZM653.004 56L650.572 51.8523L651.93 50.6648L655.089 56H653.004ZM661.753 56H659.889L666.009 44.3636H668.037L670.293 56H668.429L666.73 46.4773H666.639L661.753 56ZM662.821 51.4432H668.866L668.616 52.9205H662.571L662.821 51.4432ZM671.973 56L673.905 44.3636H678.053C678.954 44.3636 679.674 44.5284 680.212 44.858C680.753 45.1875 681.125 45.6364 681.325 46.2045C681.53 46.7727 681.573 47.4148 681.456 48.1307C681.335 48.8466 681.077 49.4905 680.683 50.0625C680.293 50.6307 679.772 51.0814 679.121 51.4148C678.469 51.7443 677.695 51.9091 676.797 51.9091H673.939L674.183 50.4205H676.876C677.448 50.4205 677.929 50.322 678.32 50.125C678.714 49.9242 679.022 49.6515 679.246 49.3068C679.469 48.9583 679.615 48.5663 679.683 48.1307C679.755 47.6875 679.736 47.2973 679.626 46.9602C679.517 46.6193 679.299 46.3523 678.973 46.1591C678.651 45.9659 678.2 45.8693 677.621 45.8693H675.416L673.729 56H671.973ZM685.864 44.3636L683.932 56H682.176L684.108 44.3636H685.864Z" fill="#FF5202"/>
<path d="M314.438 148V134.909H322.556V136.609H316.413V140.598H321.974V142.292H316.413V148H314.438ZM324.832 148V138.182H326.743V148H324.832ZM325.797 136.667C325.464 136.667 325.179 136.556 324.94 136.335C324.706 136.109 324.589 135.84 324.589 135.529C324.589 135.214 324.706 134.945 324.94 134.724C325.179 134.498 325.464 134.385 325.797 134.385C326.129 134.385 326.413 134.498 326.647 134.724C326.886 134.945 327.005 135.214 327.005 135.529C327.005 135.84 326.886 136.109 326.647 136.335C326.413 136.556 326.129 136.667 325.797 136.667ZM329.314 148V138.182H331.161V139.741H331.264C331.443 139.213 331.758 138.798 332.21 138.495C332.666 138.188 333.181 138.035 333.757 138.035C333.876 138.035 334.017 138.039 334.178 138.048C334.345 138.056 334.475 138.067 334.568 138.08V139.908C334.492 139.886 334.355 139.863 334.159 139.837C333.963 139.808 333.767 139.793 333.571 139.793C333.119 139.793 332.717 139.888 332.363 140.08C332.014 140.268 331.737 140.53 331.532 140.866C331.328 141.199 331.225 141.578 331.225 142.004V148H329.314ZM340.102 148.198C339.135 148.198 338.302 147.991 337.603 147.578C336.908 147.161 336.371 146.575 335.992 145.82C335.617 145.062 335.43 144.173 335.43 143.155C335.43 142.149 335.617 141.263 335.992 140.496C336.371 139.729 336.9 139.13 337.577 138.7C338.259 138.269 339.056 138.054 339.968 138.054C340.522 138.054 341.059 138.146 341.579 138.329C342.099 138.512 342.565 138.8 342.979 139.192C343.392 139.584 343.718 140.093 343.957 140.719C344.195 141.342 344.315 142.098 344.315 142.989V143.666H336.51V142.234H342.442C342.442 141.732 342.339 141.286 342.135 140.898C341.93 140.506 341.643 140.197 341.272 139.972C340.906 139.746 340.475 139.633 339.981 139.633C339.444 139.633 338.975 139.765 338.575 140.029C338.178 140.289 337.871 140.63 337.654 141.052C337.441 141.469 337.335 141.923 337.335 142.413V143.532C337.335 144.188 337.45 144.746 337.68 145.207C337.914 145.667 338.24 146.018 338.658 146.261C339.075 146.5 339.563 146.619 340.121 146.619C340.484 146.619 340.814 146.568 341.112 146.466C341.411 146.359 341.668 146.202 341.886 145.993C342.103 145.784 342.269 145.526 342.384 145.219L344.193 145.545C344.048 146.078 343.788 146.545 343.413 146.945C343.043 147.342 342.576 147.651 342.013 147.872C341.455 148.089 340.818 148.198 340.102 148.198ZM346.589 148V134.909H348.5V139.773H348.615C348.726 139.569 348.885 139.332 349.094 139.064C349.303 138.795 349.593 138.561 349.964 138.361C350.334 138.156 350.824 138.054 351.434 138.054C352.226 138.054 352.934 138.254 353.556 138.655C354.178 139.055 354.666 139.633 355.02 140.387C355.378 141.141 355.557 142.049 355.557 143.11C355.557 144.171 355.38 145.081 355.026 145.839C354.672 146.594 354.187 147.175 353.569 147.585C352.951 147.989 352.246 148.192 351.453 148.192C350.856 148.192 350.368 148.092 349.989 147.891C349.614 147.691 349.32 147.457 349.107 147.188C348.894 146.92 348.73 146.681 348.615 146.472H348.455V148H346.589ZM348.461 143.091C348.461 143.781 348.562 144.386 348.762 144.906C348.962 145.426 349.252 145.833 349.631 146.127C350.01 146.417 350.475 146.562 351.025 146.562C351.596 146.562 352.073 146.411 352.456 146.108C352.84 145.801 353.13 145.386 353.326 144.862C353.526 144.337 353.626 143.747 353.626 143.091C353.626 142.443 353.528 141.862 353.332 141.346C353.14 140.83 352.851 140.423 352.463 140.125C352.079 139.827 351.6 139.678 351.025 139.678C350.471 139.678 350.002 139.82 349.618 140.106C349.239 140.391 348.952 140.79 348.756 141.301C348.559 141.812 348.461 142.409 348.461 143.091ZM360.56 148.217C359.938 148.217 359.375 148.102 358.873 147.872C358.37 147.638 357.971 147.299 357.677 146.856C357.387 146.413 357.243 145.869 357.243 145.226C357.243 144.672 357.349 144.216 357.562 143.858C357.775 143.5 358.063 143.217 358.425 143.008C358.787 142.799 359.192 142.641 359.64 142.535C360.087 142.428 360.543 142.347 361.007 142.292C361.596 142.224 362.073 142.168 362.439 142.126C362.806 142.079 363.072 142.004 363.238 141.902C363.404 141.8 363.488 141.634 363.488 141.403V141.359C363.488 140.8 363.33 140.368 363.015 140.061C362.703 139.754 362.239 139.601 361.621 139.601C360.978 139.601 360.471 139.744 360.1 140.029C359.733 140.31 359.48 140.624 359.339 140.969L357.543 140.56C357.756 139.963 358.067 139.482 358.476 139.115C358.89 138.744 359.365 138.476 359.902 138.31C360.439 138.139 361.003 138.054 361.596 138.054C361.988 138.054 362.403 138.101 362.842 138.195C363.285 138.284 363.699 138.45 364.082 138.693C364.47 138.936 364.787 139.283 365.034 139.735C365.282 140.183 365.405 140.764 365.405 141.48V148H363.539V146.658H363.462C363.338 146.905 363.153 147.148 362.906 147.386C362.659 147.625 362.341 147.823 361.953 147.981C361.566 148.138 361.101 148.217 360.56 148.217ZM360.975 146.683C361.504 146.683 361.956 146.579 362.331 146.37C362.71 146.161 362.998 145.888 363.194 145.552C363.394 145.211 363.494 144.847 363.494 144.459V143.193C363.426 143.261 363.294 143.325 363.098 143.385C362.906 143.44 362.686 143.489 362.439 143.532C362.192 143.57 361.951 143.607 361.717 143.641C361.483 143.67 361.287 143.696 361.129 143.717C360.758 143.764 360.419 143.843 360.113 143.954C359.81 144.065 359.567 144.224 359.384 144.433C359.205 144.638 359.115 144.911 359.115 145.251C359.115 145.724 359.29 146.082 359.64 146.325C359.989 146.564 360.434 146.683 360.975 146.683ZM375.308 140.579L373.576 140.886C373.503 140.664 373.388 140.453 373.231 140.253C373.077 140.053 372.868 139.888 372.604 139.761C372.34 139.633 372.01 139.569 371.613 139.569C371.072 139.569 370.621 139.69 370.258 139.933C369.896 140.172 369.715 140.481 369.715 140.86C369.715 141.188 369.836 141.452 370.079 141.653C370.322 141.853 370.714 142.017 371.256 142.145L372.815 142.503C373.719 142.712 374.392 143.033 374.835 143.468C375.278 143.903 375.5 144.467 375.5 145.162C375.5 145.75 375.329 146.274 374.988 146.734C374.652 147.19 374.181 147.548 373.576 147.808C372.975 148.068 372.278 148.198 371.486 148.198C370.386 148.198 369.489 147.964 368.795 147.495C368.1 147.022 367.674 146.351 367.516 145.482L369.363 145.2C369.479 145.682 369.715 146.046 370.073 146.293C370.431 146.536 370.898 146.658 371.473 146.658C372.099 146.658 372.6 146.528 372.975 146.268C373.35 146.004 373.537 145.682 373.537 145.303C373.537 144.996 373.422 144.738 373.192 144.529C372.966 144.32 372.619 144.163 372.15 144.056L370.488 143.692C369.572 143.483 368.895 143.151 368.456 142.695C368.021 142.239 367.804 141.661 367.804 140.962C367.804 140.383 367.966 139.876 368.29 139.441C368.613 139.006 369.061 138.668 369.632 138.425C370.203 138.178 370.857 138.054 371.594 138.054C372.655 138.054 373.491 138.284 374.1 138.744C374.709 139.2 375.112 139.812 375.308 140.579ZM381.833 148.198C380.865 148.198 380.032 147.991 379.333 147.578C378.639 147.161 378.102 146.575 377.723 145.82C377.348 145.062 377.16 144.173 377.16 143.155C377.16 142.149 377.348 141.263 377.723 140.496C378.102 139.729 378.63 139.13 379.308 138.7C379.99 138.269 380.787 138.054 381.699 138.054C382.252 138.054 382.789 138.146 383.309 138.329C383.829 138.512 384.296 138.8 384.709 139.192C385.123 139.584 385.449 140.093 385.687 140.719C385.926 141.342 386.045 142.098 386.045 142.989V143.666H378.24V142.234H384.172C384.172 141.732 384.07 141.286 383.865 140.898C383.661 140.506 383.373 140.197 383.002 139.972C382.636 139.746 382.206 139.633 381.711 139.633C381.174 139.633 380.706 139.765 380.305 140.029C379.909 140.289 379.602 140.63 379.385 141.052C379.172 141.469 379.065 141.923 379.065 142.413V143.532C379.065 144.188 379.18 144.746 379.41 145.207C379.645 145.667 379.971 146.018 380.388 146.261C380.806 146.5 381.294 146.619 381.852 146.619C382.214 146.619 382.544 146.568 382.843 146.466C383.141 146.359 383.399 146.202 383.616 145.993C383.833 145.784 384 145.526 384.115 145.219L385.924 145.545C385.779 146.078 385.519 146.545 385.144 146.945C384.773 147.342 384.306 147.651 383.744 147.872C383.186 148.089 382.549 148.198 381.833 148.198Z" fill="#707070"/>
<rect x="300" width="100" height="100" rx="50" fill="white"/>
<path d="M326.29 176.023L322.188 175.753L320.643 171.868L319.098 175.753L315 176.023L318.143 178.695L317.112 182.747L320.643 180.513L324.174 182.747L323.143 178.695L326.29 176.023Z" fill="#F0C722"/>
<path d="M340.968 176.023L336.865 175.753L335.32 171.868L333.775 175.753L329.677 176.023L332.821 178.695L331.789 182.747L335.32 180.513L338.852 182.747L337.82 178.695L340.968 176.023Z" fill="#F0C722"/>
<path d="M355.645 176.023L351.543 175.753L349.998 171.868L348.453 175.753L344.355 176.023L347.498 178.695L346.467 182.747L349.998 180.513L353.529 182.747L352.498 178.695L355.645 176.023Z" fill="#F0C722"/>
<path d="M370.323 176.023L366.22 175.753L364.675 171.868L363.13 175.753L359.032 176.023L362.175 178.695L361.144 182.747L364.675 180.513L368.206 182.747L367.175 178.695L370.323 176.023Z" fill="#F0C722"/>
<path d="M385 176.023L380.898 175.753L379.353 171.868L377.808 175.753L373.71 176.023L376.853 178.695L375.821 182.747L379.353 180.513L382.884 182.747L381.852 178.695L385 176.023Z" fill="#F0C722"/>
<path d="M331 67.6906L331.323 67.25L346.619 39.0041L346.652 38.7051L339.909 26.3791C339.344 25.3466 337.753 25.6077 337.568 26.7635L331 67.6906Z" fill="#FFC24A"/>
<path d="M331.191 67.3544L331.435 66.8902L346.571 38.9403L339.845 26.5642C339.286 25.5425 337.867 25.803 337.683 26.9467L331.191 67.3544Z" fill="#FFA712"/>
<g filter="url(#filter0_i_3_537)">
<path d="M331.191 67.3544L331.435 66.8902L346.571 38.9403L339.845 26.5642C339.286 25.5425 337.867 25.803 337.683 26.9467L331.191 67.3544Z" fill="black"/>
</g>
<path d="M351.567 48.0283L356.588 43.0245L351.566 33.6944C351.089 32.8112 349.758 32.8086 349.286 33.6944L346.603 38.6741V39.0981L351.567 48.0283H351.567Z" fill="#F4BD62"/>
<path d="M351.478 47.8199L356.359 42.9551L351.478 33.9102C351.014 33.0516 349.888 32.9616 349.43 33.8227L346.732 38.8797L346.652 39.1383L351.478 47.8199Z" fill="#FFA50E"/>
<g filter="url(#filter1_i_3_537)">
<path d="M351.478 47.8199L356.359 42.9551L351.478 33.9102C351.014 33.0516 349.888 32.9616 349.43 33.8227L346.732 38.8797L346.652 39.1383L351.478 47.8199Z" fill="black"/>
</g>
<path d="M331 67.6905L331.147 67.547L331.679 67.3365L351.252 48.359L351.5 47.7021L346.617 38.6472L331 67.6905Z" fill="#F6820C"/>
<path d="M352.194 77.2611L369.908 67.6468L364.85 37.3281C364.691 36.3796 363.496 36.0046 362.798 36.6847L331 67.6904L348.612 77.2604C349.16 77.5578 349.776 77.7141 350.403 77.7142C351.03 77.7143 351.647 77.5583 352.194 77.2611Z" fill="#FDE068"/>
<path d="M369.749 67.5662L364.729 37.4777C364.572 36.5363 363.578 36.1468 362.885 36.8218L331.196 67.6314L348.615 77.1065C349.158 77.4017 349.77 77.5567 350.392 77.5569C351.015 77.5571 351.626 77.4023 352.17 77.1074L369.749 67.566L369.749 67.5662Z" fill="#FCCA3F"/>
<path d="M352.194 76.9778C351.646 77.275 351.03 77.4309 350.403 77.4308C349.776 77.4307 349.16 77.2745 348.612 76.9771L331.142 67.5447L331 67.6904L348.612 77.2604C349.16 77.5578 349.776 77.714 350.403 77.7142C351.03 77.7143 351.647 77.5583 352.194 77.2611L369.908 67.6468L369.865 67.3871L352.194 76.9779L352.194 76.9778Z" fill="#EEAB37"/>
<path d="M464.298 139.045C464.174 138.657 464.008 138.31 463.799 138.003C463.594 137.692 463.349 137.428 463.064 137.21C462.778 136.989 462.452 136.82 462.086 136.705C461.724 136.59 461.325 136.533 460.891 136.533C460.153 136.533 459.489 136.722 458.896 137.102C458.304 137.481 457.835 138.037 457.49 138.77C457.149 139.499 456.979 140.391 456.979 141.448C456.979 142.509 457.151 143.406 457.496 144.139C457.842 144.872 458.315 145.428 458.915 145.808C459.516 146.187 460.2 146.376 460.967 146.376C461.679 146.376 462.299 146.232 462.827 145.942C463.36 145.652 463.771 145.243 464.061 144.714C464.355 144.182 464.502 143.555 464.502 142.835L465.013 142.931H461.268V141.301H466.413V142.79C466.413 143.89 466.179 144.844 465.71 145.654C465.246 146.46 464.602 147.082 463.78 147.521C462.962 147.96 462.024 148.179 460.967 148.179C459.783 148.179 458.743 147.906 457.848 147.361C456.957 146.815 456.263 146.042 455.764 145.04C455.266 144.035 455.016 142.842 455.016 141.461C455.016 140.417 455.161 139.479 455.451 138.648C455.741 137.817 456.148 137.112 456.672 136.533C457.2 135.949 457.82 135.504 458.532 135.197C459.248 134.886 460.03 134.73 460.878 134.73C461.585 134.73 462.244 134.835 462.853 135.043C463.467 135.252 464.012 135.548 464.489 135.932C464.971 136.315 465.369 136.771 465.685 137.3C466 137.824 466.213 138.406 466.324 139.045H464.298ZM469.382 148V138.182H471.294V148H469.382ZM470.348 136.667C470.015 136.667 469.73 136.556 469.491 136.335C469.257 136.109 469.14 135.84 469.14 135.529C469.14 135.214 469.257 134.945 469.491 134.724C469.73 134.498 470.015 134.385 470.348 134.385C470.68 134.385 470.963 134.498 471.198 134.724C471.436 134.945 471.556 135.214 471.556 135.529C471.556 135.84 471.436 136.109 471.198 136.335C470.963 136.556 470.68 136.667 470.348 136.667ZM478.448 138.182V139.716H473.085V138.182H478.448ZM474.523 135.83H476.434V145.117C476.434 145.488 476.49 145.767 476.601 145.955C476.711 146.138 476.854 146.263 477.029 146.332C477.208 146.396 477.402 146.428 477.611 146.428C477.764 146.428 477.898 146.417 478.013 146.396C478.128 146.374 478.218 146.357 478.282 146.344L478.627 147.923C478.516 147.966 478.358 148.009 478.154 148.051C477.949 148.098 477.694 148.124 477.387 148.128C476.884 148.136 476.415 148.047 475.981 147.859C475.546 147.672 475.194 147.382 474.926 146.99C474.657 146.598 474.523 146.106 474.523 145.513V135.83ZM485.548 134.295L481.329 149.969H479.623L483.841 134.295H485.548ZM496.184 139.045C496.061 138.657 495.895 138.31 495.686 138.003C495.481 137.692 495.236 137.428 494.951 137.21C494.665 136.989 494.339 136.82 493.973 136.705C493.61 136.59 493.212 136.533 492.777 136.533C492.04 136.533 491.375 136.722 490.783 137.102C490.191 137.481 489.722 138.037 489.377 138.77C489.036 139.499 488.865 140.391 488.865 141.448C488.865 142.509 489.038 143.406 489.383 144.139C489.728 144.872 490.201 145.428 490.802 145.808C491.403 146.187 492.087 146.376 492.854 146.376C493.566 146.376 494.186 146.232 494.714 145.942C495.247 145.652 495.658 145.243 495.948 144.714C496.242 144.182 496.389 143.555 496.389 142.835L496.9 142.931H493.154V141.301H498.3V142.79C498.3 143.89 498.066 144.844 497.597 145.654C497.132 146.46 496.489 147.082 495.667 147.521C494.848 147.96 493.911 148.179 492.854 148.179C491.669 148.179 490.63 147.906 489.735 147.361C488.844 146.815 488.15 146.042 487.651 145.04C487.152 144.035 486.903 142.842 486.903 141.461C486.903 140.417 487.048 139.479 487.338 138.648C487.627 137.817 488.034 137.112 488.559 136.533C489.087 135.949 489.707 135.504 490.419 135.197C491.135 134.886 491.917 134.73 492.765 134.73C493.472 134.73 494.13 134.835 494.74 135.043C495.353 135.252 495.899 135.548 496.376 135.932C496.858 136.315 497.256 136.771 497.571 137.3C497.887 137.824 498.1 138.406 498.211 139.045H496.184ZM501.269 148V138.182H503.18V148H501.269ZM502.234 136.667C501.902 136.667 501.616 136.556 501.378 136.335C501.143 136.109 501.026 135.84 501.026 135.529C501.026 135.214 501.143 134.945 501.378 134.724C501.616 134.498 501.902 134.385 502.234 134.385C502.567 134.385 502.85 134.498 503.085 134.724C503.323 134.945 503.442 135.214 503.442 135.529C503.442 135.84 503.323 136.109 503.085 136.335C502.85 136.556 502.567 136.667 502.234 136.667ZM510.335 138.182V139.716H504.972V138.182H510.335ZM506.41 135.83H508.321V145.117C508.321 145.488 508.377 145.767 508.487 145.955C508.598 146.138 508.741 146.263 508.916 146.332C509.095 146.396 509.289 146.428 509.497 146.428C509.651 146.428 509.785 146.417 509.9 146.396C510.015 146.374 510.105 146.357 510.169 146.344L510.514 147.923C510.403 147.966 510.245 148.009 510.041 148.051C509.836 148.098 509.58 148.124 509.274 148.128C508.771 148.136 508.302 148.047 507.867 147.859C507.433 147.672 507.081 147.382 506.813 146.99C506.544 146.598 506.41 146.106 506.41 145.513V135.83ZM514.571 142.17V148H512.66V134.909H514.545V139.78H514.667C514.897 139.251 515.249 138.832 515.722 138.521C516.195 138.21 516.813 138.054 517.575 138.054C518.249 138.054 518.837 138.192 519.339 138.469C519.847 138.746 520.239 139.16 520.516 139.71C520.797 140.255 520.938 140.937 520.938 141.755V148H519.026V141.985C519.026 141.265 518.841 140.707 518.47 140.31C518.099 139.91 517.584 139.71 516.923 139.71C516.472 139.71 516.067 139.805 515.709 139.997C515.355 140.189 515.076 140.47 514.871 140.841C514.671 141.207 514.571 141.651 514.571 142.17ZM529.707 143.928V138.182H531.625V148H529.746V146.3H529.643C529.418 146.824 529.055 147.261 528.557 147.61C528.063 147.955 527.447 148.128 526.71 148.128C526.079 148.128 525.521 147.989 525.035 147.712C524.553 147.431 524.174 147.016 523.897 146.466C523.624 145.916 523.488 145.237 523.488 144.427V138.182H525.399V144.197C525.399 144.866 525.585 145.398 525.955 145.795C526.326 146.191 526.808 146.389 527.4 146.389C527.758 146.389 528.114 146.3 528.467 146.121C528.825 145.942 529.121 145.671 529.356 145.309C529.594 144.947 529.712 144.487 529.707 143.928ZM534.346 148V134.909H536.258V139.773H536.373C536.483 139.569 536.643 139.332 536.852 139.064C537.061 138.795 537.351 138.561 537.721 138.361C538.092 138.156 538.582 138.054 539.192 138.054C539.984 138.054 540.692 138.254 541.314 138.655C541.936 139.055 542.424 139.633 542.778 140.387C543.135 141.141 543.314 142.049 543.314 143.11C543.314 144.171 543.138 145.081 542.784 145.839C542.43 146.594 541.944 147.175 541.327 147.585C540.709 147.989 540.003 148.192 539.211 148.192C538.614 148.192 538.126 148.092 537.747 147.891C537.372 147.691 537.078 147.457 536.865 147.188C536.652 146.92 536.488 146.681 536.373 146.472H536.213V148H534.346ZM536.219 143.091C536.219 143.781 536.319 144.386 536.52 144.906C536.72 145.426 537.01 145.833 537.389 146.127C537.768 146.417 538.233 146.562 538.782 146.562C539.354 146.562 539.831 146.411 540.214 146.108C540.598 145.801 540.888 145.386 541.084 144.862C541.284 144.337 541.384 143.747 541.384 143.091C541.384 142.443 541.286 141.862 541.09 141.346C540.898 140.83 540.608 140.423 540.221 140.125C539.837 139.827 539.358 139.678 538.782 139.678C538.229 139.678 537.76 139.82 537.376 140.106C536.997 140.391 536.709 140.79 536.513 141.301C536.317 141.812 536.219 142.409 536.219 143.091Z" fill="#707070"/>
<rect x="450" width="100" height="100" rx="50" fill="white"/>
<path d="M475.29 176.023L471.188 175.753L469.643 171.868L468.098 175.753L464 176.023L467.143 178.695L466.112 182.747L469.643 180.513L473.174 182.747L472.143 178.695L475.29 176.023Z" fill="#F0C722"/>
<path d="M489.968 176.023L485.865 175.753L484.32 171.868L482.775 175.753L478.677 176.023L481.821 178.695L480.789 182.747L484.32 180.513L487.852 182.747L486.82 178.695L489.968 176.023Z" fill="#F0C722"/>
<path d="M504.645 176.023L500.543 175.753L498.998 171.868L497.453 175.753L493.355 176.023L496.498 178.695L495.467 182.747L498.998 180.513L502.529 182.747L501.498 178.695L504.645 176.023Z" fill="#F0C722"/>
<path d="M519.323 176.023L515.22 175.753L513.675 171.868L512.13 175.753L508.032 176.023L511.175 178.695L510.144 182.747L513.675 180.513L517.206 182.747L516.175 178.695L519.323 176.023Z" fill="#F0C722"/>
<path d="M534 176.023L529.898 175.753L528.353 171.868L526.808 175.753L522.71 176.023L525.853 178.695L524.821 182.747L528.353 180.513L531.884 182.747L530.852 178.695L534 176.023Z" fill="#F0C722"/>
<path d="M476.021 50.3115H469.467C469.386 50.3115 469.308 50.3422 469.251 50.3967C469.194 50.4512 469.161 50.5251 469.161 50.6022V53.6436C469.161 53.7207 469.194 53.7947 469.251 53.8493C469.308 53.9039 469.386 53.9346 469.467 53.9348H472.024V57.7133C472.024 57.7133 471.45 57.8992 469.863 57.8992C467.991 57.8992 465.375 57.2496 465.375 51.7902C465.375 46.3297 468.098 45.6111 470.656 45.6111C472.869 45.6111 473.823 45.9812 474.429 46.1592C474.62 46.2147 474.796 46.0347 474.796 45.8739L475.527 42.9355C475.527 42.8604 475.501 42.7698 475.41 42.7083C475.164 42.5415 473.661 41.743 469.863 41.743C465.488 41.743 461 43.51 461 52.0031C461 60.4968 466.138 61.7623 470.468 61.7623C474.053 61.7623 476.228 60.3081 476.228 60.3081C476.318 60.2609 476.327 60.1421 476.327 60.0875V50.6021C476.327 50.4417 476.19 50.3115 476.021 50.3115ZM509.796 42.7607C509.796 42.7225 509.789 42.6846 509.774 42.6493C509.759 42.6139 509.736 42.5817 509.708 42.5546C509.68 42.5274 509.646 42.5058 509.609 42.491C509.572 42.4762 509.532 42.4686 509.492 42.4684H505.802C505.761 42.4686 505.722 42.4762 505.684 42.491C505.647 42.5058 505.613 42.5273 505.585 42.5545C505.557 42.5816 505.534 42.6138 505.519 42.6492C505.504 42.6845 505.496 42.7224 505.496 42.7607L505.497 49.5295H499.745V42.7607C499.745 42.7225 499.738 42.6846 499.723 42.6492C499.707 42.6139 499.685 42.5817 499.657 42.5545C499.629 42.5274 499.595 42.5058 499.558 42.491C499.521 42.4762 499.481 42.4686 499.441 42.4684H495.751C495.669 42.4688 495.592 42.4998 495.535 42.5546C495.477 42.6095 495.445 42.6836 495.446 42.7607V61.0888C495.446 61.2504 495.583 61.3818 495.751 61.3818H499.441C499.609 61.3818 499.745 61.2502 499.745 61.0888V53.2491H505.497L505.487 61.0888C505.487 61.2504 505.624 61.3818 505.793 61.3818H509.492C509.661 61.3818 509.796 61.2502 509.796 61.0888V42.7607ZM482.985 45.1659C482.985 43.9046 481.919 42.8854 480.605 42.8854C479.292 42.8854 478.226 43.9046 478.226 45.1659C478.226 46.4257 479.292 47.4475 480.605 47.4475C481.919 47.4475 482.985 46.4257 482.985 45.1659ZM482.721 57.2226V48.7624C482.721 48.6852 482.689 48.6112 482.632 48.5564C482.574 48.5017 482.497 48.4707 482.415 48.4703H478.737C478.568 48.4703 478.417 48.6355 478.417 48.7963V60.9171C478.417 61.2735 478.651 61.3792 478.954 61.3792H482.268C482.631 61.3792 482.721 61.2097 482.721 60.9116V57.2226ZM523.82 48.4979H520.158C519.99 48.4979 519.854 48.6292 519.854 48.7909V57.7777C519.854 57.7777 518.923 58.4239 517.603 58.4239C516.283 58.4239 515.932 57.8552 515.932 56.6281V48.7909C515.932 48.6292 515.796 48.4979 515.628 48.4979H511.911C511.744 48.4979 511.606 48.6292 511.606 48.7909V57.2214C511.606 60.8662 513.746 61.758 516.691 61.758C519.106 61.758 521.053 60.4915 521.053 60.4915C521.053 60.4915 521.146 61.1588 521.188 61.238C521.23 61.317 521.339 61.3966 521.457 61.3966L523.822 61.3868C523.989 61.3868 524.127 61.2551 524.127 61.0942L524.126 48.791C524.126 48.6292 523.989 48.4979 523.82 48.4979ZM532.384 58.4128C531.114 58.3761 530.252 57.8289 530.252 57.8289V52.0249C530.252 52.0249 531.102 51.5305 532.145 51.442C533.464 51.3299 534.734 51.708 534.734 54.6936C534.734 57.8421 534.161 58.4635 532.384 58.4128ZM533.828 48.0863C531.749 48.0863 530.334 48.9671 530.334 48.9671V42.7608C530.334 42.599 530.198 42.4684 530.029 42.4684H526.329C526.289 42.4686 526.249 42.4763 526.212 42.4911C526.175 42.5059 526.141 42.5275 526.113 42.5546C526.084 42.5818 526.062 42.614 526.047 42.6494C526.031 42.6847 526.024 42.7226 526.024 42.7608V61.0888C526.024 61.2504 526.161 61.3818 526.329 61.3818H528.897C529.012 61.3818 529.1 61.3253 529.165 61.2263C529.228 61.1278 529.321 60.3813 529.321 60.3813C529.321 60.3813 530.834 61.7424 533.698 61.7424C537.061 61.7424 538.99 60.1233 538.99 54.474C538.99 48.8245 535.91 48.0863 533.828 48.0863ZM493.326 48.4687H490.558L490.554 44.9976C490.554 44.8663 490.483 44.8006 490.323 44.8006H486.551C486.404 44.8006 486.325 44.8619 486.325 44.9956V48.5826C486.325 48.5826 484.435 49.0156 484.307 49.0508C484.243 49.0683 484.187 49.105 484.147 49.1554C484.108 49.2058 484.086 49.2671 484.086 49.3301V51.5841C484.086 51.7463 484.222 51.8767 484.391 51.8767H486.325V57.2991C486.325 61.3268 489.302 61.7225 491.31 61.7225C492.228 61.7225 493.326 61.4429 493.507 61.3791C493.616 61.3408 493.68 61.2331 493.68 61.1163L493.683 58.6367C493.683 58.4749 493.539 58.3443 493.377 58.3443C493.216 58.3443 492.803 58.4066 492.379 58.4066C491.019 58.4066 490.558 57.8065 490.558 57.0298L490.558 51.8765H493.326C493.495 51.8765 493.632 51.7459 493.632 51.5839V48.7605C493.632 48.7223 493.624 48.6845 493.609 48.6491C493.594 48.6137 493.571 48.5816 493.543 48.5545C493.514 48.5274 493.481 48.5059 493.443 48.4911C493.406 48.4764 493.367 48.4688 493.326 48.4687Z" fill="#121110"/>
<defs>
<filter id="filter0_i_3_537" x="331.191" y="25.9257" width="15.3803" height="41.4287" filterUnits="userSpaceOnUse" color-interpolation-filters="sRGB">
<feFlood flood-opacity="0" result="BackgroundImageFix"/>
<feBlend mode="normal" in="SourceGraphic" in2="BackgroundImageFix" result="shape"/>
<feColorMatrix in="SourceAlpha" type="matrix" values="0 0 0 0 0 0 0 0 0 0 0 0 0 0 0 0 0 0 127 0" result="hardAlpha"/>
<feOffset/>
<feGaussianBlur stdDeviation="124.619"/>
<feComposite in2="hardAlpha" operator="arithmetic" k2="-1" k3="1"/>
<feColorMatrix type="matrix" values="0 0 0 0 0 0 0 0 0 0 0 0 0 0 0 0 0 0 0.06 0"/>
<feBlend mode="normal" in2="shape" result="effect1_innerShadow_3_537"/>
</filter>
<filter id="filter1_i_3_537" x="346.652" y="-16.6278" width="16.828" height="64.4477" filterUnits="userSpaceOnUse" color-interpolation-filters="sRGB">
<feFlood flood-opacity="0" result="BackgroundImageFix"/>
<feBlend mode="normal" in="SourceGraphic" in2="BackgroundImageFix" result="shape"/>
<feColorMatrix in="SourceAlpha" type="matrix" values="0 0 0 0 0 0 0 0 0 0 0 0 0 0 0 0 0 0 127 0" result="hardAlpha"/>
<feOffset dx="7.12109" dy="-64.0898"/>
<feGaussianBlur stdDeviation="24.9238"/>
<feComposite in2="hardAlpha" operator="arithmetic" k2="-1" k3="1"/>
<feColorMatrix type="matrix" values="0 0 0 0 0 0 0 0 0 0 0 0 0 0 0 0 0 0 0.09 0"/>
<feBlend mode="normal" in2="shape" result="effect1_innerShadow_3_537"/>
</filter>
</defs>
</svg>
